SubSource-HROTx_VROTdd.ufo
<glyph name="exclam" format="2">
  <advance width="185"/>
  <unicode hex="0021"/>
  <outline>
    <contour>
      <point x="197" y="661" type="curve" smooth="yes"/>
      <point x="219" y="620"/>
      <point x="223" y="580"/>
      <point x="223" y="539" type="curve" smooth="yes"/>
      <point x="223" y="468"/>
      <point x="223" y="411"/>
      <point x="223" y="364" type="curve" smooth="yes"/>
      <point x="223" y="332"/>
      <point x="217" y="297"/>
      <point x="206" y="269" type="curve" smooth="yes"/>
      <point x="181" y="206"/>
      <point x="97" y="239"/>
      <point x="122" y="301" type="curve" smooth="yes"/>
      <point x="129" y="319"/>
      <point x="133" y="344"/>
      <point x="133" y="364" type="curve" smooth="yes"/>
      <point x="133" y="435"/>
      <point x="133" y="492"/>
      <point x="133" y="539" type="curve" smooth="yes"/>
      <point x="133" y="566"/>
      <point x="131" y="592"/>
      <point x="117" y="619" type="curve" smooth="yes"/>
      <point x="86" y="679"/>
      <point x="165" y="721"/>
    </contour>
    <contour>
      <point x="175" y="-4" type="curve" smooth="yes"/>
      <point x="103" y="11"/>
      <point x="103" y="113"/>
      <point x="175" y="128" type="curve" smooth="yes"/>
      <point x="241" y="142"/>
      <point x="259" y="54"/>
      <point x="193" y="40" type="curve" smooth="yes"/>
      <point x="191" y="40"/>
      <point x="191" y="84"/>
      <point x="193" y="84" type="curve" smooth="yes"/>
      <point x="259" y="70"/>
      <point x="241" y="-18"/>
    </contour>
  </outline>
</glyph>
<glyph name="quotedbl" format="2">
  <advance width="350"/>
  <unicode hex="0022"/>
  <outline>
    <contour>
      <point x="145.0" y="437.0" type="curve" smooth="yes"/>
      <point x="145.0" y="499.0"/>
      <point x="147.0" y="576.0"/>
      <point x="121.0" y="620.0" type="curve" smooth="yes"/>
      <point x="90.0" y="672.0"/>
      <point x="165.0" y="723.0"/>
      <point x="202.0" y="661.0" type="curve" smooth="yes"/>
      <point x="233.0" y="609.0"/>
      <point x="235.0" y="522.0"/>
      <point x="235.0" y="445.0" type="curve" smooth="yes"/>
      <point x="235.0" y="364.0"/>
      <point x="145.0" y="371.0"/>
    </contour>
    <contour>
      <point x="283.0" y="442.0" type="curve" smooth="yes"/>
      <point x="293.0" y="504.0"/>
      <point x="292.0" y="567.0"/>
      <point x="261.0" y="620.0" type="curve" smooth="yes"/>
      <point x="224.0" y="682.0"/>
      <point x="305.0" y="723.0"/>
      <point x="342.0" y="661.0" type="curve" smooth="yes"/>
      <point x="373.0" y="609.0"/>
      <point x="383.0" y="517.0"/>
      <point x="373.0" y="440.0" type="curve" smooth="yes"/>
      <point x="363" y="360"/>
      <point x="272" y="377"/>
    </contour>
  </outline>
</glyph>
<glyph name="numbersign" format="2">
  <advance width="494"/>
  <unicode hex="0023"/>
  <outline>
    <contour>
      <point x="309" y="631" type="curve" smooth="yes"/>
      <point x="291" y="541"/>
      <point x="230" y="490"/>
      <point x="222" y="341" type="curve" smooth="yes"/>
      <point x="214" y="201"/>
      <point x="273" y="128"/>
      <point x="276" y="42" type="curve" smooth="yes"/>
      <point x="278" y="-26"/>
      <point x="189" y="-29"/>
      <point x="186" y="38" type="curve" smooth="yes"/>
      <point x="183" y="112"/>
      <point x="122" y="183"/>
      <point x="132" y="347" type="curve" smooth="yes"/>
      <point x="142" y="516"/>
      <point x="205" y="571"/>
      <point x="221" y="649" type="curve" smooth="yes"/>
      <point x="234" y="715"/>
      <point x="322" y="697"/>
    </contour>
    <contour>
      <point x="477" y="631" type="curve" smooth="yes"/>
      <point x="459" y="539"/>
      <point x="398" y="490"/>
      <point x="390" y="341" type="curve" smooth="yes"/>
      <point x="383" y="200"/>
      <point x="437" y="129"/>
      <point x="444" y="43" type="curve" smooth="yes"/>
      <point x="449" y="-24"/>
      <point x="359" y="-31"/>
      <point x="354" y="37" type="curve" smooth="yes"/>
      <point x="349" y="111"/>
      <point x="291" y="184"/>
      <point x="300" y="347" type="curve" smooth="yes"/>
      <point x="310" y="516"/>
      <point x="373" y="569"/>
      <point x="389" y="649" type="curve" smooth="yes"/>
      <point x="402" y="715"/>
      <point x="490" y="697"/>
    </contour>
    <contour>
      <point x="489" y="507" type="curve" smooth="yes"/>
      <point x="489" y="507"/>
      <point x="634" y="417"/>
      <point x="438" y="417" type="curve" smooth="yes"/>
      <point x="341" y="417"/>
      <point x="307" y="417"/>
      <point x="241" y="417" type="curve" smooth="yes"/>
      <point x="211" y="417"/>
      <point x="167" y="417"/>
      <point x="116" y="417" type="curve" smooth="yes"/>
      <point x="48" y="417"/>
      <point x="49" y="507"/>
      <point x="116" y="507" type="curve" smooth="yes"/>
      <point x="192" y="507"/>
      <point x="221" y="507"/>
      <point x="241" y="507" type="curve" smooth="yes"/>
      <point x="340" y="507"/>
      <point x="373" y="507"/>
      <point x="438" y="507" type="curve" smooth="yes"/>
      <point x="440" y="507"/>
      <point x="524" y="417"/>
      <point x="489" y="417" type="curve" smooth="yes"/>
      <point x="422" y="417"/>
      <point x="422" y="507"/>
    </contour>
    <contour>
      <point x="489" y="173" type="curve" smooth="yes"/>
      <point x="483" y="173"/>
      <point x="442" y="173"/>
      <point x="422" y="173" type="curve" smooth="yes"/>
      <point x="325" y="173"/>
      <point x="291" y="173"/>
      <point x="226" y="173" type="curve" smooth="yes"/>
      <point x="200" y="173"/>
      <point x="163" y="173"/>
      <point x="116" y="173" type="curve" smooth="yes"/>
      <point x="48" y="173"/>
      <point x="49" y="263"/>
      <point x="116" y="263" type="curve" smooth="yes"/>
      <point x="185" y="263"/>
      <point x="209" y="263"/>
      <point x="226" y="263" type="curve" smooth="yes"/>
      <point x="323" y="263"/>
      <point x="357" y="263"/>
      <point x="422" y="263" type="curve" smooth="yes"/>
      <point x="452" y="263"/>
      <point x="485" y="263"/>
      <point x="489" y="263" type="curve" smooth="yes"/>
      <point x="557" y="263"/>
      <point x="557" y="173"/>
    </contour>
  </outline>
</glyph>
<glyph name="dollar" format="2">
  <advance width="354"/>
  <unicode hex="0024"/>
  <outline>
    <contour>
      <point x="259" y="726" type="curve" smooth="yes"/>
      <point x="257" y="683"/>
      <point x="251" y="643"/>
      <point x="265" y="637" type="curve" smooth="yes"/>
      <point x="271" y="634"/>
      <point x="307" y="552"/>
      <point x="303" y="553" type="curve" smooth="yes"/>
      <point x="264" y="566"/>
      <point x="201" y="549"/>
      <point x="201" y="478" type="curve" smooth="yes"/>
      <point x="201" y="360"/>
      <point x="428" y="391"/>
      <point x="428" y="198" type="curve" smooth="yes"/>
      <point x="428" y="49"/>
      <point x="284" y="7"/>
      <point x="205" y="34" type="curve" smooth="yes"/>
      <point x="200" y="36"/>
      <point x="159" y="121"/>
      <point x="165" y="119" type="curve" smooth="yes"/>
      <point x="217" y="98"/>
      <point x="230" y="76"/>
      <point x="222" y="-60" type="curve" smooth="yes"/>
      <point x="218" y="-127"/>
      <point x="128" y="-122"/>
      <point x="132" y="-54" type="curve" smooth="yes"/>
      <point x="133" y="-33"/>
      <point x="139" y="32"/>
      <point x="131" y="35" type="curve" smooth="yes"/>
      <point x="-23" y="97"/>
      <point x="113" y="160"/>
      <point x="233" y="120" type="curve" smooth="yes"/>
      <point x="272" y="107"/>
      <point x="338" y="127"/>
      <point x="338" y="198" type="curve" smooth="yes"/>
      <point x="338" y="321"/>
      <point x="111" y="293"/>
      <point x="111" y="478" type="curve" smooth="yes"/>
      <point x="111" y="627"/>
      <point x="252" y="666"/>
      <point x="331" y="639" type="curve" smooth="yes"/>
      <point x="449" y="599"/>
      <point x="380" y="484"/>
      <point x="227" y="555" type="curve" smooth="yes"/>
      <point x="179" y="578"/>
      <point x="161" y="588"/>
      <point x="169" y="730" type="curve" smooth="yes"/>
      <point x="173" y="798"/>
      <point x="263" y="793"/>
    </contour>
  </outline>
</glyph>
<glyph name="percent" format="2">
  <advance width="723"/>
  <unicode hex="0025"/>
  <outline>
    <contour>
      <point x="554.945532596829" y="11.819375559739832" type="curve" smooth="yes"/>
      <point x="523.8973657332922" y="40.23108406300969"/>
      <point x="497.89130478957014" y="100.79040756165159"/>
      <point x="497.88078688317836" y="186.0153913220065" type="curve" smooth="yes"/>
      <point x="497.86587602533035" y="306.8357875695697"/>
      <point x="559.4207225714249" y="382.0209426258318"/>
      <point x="639.0286733562916" y="382.0209426258318" type="curve" smooth="yes"/>
      <point x="718.516235274592" y="382.0209426258318"/>
      <point x="781.6131559343266" y="306.66418148739183"/>
      <point x="781.6280442429031" y="186.02649852938012" type="curve" smooth="yes"/>
      <point x="781.6386893861938" y="99.77053367195823"/>
      <point x="743.9929235151535" y="33.070145945542706"/>
      <point x="683.0042935099432" y="4.314736181095569" type="curve" smooth="yes"/>
      <point x="621.9502131594468" y="-24.471532638519182"/>
      <point x="583.5685213999604" y="56.93390782880941"/>
      <point x="644.6226017504569" y="85.72017664842416" type="curve" smooth="yes"/>
      <point x="676.5065195315897" y="100.75306262428708"/>
      <point x="691.6336100454859" y="140.9220994836528"/>
      <point x="691.6280449282924" y="186.01539132200654" type="curve" smooth="yes"/>
      <point x="691.6216672307264" y="237.69289740032505"/>
      <point x="673.0787219270471" y="292.0209426258318"/>
      <point x="639.0286733562916" y="292.0209426258318" type="curve" smooth="yes"/>
      <point x="605.2997239621565" y="292.0209426258318"/>
      <point x="587.8744686432632" y="237.21667476976742"/>
      <point x="587.8807861977891" y="186.02649852938015" type="curve" smooth="yes"/>
      <point x="587.8863097980939" y="141.26961167800212"/>
      <point x="599.3983529744329" y="93.13627490595086"/>
      <point x="615.7036572401573" y="78.2155372697799" type="curve" smooth="yes"/>
      <point x="665.5007785226874" y="32.64694378728369"/>
      <point x="604.7426538793591" y="-33.74921792275638"/>
    </contour>
    <contour>
      <point x="379.1308404880738" y="521.5699316730163" type="curve" smooth="yes"/>
      <point x="407.2602286619761" y="376.2611443026633"/>
      <point x="330.23434092725563" y="297.02094254967744"/>
      <point x="253.65486054255155" y="297.02094254967744" type="curve" smooth="yes"/>
      <point x="173.15770965183773" y="297.02094254967744"/>
      <point x="111.77736877644303" y="373.3173848314076"/>
      <point x="111.76247302371219" y="494.0153866308983" type="curve" smooth="yes"/>
      <point x="111.74735913850975" y="616.4808824217761"/>
      <point x="183.7518311865344" y="690.0236404980506"/>
      <point x="253.61920695972364" y="690.0209379010573" type="curve" smooth="yes"/>
      <point x="312.2788120578194" y="690.01866884099"/>
      <point x="325.58498554567007" y="647.4238549166989"/>
      <point x="381.14034682336757" y="648.0024413102748" type="curve" smooth="yes"/>
      <point x="527.6684607900171" y="649.5284717611191"/>
      <point x="695.839755546042" y="757.5871391536448"/>
      <point x="552.9419858845008" y="462.41275428989786" type="curve" smooth="yes"/>
      <point x="497.6980558506238" y="348.29905535793887"/>
      <point x="461.8646276586679" y="276.21001115414583"/>
      <point x="405.77864736511236" y="162.16241608591028" type="curve" smooth="yes"/>
      <point x="381.1301798966038" y="112.04118396715825"/>
      <point x="348.6391168118969" y="61.05983054388234"/>
      <point x="306.4943574087308" y="11.025382117335262" type="curve" smooth="yes"/>
      <point x="263.0088638422271" y="-40.6007919543269"/>
      <point x="194.1739650800109" y="17.379866134344738"/>
      <point x="237.65945864651462" y="69.0060402060069" type="curve" smooth="yes"/>
      <point x="274.7159843470366" y="112.99971463401876"/>
      <point x="303.34370754863494" y="157.80949336180086"/>
      <point x="325.0163088675229" y="201.87947388732337" type="curve" smooth="yes"/>
      <point x="380.98487932631946" y="315.68832285142486"/>
      <point x="416.807060334367" y="387.754312098161"/>
      <point x="471.93534327314507" y="501.6291265448132" type="curve" smooth="yes"/>
      <point x="530.9849935658528" y="623.6040477969284"/>
      <point x="442.62742682593586" y="558.6379233964011"/>
      <point x="382.0776092306423" y="558.0073217804919" type="curve" smooth="yes"/>
      <point x="283.93777326803394" y="556.9852354786514"/>
      <point x="286.82282686456705" y="600.0196534573996"/>
      <point x="253.61572559630022" y="600.02093796839" type="curve" smooth="yes"/>
      <point x="225.42517847127516" y="600.0220284299545"/>
      <point x="201.75637408877054" y="543.4396754853077"/>
      <point x="201.762472338323" y="494.0264938382719" type="curve" smooth="yes"/>
      <point x="201.76881830605026" y="442.60608978024356"/>
      <point x="219.36103659675993" y="387.02094254967744"/>
      <point x="253.65486054255155" y="387.02094254967744" type="curve" smooth="yes"/>
      <point x="286.2633371320559" y="387.02094254967744"/>
      <point x="302.7490698188138" y="442.5907132829622"/>
      <point x="290.7712333130312" y="504.46496690040817" type="curve" smooth="yes"/>
      <point x="277.94250973357515" y="570.7346722816901"/>
      <point x="366.30211690861773" y="587.8396370542982"/>
    </contour>
  </outline>
</glyph>
<glyph name="ampersand" format="2">
  <advance width="448"/>
  <unicode hex="0026"/>
  <outline>
    <contour>
      <point x="328" y="598" type="curve" smooth="yes"/>
      <point x="328" y="599"/>
      <point x="300" y="600"/>
      <point x="298" y="600" type="curve" smooth="yes"/>
      <point x="250" y="600"/>
      <point x="226" y="571"/>
      <point x="218" y="498" type="curve" smooth="yes"/>
      <point x="211" y="431"/>
      <point x="217" y="393"/>
      <point x="290" y="393" type="curve" smooth="yes"/>
      <point x="311" y="393"/>
      <point x="334" y="393"/>
      <point x="360" y="393" type="curve" smooth="yes"/>
      <point x="365" y="393"/>
      <point x="687" y="303"/>
      <point x="468" y="303" type="curve" smooth="yes"/>
      <point x="455" y="303"/>
      <point x="424" y="303"/>
      <point x="399" y="303" type="curve" smooth="yes"/>
      <point x="252" y="303"/>
      <point x="206" y="273"/>
      <point x="206" y="180" type="curve" smooth="yes"/>
      <point x="206" y="121"/>
      <point x="242" y="79"/>
      <point x="288" y="79" type="curve" smooth="yes"/>
      <point x="333" y="79"/>
      <point x="344" y="133"/>
      <point x="344" y="198" type="curve" smooth="yes"/>
      <point x="344" y="288"/>
      <point x="344" y="314"/>
      <point x="344" y="370" type="curve" smooth="yes"/>
      <point x="344" y="402"/>
      <point x="343" y="425"/>
      <point x="331" y="453" type="curve" smooth="yes"/>
      <point x="304" y="515"/>
      <point x="386" y="551"/>
      <point x="413" y="489" type="curve" smooth="yes"/>
      <point x="431" y="449"/>
      <point x="434" y="416"/>
      <point x="434" y="370" type="curve" smooth="yes"/>
      <point x="434" y="287"/>
      <point x="434" y="259"/>
      <point x="434" y="198" type="curve" smooth="yes"/>
      <point x="434" y="63"/>
      <point x="381" y="-11"/>
      <point x="288" y="-11" type="curve" smooth="yes"/>
      <point x="198" y="-11"/>
      <point x="116" y="64"/>
      <point x="116" y="180" type="curve" smooth="yes"/>
      <point x="116" y="314"/>
      <point x="186" y="393"/>
      <point x="399" y="393" type="curve" smooth="yes"/>
      <point x="436" y="393"/>
      <point x="459" y="393"/>
      <point x="468" y="393" type="curve" smooth="yes"/>
      <point x="472" y="393"/>
      <point x="655" y="303"/>
      <point x="360" y="303" type="curve" smooth="yes"/>
      <point x="321" y="303"/>
      <point x="304" y="303"/>
      <point x="290" y="303" type="curve" smooth="yes"/>
      <point x="158" y="303"/>
      <point x="115" y="388"/>
      <point x="128" y="508" type="curve" smooth="yes"/>
      <point x="142" y="638"/>
      <point x="211" y="690"/>
      <point x="298" y="690" type="curve" smooth="yes"/>
      <point x="351" y="690"/>
      <point x="390" y="671"/>
      <point x="406" y="644" type="curve" smooth="yes"/>
      <point x="440" y="586"/>
      <point x="363" y="540"/>
    </contour>
  </outline>
</glyph>
<glyph name="quotesingle" format="2">
  <advance width="211"/>
  <unicode hex="0027"/>
  <outline>
    <contour>
      <point x="60.12324523020875" y="437.9944435329095" type="curve" smooth="yes"/>
      <point x="60.09831572051563" y="639.9944404562735" type="line" smooth="yes"/>
      <point x="60.089985314985476" y="707.4944399422317"/>
      <point x="150.08998462959624" y="707.5055471496051"/>
      <point x="150.0983150351264" y="640.005547663647" type="curve" smooth="yes"/>
      <point x="150.12324454481956" y="438.00555074028307" type="line" smooth="yes"/>
      <point x="150.1315749503497" y="370.505551254325"/>
      <point x="60.1315756357389" y="370.4944440469514"/>
    </contour>
  </outline>
</glyph>
<glyph name="parenleft" format="2">
  <advance width="320"/>
  <unicode hex="0028"/>
  <outline>
    <contour>
      <point x="260.2673181719797" y="-177.88436854905814" type="curve" smooth="yes"/>
      <point x="146.68162049176502" y="-133.26585624213135"/>
      <point x="35.83208187017591" y="22.78235521730399"/>
      <point x="35.797253112013564" y="304.9944455586153" type="curve" smooth="yes"/>
      <point x="35.762424353851216" y="587.2065358999268"/>
      <point x="146.58240080476014" y="743.2653116259448"/>
      <point x="260.15708543891554" y="787.8838239328716" type="curve" smooth="yes"/>
      <point x="322.98283266999084" y="812.565304537913"/>
      <point x="355.89147347671275" y="728.7976415631459"/>
      <point x="293.06572624563745" y="704.1161609581045" type="curve" smooth="yes"/>
      <point x="203.4764532016119" y="668.9204648858714"/>
      <point x="125.76977902324364" y="527.6183304228638"/>
      <point x="125.79725242662435" y="305.0055527659889" type="curve" smooth="yes"/>
      <point x="125.82472583000506" y="82.39277510911394"/>
      <point x="203.57523448923646" y="-58.91992362047635"/>
      <point x="293.17319477543776" y="-94.11561969270959" type="curve" smooth="yes"/>
      <point x="355.99975641769913" y="-118.79502714530318"/>
      <point x="323.09387981424106" y="-202.56377600165172"/>
    </contour>
  </outline>
</glyph>
<glyph name="parenright" format="2">
  <advance width="320"/>
  <unicode hex="0029"/>
  <outline>
    <contour>
      <point x="119.0" y="789.0" type="curve" smooth="yes"/>
      <point x="177.0" y="773.0"/>
      <point x="229.0" y="739.0"/>
      <point x="263.0" y="693.0" type="curve" smooth="yes"/>
      <point x="325.0" y="610.0"/>
      <point x="369.0" y="483.0"/>
      <point x="369.0" y="305.0" type="curve" smooth="yes"/>
      <point x="369.0" y="127.0"/>
      <point x="325.0" y="0.0"/>
      <point x="263.0" y="-83.0" type="curve" smooth="yes"/>
      <point x="229.0" y="-129.0"/>
      <point x="179.0" y="-163.0"/>
      <point x="120.0" y="-179.0" type="curve" smooth="yes"/>
      <point x="54.0" y="-198.0"/>
      <point x="31.0" y="-111.0"/>
      <point x="94.0" y="-93.0" type="curve" smooth="yes"/>
      <point x="136.0" y="-81.0"/>
      <point x="168.0" y="-61.0"/>
      <point x="193.0" y="-27.0" type="curve" smooth="yes"/>
      <point x="243.0" y="40.0"/>
      <point x="279.0" y="153.0"/>
      <point x="279.0" y="305.0" type="curve" smooth="yes"/>
      <point x="279.0" y="457.0"/>
      <point x="243.0" y="570.0"/>
      <point x="193.0" y="637.0" type="curve" smooth="yes"/>
      <point x="168.0" y="671.0"/>
      <point x="135.0" y="690.0"/>
      <point x="94.0" y="703.0" type="curve" smooth="yes"/>
      <point x="31.0" y="720.0"/>
      <point x="53.0" y="808.0"/>
    </contour>
  </outline>
</glyph>
<glyph name="asterisk" format="2">
  <advance width="434"/>
  <unicode hex="002A"/>
  <outline>
    <contour>
      <point x="255.0" y="675.0" type="curve" smooth="yes"/>
      <point x="309.0" y="619.0"/>
      <point x="363.0" y="540.0"/>
      <point x="388.0" y="479.0" type="curve" smooth="yes"/>
      <point x="415.0" y="412.0"/>
      <point x="424.0" y="341.0"/>
      <point x="412.0" y="273.0" type="curve" smooth="yes"/>
      <point x="401.0" y="206.0"/>
      <point x="313.0" y="225.0"/>
      <point x="323.0" y="283.0" type="curve" smooth="yes"/>
      <point x="332.0" y="343.0"/>
      <point x="327.0" y="392.0"/>
      <point x="304.0" y="447.0" type="curve" smooth="yes"/>
      <point x="285.0" y="496.0"/>
      <point x="238.0" y="564.0"/>
      <point x="188.0" y="614.0" type="curve" smooth="yes"/>
      <point x="141.0" y="662.0"/>
      <point x="203.0" y="728.0"/>
    </contour>
    <contour>
      <point x="363.0" y="647.0" type="curve" smooth="yes"/>
      <point x="364.0" y="574.0"/>
      <point x="312.0" y="499.0"/>
      <point x="276.0" y="441.0" type="curve" smooth="yes"/>
      <point x="241.0" y="382.0"/>
      <point x="212.0" y="342.0"/>
      <point x="228.0" y="287.0" type="curve" smooth="yes"/>
      <point x="244.0" y="233.0"/>
      <point x="160.0" y="202.0"/>
      <point x="141.0" y="270.0" type="curve" smooth="yes"/>
      <point x="121.0" y="339.0"/>
      <point x="155.0" y="414.0"/>
      <point x="191.0" y="475.0" type="curve" smooth="yes"/>
      <point x="228.0" y="535.0"/>
      <point x="274.0" y="593.0"/>
      <point x="273.0" y="652.0" type="curve" smooth="yes"/>
      <point x="272.0" y="709.0"/>
      <point x="362.0" y="716.0"/>
    </contour>
    <contour>
      <point x="441.0" y="419.0" type="curve" smooth="yes"/>
      <point x="323.0" y="419.0"/>
      <point x="231.0" y="419.0"/>
      <point x="139.0" y="419.0" type="curve" smooth="yes"/>
      <point x="84.0" y="419.0"/>
      <point x="78.0" y="509.0"/>
      <point x="146.0" y="509.0" type="curve" smooth="yes"/>
      <point x="264.0" y="509.0"/>
      <point x="355.0" y="509.0"/>
      <point x="448.0" y="509.0" type="curve" smooth="yes"/>
      <point x="503.0" y="509.0"/>
      <point x="510.0" y="419.0"/>
    </contour>
  </outline>
</glyph>
<glyph name="plus" format="2">
  <advance width="382"/>
  <unicode hex="002B"/>
  <outline>
    <contour>
      <point x="319" y="492" type="curve" smooth="yes"/>
      <point x="286" y="373"/>
      <point x="286" y="247"/>
      <point x="319" y="126" type="curve" smooth="yes"/>
      <point x="337" y="61"/>
      <point x="251" y="37"/>
      <point x="233" y="102" type="curve" smooth="yes"/>
      <point x="194" y="239"/>
      <point x="194" y="381"/>
      <point x="233" y="516" type="curve" smooth="yes"/>
      <point x="251" y="581"/>
      <point x="338" y="557"/>
    </contour>
    <contour>
      <point x="410" y="263" type="curve" smooth="yes"/>
      <point x="345" y="263"/>
      <point x="242" y="263"/>
      <point x="141" y="263" type="curve" smooth="yes"/>
      <point x="74" y="263"/>
      <point x="74" y="353"/>
      <point x="141" y="353" type="curve" smooth="yes"/>
      <point x="292" y="353"/>
      <point x="367" y="353"/>
      <point x="410" y="353" type="curve" smooth="yes"/>
      <point x="478" y="353"/>
      <point x="478" y="263"/>
    </contour>
  </outline>
</glyph>
<glyph name="comma" format="2">
  <advance width="191"/>
  <unicode hex="002C"/>
  <outline>
    <contour>
      <point x="154.72163058669597" y="-88.00433410755143" type="curve" smooth="yes"/>
      <point x="185.6113496502042" y="-44.30882696727313"/>
      <point x="205.98762858895185" y="21.115147874420618"/>
      <point x="174.2192705605168" y="45.11191326254908" type="curve" smooth="yes"/>
      <point x="120.35833866080301" y="85.79667717847211"/>
      <point x="174.60469054870035" y="157.61125304475723"/>
      <point x="228.46562244841414" y="116.92648912883419" type="curve" smooth="yes"/>
      <point x="298.2490188152128" y="64.21442295588395"/>
      <point x="296.0657535551886" y="-43.97430208409975"/>
      <point x="228.21240378059733" y="-139.95725756102564" type="curve" smooth="yes"/>
      <point x="189.24771119049163" y="-195.07533745645162"/>
      <point x="115.75693799659027" y="-143.12241400297742"/>
    </contour>
  </outline>
</glyph>
<glyph name="period" format="2">
  <advance width="184"/>
  <unicode hex="002E"/>
  <outline>
    <contour>
      <point x="177.53730506309122" y="56.30254931669435" type="curve" smooth="yes"/>
      <point x="178.4059822053628" y="58.023077128071996"/>
      <point x="177.8688703177526" y="68.98396665845875"/>
      <point x="176.99975339100516" y="70.82694506409884" type="curve" smooth="yes"/>
      <point x="148.208751405368" y="131.8787935591529"/>
      <point x="229.61121606544012" y="170.26679620666914"/>
      <point x="258.4022180510773" y="109.21494771161507" type="curve" smooth="yes"/>
      <point x="271.57966773743357" y="81.27192363055062"/>
      <point x="271.0487767530578" y="41.82578752690151"/>
      <point x="257.877995027738" y="15.739345103953607" type="curve" smooth="yes"/>
      <point x="227.45559186818238" y="-44.51617236953143"/>
      <point x="147.1149019035356" y="-3.952968156790689"/>
    </contour>
  </outline>
</glyph>
<glyph name="slash" format="2">
  <advance width="346"/>
  <unicode hex="002F"/>
  <outline>
    <contour>
      <point x="310.81392789063665" y="719.7965847401881" type="curve" smooth="yes"/>
      <point x="112.92893056057733" y="-130.20340231357162" type="line" smooth="yes"/>
      <point x="97.62381863708657" y="-195.94534896112248"/>
      <point x="9.967889773685455" y="-175.53853306313482"/>
      <point x="25.273001697176205" y="-109.79658641558396" type="curve" smooth="yes"/>
      <point x="223.15799902723555" y="740.2034006381757" type="line" smooth="yes"/>
      <point x="238.46311095072636" y="805.9453472857265"/>
      <point x="326.11903981412746" y="785.5385313877389"/>
    </contour>
  </outline>
</glyph>
<glyph name="zero" format="2">
  <advance width="418"/>
  <unicode hex="0030"/>
  <outline>
    <contour>
      <point x="384.13731954447894" y="85.64317668820533" type="curve" smooth="yes"/>
      <point x="407.90548964683956" y="93.68274299906791"/>
      <point x="428.5794686450849" y="110.1751398482418"/>
      <point x="443.5743076617309" y="130.62788179011528" type="curve" smooth="yes"/>
      <point x="476.56966439249305" y="175.63306762406685"/>
      <point x="485.0514850888157" y="256.97196176667416"/>
      <point x="485.0411130023562" y="341.01538896122156" type="curve" smooth="yes"/>
      <point x="485.0250839532426" y="470.8963176883279"/>
      <point x="446.33013285789013" y="600.0209379347236"/>
      <point x="380.80406415134615" y="600.0209379347236" type="curve" smooth="yes"/>
      <point x="314.72900461813373" y="600.0209379347236"/>
      <point x="276.6260135885965" y="470.9723978465404"/>
      <point x="276.642050656244" y="341.02649616859514" type="curve" smooth="yes"/>
      <point x="276.65331626515996" y="249.74299342871808"/>
      <point x="301.7503186000353" y="170.96524968710634"/>
      <point x="323.1166840105669" y="122.0263954478767" type="curve" smooth="yes"/>
      <point x="326.6701248574142" y="113.88737318975019"/>
      <point x="338.5220847442123" y="84.83683542598531"/>
      <point x="343.88034702999937" y="81.63060206085984" type="curve" smooth="yes"/>
      <point x="401.80268344732144" y="46.97150593937153"/>
      <point x="355.590555285337" y="-30.25827595039123"/>
      <point x="297.66821886801495" y="4.400820171097081" type="curve" smooth="yes"/>
      <point x="269.7955928661978" y="21.07901520789757"/>
      <point x="259.11937890676995" y="43.67790472658053"/>
      <point x="240.63507887418874" y="86.01549690137281" type="curve" smooth="yes"/>
      <point x="215.65734640441556" y="143.2260512037991"/>
      <point x="186.65522107641058" y="234.30304614897133"/>
      <point x="186.6420513416332" y="341.01538896122156" type="curve" smooth="yes"/>
      <point x="186.614886318373" y="561.1294097563642"/>
      <point x="268.88020321897585" y="690.0209379347236"/>
      <point x="380.80406415134615" y="690.0209379347236" type="curve" smooth="yes"/>
      <point x="491.9090446480667" y="690.0209379347236"/>
      <point x="575.013933711195" y="561.2505739741352"/>
      <point x="575.041112316967" y="341.02649616859514" type="curve" smooth="yes"/>
      <point x="575.0550868485464" y="227.79300819320136"/>
      <point x="560.6125950543361" y="138.05044982716228"/>
      <point x="516.1572526874913" y="77.41401055913423" type="curve" smooth="yes"/>
      <point x="490.12569433288616" y="41.907344246777065"/>
      <point x="454.2371023063101" y="14.345210292396795"/>
      <point x="412.97473821457584" y="0.3882455437516015" type="curve" smooth="yes"/>
      <point x="349.03353985623556" y="-21.23981845882114"/>
      <point x="320.19612118613867" y="64.01511268563259"/>
    </contour>
  </outline>
</glyph>
<glyph name="one" format="2">
  <advance width="244"/>
  <unicode hex="0031"/>
  <outline>
    <contour>
      <point x="104.48047802273837" y="625.8787178112394" type="curve" smooth="yes"/>
      <point x="134.61280212083005" y="648.7047531369226"/>
      <point x="168.31714565304623" y="667.0050944063721"/>
      <point x="199.5285420203036" y="667.0069755693535" type="curve" smooth="yes"/>
      <point x="257.34211711251703" y="667.0104600900712"/>
      <point x="335.04058644362146" y="624.737617936745"/>
      <point x="335.0535092012096" y="520.0264934422693" type="curve" smooth="yes"/>
      <point x="335.07185479148137" y="371.37498669132736"/>
      <point x="335.0807798573115" y="299.0565459197497"/>
      <point x="335.09732096329395" y="165.0264988492284" type="curve" smooth="yes"/>
      <point x="335.1043612726452" y="107.97995101119287"/>
      <point x="328.640843925841" y="61.810934498501"/>
      <point x="309.71170906823824" y="21.058726868837642" type="curve" smooth="yes"/>
      <point x="281.27623262898805" y="-40.1595194281027"/>
      <point x="199.65190423306765" y="-2.2455508424358186"/>
      <point x="228.0873806723178" y="58.97269545450452" type="curve" smooth="yes"/>
      <point x="241.58389858753677" y="88.02911586124948"/>
      <point x="245.1023414058988" y="124.34106813529436"/>
      <point x="245.09732164868313" y="165.01539164185482" type="curve" smooth="yes"/>
      <point x="245.08622184028854" y="254.95543816358855"/>
      <point x="245.06582058318182" y="420.2636982744275"/>
      <point x="245.05350988659876" y="520.0153862348958" type="curve" smooth="yes"/>
      <point x="245.04845364078943" y="560.985371224708"/>
      <point x="222.15449810142778" y="577.0083391100405"/>
      <point x="199.53396647040316" y="577.0069757328238" type="curve" smooth="yes"/>
      <point x="191.67937266909027" y="577.0065023233385"/>
      <point x="166.4084634863524" y="559.8830767535856"/>
      <point x="158.82542672327085" y="554.1387251241998" type="curve" smooth="yes"/>
      <point x="105.02043220799115" y="513.3800135988005"/>
      <point x="50.675483507458665" y="585.1200062858401"/>
    </contour>
  </outline>
</glyph>
<glyph name="two" format="2">
  <advance width="357"/>
  <unicode hex="0032"/>
  <outline>
    <contour>
      <point x="96.0614434675405" y="68.69438162474025" type="curve" smooth="yes"/>
      <point x="106.08034245484416" y="84.89059806486004"/>
      <point x="116.60596513028321" y="101.21932610444566"/>
      <point x="127.54747489992346" y="118.29696539142277" type="curve" smooth="yes"/>
      <point x="137.14196992185285" y="133.2721679525769"/>
      <point x="146.70859081671622" y="148.75304620176777"/>
      <point x="156.38349571314558" y="164.06174099508786" type="curve" smooth="yes"/>
      <point x="188.53355992676242" y="214.93309589735125"/>
      <point x="220.10589269276818" y="265.0625805819"/>
      <point x="252.59674948280755" y="316.1650535171151" type="curve" smooth="yes"/>
      <point x="306.6915009254525" y="401.2466993905605"/>
      <point x="331.1115685422866" y="450.7703036153256"/>
      <point x="331.10524421154315" y="502.0153865090513" type="curve" smooth="yes"/>
      <point x="331.0979266965028" y="561.3080895673882"/>
      <point x="300.7917430743247" y="600.0209379347236"/>
      <point x="251.63680226176814" y="600.0209379347236" type="curve" smooth="yes"/>
      <point x="227.51768927794663" y="600.0209379347236"/>
      <point x="195.89578030568768" y="589.806712164794"/>
      <point x="157.42205716956312" y="573.5615054531931" type="curve" smooth="yes"/>
      <point x="95.23814374960776" y="547.3048698770289"/>
      <point x="60.22929631472212" y="630.2167544369694"/>
      <point x="122.41320973467748" y="656.4733900131337" type="curve" smooth="yes"/>
      <point x="178.06640750648856" y="679.9724857145263"/>
      <point x="216.74790522884936" y="690.0209379347236"/>
      <point x="251.63680226176814" y="690.0209379347236" type="curve" smooth="yes"/>
      <point x="346.4671792984782" y="690.0209379347236"/>
      <point x="421.09112647710924" y="616.4147788735394"/>
      <point x="421.10524352615397" y="502.0264937164249" type="curve" smooth="yes"/>
      <point x="421.11341871283093" y="435.7842088132574"/>
      <point x="398.4716580621543" y="377.8581680495469"/>
      <point x="328.54573084176036" y="267.8768331053269" type="curve" smooth="yes"/>
      <point x="296.1228900890075" y="216.88133758000467"/>
      <point x="264.5462193947643" y="166.74501157010687"/>
      <point x="232.4634578066354" y="115.98015025753891" type="curve" smooth="yes"/>
      <point x="222.98552927066913" y="100.9831330482476"/>
      <point x="213.12222763433735" y="85.03175532043467"/>
      <point x="203.3280765966783" y="69.74492726244414" type="curve" smooth="yes"/>
      <point x="192.65225388927416" y="53.08197551928969"/>
      <point x="182.37642100809575" y="37.15044455634536"/>
      <point x="172.6008057992486" y="21.34751252175202" type="curve" smooth="yes"/>
      <point x="137.09065397200743" y="-36.057009227029056"/>
      <point x="60.55129164029931" y="11.289859875959166"/>
    </contour>
    <contour>
      <point x="369.02670983073335" y="0.017501736043477933" type="curve" smooth="yes"/>
      <point x="366.2009158075015" y="0.02151225591089336"/>
      <point x="335.821815230893" y="0.02338282902814699"/>
      <point x="294.8478056757333" y="0.020249073161018316" type="curve" smooth="yes"/>
      <point x="226.06517893329945" y="0.014988471075683471"/>
      <point x="195.52431162939592" y="0.00879821601446836"/>
      <point x="151.3069088354874" y="0.0036686165440684704" type="curve" smooth="yes"/>
      <point x="120.90346275496499" y="0.00014155500135787447"/>
      <point x="99.60524138802617" y="3.1223285361647868e-06"/>
      <point x="88.36918514865123" y="3.1223285361647868e-06" type="curve" smooth="yes"/>
      <point x="71.13762940141453" y="3.1223285361647868e-06"/>
      <point x="61.041442686007954" y="3.1223285361647868e-06"/>
      <point x="49.47831218339112" y="3.1223285361647868e-06" type="curve" smooth="yes"/>
      <point x="-18.021687816608882" y="3.1223285526975185e-06"/>
      <point x="-18.021687816608868" y="90.00000312232855"/>
      <point x="49.47831218339113" y="90.00000312232854" type="curve" smooth="yes"/>
      <point x="66.70986793062784" y="90.00000312232854"/>
      <point x="76.80605464603447" y="90.00000312232854"/>
      <point x="88.36918514865125" y="90.00000312232854" type="curve" smooth="yes"/>
      <point x="101.16425161177932" y="90.00000312232854"/>
      <point x="116.67452375729219" y="89.99965156727308"/>
      <point x="151.29646806068675" y="90.00366801093418" type="curve" smooth="yes"/>
      <point x="183.40543568725758" y="90.00739292766211"/>
      <point x="244.89363923490657" y="90.01642876417695"/>
      <point x="294.8409223359073" y="90.02024880993676" type="curve" smooth="yes"/>
      <point x="335.9008864125396" y="90.02338913973915"/>
      <point x="366.322720652906" y="90.02143002653831"/>
      <point x="369.15444257471745" y="90.01741109347626" type="curve" smooth="yes"/>
      <point x="436.654374592792" y="89.92161153548827"/>
      <point x="436.5266418488079" y="-0.07829782194451143"/>
    </contour>
  </outline>
</glyph>
<glyph name="three" format="2">
  <advance width="346"/>
  <unicode hex="0033"/>
  <outline>
    <contour>
      <point x="163.98019082710607" y="103.99880952814001" type="curve" smooth="yes"/>
      <point x="193.97569124189948" y="88.50130578143059"/>
      <point x="227.73321894412126" y="80.74189237869936"/>
      <point x="258.88974634116585" y="81.02140537282361" type="curve" smooth="yes"/>
      <point x="305.91101000276524" y="81.44324488099693"/>
      <point x="334.87399392021206" y="120.61368804004792"/>
      <point x="313.12638521379483" y="180.70135941300728" type="curve" smooth="yes"/>
      <point x="290.309299994281" y="243.74394661729184"/>
      <point x="231.1674397068756" y="287.17253094097225"/>
      <point x="171.23098677040608" y="301.1825660460485" type="curve" smooth="yes"/>
      <point x="162.14378321985114" y="303.30668308188973"/>
      <point x="152.44247929253925" y="304.329419143341"/>
      <point x="142.86272137968376" y="305.1761488999645" type="curve" smooth="yes"/>
      <point x="133.87149733987366" y="305.97085968621076"/>
      <point x="122.46805124530657" y="307.001421377101"/>
      <point x="112.88264113358042" y="307.00156924812455" type="curve" smooth="yes"/>
      <point x="45.382641141612325" y="307.0026105486848"/>
      <point x="45.3840295423593" y="397.0026105379756"/>
      <point x="112.8840295343274" y="397.00156923741537" type="curve" smooth="yes"/>
      <point x="125.85023963207709" y="397.0013692118833"/>
      <point x="138.62424096082222" y="395.9016480035264"/>
      <point x="150.78669395732965" y="394.82664058065035" type="curve" smooth="yes"/>
      <point x="165.152012513755" y="393.55692763009904"/>
      <point x="178.0894182129941" y="392.00544164233787"/>
      <point x="191.71612725703218" y="388.8202235868751" type="curve" smooth="yes"/>
      <point x="280.0797656541793" y="368.16538641677255"/>
      <point x="364.11506845371366" y="304.2737335002922"/>
      <point x="397.7540405455577" y="211.33075629000044" type="curve" smooth="yes"/>
      <point x="443.9369889094361" y="83.72933298941265"/>
      <point x="359.55089054506084" y="-8.079160021390878"/>
      <point x="259.697126344901" y="-8.974973096143515" type="curve" smooth="yes"/>
      <point x="214.4655837743684" y="-9.380756569109966"/>
      <point x="166.21476657059225" y="1.5417636273374977"/>
      <point x="122.66874693090494" y="24.04029151279017" type="curve" smooth="yes"/>
      <point x="62.69985841939254" y="55.02387443494098"/>
      <point x="104.01130231559367" y="134.98239245029083"/>
    </contour>
    <contour>
      <point x="298.81749269283404" y="590.0031357287523" type="curve" smooth="yes"/>
      <point x="288.7080902636671" y="590.0031357287523"/>
      <point x="270.234702364696" y="590.0026775038287"/>
      <point x="254.26847394239252" y="590.0031357472864" type="curve" smooth="yes"/>
      <point x="242.95290562187407" y="590.0034605130994"/>
      <point x="230.22378214776694" y="590.0041919729347"/>
      <point x="218.90821375151782" y="590.005754151453" type="curve" smooth="yes"/>
      <point x="189.50209606441493" y="590.0098138331006"/>
      <point x="188.98424980912722" y="590.0211180246413"/>
      <point x="149.61816645305058" y="590.0209380875025" type="curve" smooth="yes"/>
      <point x="82.1181664537557" y="590.020629553848"/>
      <point x="82.11775507554974" y="680.0206295529078"/>
      <point x="149.6177550748446" y="680.0209380865623" type="curve" smooth="yes"/>
      <point x="187.76963665053233" y="680.0211124737465"/>
      <point x="188.57330907969978" y="680.0099429150938"/>
      <point x="218.92063876289498" y="680.0057532937813" type="curve" smooth="yes"/>
      <point x="230.22946837879257" y="680.0041920455901"/>
      <point x="242.96222747390695" y="680.0034602826229"/>
      <point x="254.27105701377064" y="680.0031357102183" type="curve" smooth="yes"/>
      <point x="276.7242766576032" y="680.0024912849515"/>
      <point x="291.62826555029886" y="680.0031357287523"/>
      <point x="298.81749269283404" y="680.0031357287523" type="curve" smooth="yes"/>
      <point x="366.31749269283404" y="680.0031357287523"/>
      <point x="366.31749269283404" y="590.0031357287523"/>
    </contour>
    <contour>
      <point x="154.62733307169822" y="380.9986814662739" type="curve" smooth="yes"/>
      <point x="162.67149991189493" y="392.3768369991615"/>
      <point x="171.83776614731576" y="405.1680884861869"/>
      <point x="180.47361936855492" y="418.49383417286896" type="curve" smooth="yes"/>
      <point x="186.75181188422968" y="428.1815389882025"/>
      <point x="193.75518332152484" y="439.4642595468088"/>
      <point x="201.08866890464782" y="450.6671754830632" type="curve" smooth="yes"/>
      <point x="229.0540654075845" y="493.3881957394374"/>
      <point x="258.93501209641863" y="539.8071233601919"/>
      <point x="285.9853844067615" y="583.6498179960066" type="curve" smooth="yes"/>
      <point x="292.66239562486004" y="594.47178231341"/>
      <point x="299.1098498882273" y="604.7990843540788"/>
      <point x="305.74218091779227" y="615.5877196460316" type="curve" smooth="yes"/>
      <point x="313.7338145891634" y="628.5874961473814"/>
      <point x="321.3382839037425" y="639.675901082451"/>
      <point x="327.92877335692606" y="650.8626753454561" type="curve" smooth="yes"/>
      <point x="362.19137908463756" y="709.0204250332439"/>
      <point x="439.73504533502137" y="663.3369507296285"/>
      <point x="405.47243960730987" y="605.1792010418407" type="curve" smooth="yes"/>
      <point x="397.9281272285429" y="592.373396533635"/>
      <point x="389.39433999723195" y="579.8103803303468"/>
      <point x="382.4130838163358" y="568.4541578378879" type="curve" smooth="yes"/>
      <point x="375.73361673335523" y="557.5888475900057"/>
      <point x="369.2096815899778" y="547.1376395918735"/>
      <point x="362.5797990394365" y="536.3920604626888" type="curve" smooth="yes"/>
      <point x="335.0908869113017" y="491.83858938740326"/>
      <point x="304.80851895470937" y="444.7883192022343"/>
      <point x="276.38974828944407" y="401.3747070575054" type="curve" smooth="yes"/>
      <point x="269.41101033597" y="390.713717307441"/>
      <point x="262.5978342003034" y="379.72820825252546"/>
      <point x="256.0005029752338" y="369.5480493424754" type="curve" smooth="yes"/>
      <point x="246.4309334254105" y="354.78151187535707"/>
      <point x="237.03020964570968" y="341.651575326229"/>
      <point x="228.11630014823004" y="329.04320323707833" type="curve" smooth="yes"/>
      <point x="189.14969147633332" y="273.92647792967944"/>
      <point x="115.66072439980151" y="325.881956158875"/>
    </contour>
  </outline>
</glyph>
<glyph name="four" format="2">
  <advance width="371"/>
  <unicode hex="0034"/>
  <outline>
    <contour>
      <point x="367.0" y="166.0" type="curve" smooth="yes"/>
      <point x="297.0" y="166.0"/>
      <point x="273.0" y="166.0"/>
      <point x="230.0" y="166.0" type="curve" smooth="yes"/>
      <point x="196.0" y="166.0"/>
      <point x="158.0" y="166.0"/>
      <point x="104.0" y="166.0" type="curve" smooth="yes"/>
      <point x="50.0" y="166.0"/>
      <point x="44.0" y="222.0"/>
      <point x="69.0" y="257.0" type="curve" smooth="yes"/>
      <point x="94.0" y="291.0"/>
      <point x="120.0" y="347.0"/>
      <point x="126.0" y="386.0" type="curve" smooth="yes"/>
      <point x="132.0" y="425.0"/>
      <point x="135.0" y="464.0"/>
      <point x="145.0" y="517.0" type="curve" smooth="yes"/>
      <point x="152.0" y="561.0"/>
      <point x="174.0" y="619.0"/>
      <point x="227.0" y="655.0" type="curve" smooth="yes"/>
      <point x="280.0" y="691.0"/>
      <point x="391.0" y="697.0"/>
      <point x="391.0" y="612.0" type="curve" smooth="yes"/>
      <point x="391.0" y="528.0"/>
      <point x="391.0" y="510.0"/>
      <point x="391.0" y="467.0" type="curve" smooth="yes"/>
      <point x="391.0" y="380.0"/>
      <point x="391.0" y="204.0"/>
      <point x="391.0" y="154.0" type="curve" smooth="yes"/>
      <point x="391.0" y="100.0"/>
      <point x="383.0" y="61.0"/>
      <point x="366.0" y="22.0" type="curve" smooth="yes"/>
      <point x="337.0" y="-41.0"/>
      <point x="257.0" y="1.0"/>
      <point x="283.0" y="56.0" type="curve" smooth="yes"/>
      <point x="299.0" y="92.0"/>
      <point x="301.0" y="111.0"/>
      <point x="301.0" y="160.0" type="curve" smooth="yes"/>
      <point x="301.0" y="221.0"/>
      <point x="301.0" y="425.0"/>
      <point x="301.0" y="483.0" type="curve" smooth="yes"/>
      <point x="301.0" y="528.0"/>
      <point x="301.0" y="547.0"/>
      <point x="301.0" y="572.0" type="curve" smooth="yes"/>
      <point x="301.0" y="597.0"/>
      <point x="271.0" y="585.0"/>
      <point x="256.0" y="567.0" type="curve" smooth="yes" identifier="aVXJlN4DXK"/>
      <point x="240.0" y="549.0"/>
      <point x="236.0" y="515.0"/>
      <point x="231.0" y="488.0" type="curve" smooth="yes"/>
      <point x="225.0" y="455.0"/>
      <point x="219.0" y="387.0"/>
      <point x="213.0" y="350.0" type="curve" smooth="yes"/>
      <point x="207.0" y="311.0"/>
      <point x="188.0" y="277.0"/>
      <point x="184.0" y="266.0" type="curve" smooth="yes"/>
      <point x="180" y="255"/>
      <point x="178.0" y="256.0"/>
      <point x="190.0" y="256.0" type="curve" smooth="yes"/>
      <point x="202.0" y="256.0"/>
      <point x="210.0" y="256.0"/>
      <point x="240.0" y="256.0" type="curve" smooth="yes"/>
      <point x="281.0" y="256.0"/>
      <point x="314.0" y="256.0"/>
      <point x="373.0" y="256.0" type="curve" smooth="yes"/>
      <point x="425.0" y="256.0"/>
      <point x="430.0" y="166.0"/>
    </contour>
  </outline>
</glyph>
<glyph name="five" format="2">
  <advance width="355"/>
  <unicode hex="0035"/>
  <outline>
    <contour>
      <point x="340" y="590" type="curve" smooth="yes"/>
      <point x="339" y="590"/>
      <point x="314" y="590"/>
      <point x="298" y="590" type="curve" smooth="yes"/>
      <point x="270" y="590"/>
      <point x="248" y="590"/>
      <point x="227" y="590" type="curve" smooth="yes"/>
      <point x="223" y="590"/>
      <point x="206" y="589"/>
      <point x="206" y="584" type="curve" smooth="yes"/>
      <point x="202" y="530"/>
      <point x="220" y="483"/>
      <point x="215" y="417" type="curve" smooth="yes"/>
      <point x="195" y="147"/>
      <point x="140" y="409"/>
      <point x="144" y="410" type="curve" smooth="yes"/>
      <point x="235" y="431"/>
      <point x="405" y="375"/>
      <point x="428" y="211" type="curve" smooth="yes"/>
      <point x="448" y="61"/>
      <point x="355" y="-9"/>
      <point x="250" y="-9" type="curve" smooth="yes"/>
      <point x="213" y="-9"/>
      <point x="178" y="0"/>
      <point x="108" y="21" type="curve" smooth="yes"/>
      <point x="43" y="41"/>
      <point x="70" y="127"/>
      <point x="134" y="107" type="curve" smooth="yes"/>
      <point x="187" y="91"/>
      <point x="222" y="81"/>
      <point x="250" y="81" type="curve" smooth="yes"/>
      <point x="310" y="81"/>
      <point x="350" y="113"/>
      <point x="338" y="199" type="curve" smooth="yes"/>
      <point x="325" y="297"/>
      <point x="219" y="335"/>
      <point x="164" y="322" type="curve" smooth="yes"/>
      <point x="65" y="299"/>
      <point x="124" y="414"/>
      <point x="125" y="425" type="curve" smooth="yes"/>
      <point x="130" y="479"/>
      <point x="112" y="524"/>
      <point x="116" y="588" type="curve" smooth="yes"/>
      <point x="120" y="654"/>
      <point x="177" y="680"/>
      <point x="227" y="680" type="curve" smooth="yes"/>
      <point x="259" y="680"/>
      <point x="279" y="680"/>
      <point x="298" y="680" type="curve" smooth="yes"/>
      <point x="321" y="680"/>
      <point x="339" y="680"/>
      <point x="340" y="680" type="curve" smooth="yes"/>
      <point x="408" y="680"/>
      <point x="408" y="590"/>
    </contour>
  </outline>
</glyph>
<glyph name="six" format="2">
  <advance width="378"/>
  <unicode hex="0036"/>
  <outline>
    <contour>
      <point x="77.04953404641498" y="349.86932981618975" type="curve" smooth="yes"/>
      <point x="126.3550111292391" y="402.1781827121899"/>
      <point x="183.92250749519064" y="440.01007627172305"/>
      <point x="249.08470367968164" y="440.0122150719857" type="curve" smooth="yes"/>
      <point x="351.5539671683901" y="440.0155783915253"/>
      <point x="452.4834141545708" y="351.9570443507876"/>
      <point x="452.4995727405817" y="221.0264979962996" type="curve" smooth="yes"/>
      <point x="452.51644825596134" y="84.286782826737"/>
      <point x="381.2884120919868" y="-7.9790528049069"/>
      <point x="280.9501673191196" y="-7.9790528049069" type="curve" smooth="yes"/>
      <point x="196.11323606038638" y="-7.9790528049069"/>
      <point x="100.18169819435681" y="69.16327315030814"/>
      <point x="100.15148015822973" y="314.0153893724551" type="curve" smooth="yes"/>
      <point x="100.11705002227896" y="592.9975050171614"/>
      <point x="217.2941871259008" y="687.0228366725597"/>
      <point x="307.03940515365895" y="687.0209379703451" type="curve" smooth="yes"/>
      <point x="349.6767562515725" y="687.0200359096592"/>
      <point x="381.72304765550143" y="667.4109945608093"/>
      <point x="398.02950429373186" y="635.4821643784998" type="curve" smooth="yes"/>
      <point x="428.73050625253336" y="575.3681187757817"/>
      <point x="348.5784454489092" y="534.4334494973797"/>
      <point x="317.8774434901077" y="594.5474951000978" type="curve" smooth="yes"/>
      <point x="316.775901261956" y="596.7043680199224"/>
      <point x="309.9177615478659" y="597.0208770540153"/>
      <point x="307.0375010610548" y="597.0209379904873" type="curve" smooth="yes"/>
      <point x="248.98280658734797" y="597.0221662294889"/>
      <point x="190.12920718839752" y="494.49540448723684"/>
      <point x="190.15147947284055" y="314.0264965798287" type="curve" smooth="yes"/>
      <point x="190.1696595971071" y="166.71573551165437"/>
      <point x="229.90959187612913" y="82.0209471950931"/>
      <point x="280.9501673191196" y="82.0209471950931" type="curve" smooth="yes"/>
      <point x="334.786451597181" y="82.0209471950931"/>
      <point x="362.5086279499501" y="147.64797047343382"/>
      <point x="362.4995734259709" y="221.01539078892608" type="curve" smooth="yes"/>
      <point x="362.49032135460016" y="295.9835073471613"/>
      <point x="307.7594337362414" y="350.01414088751"/>
      <point x="249.08765772409868" y="350.0122151204656" type="curve" smooth="yes"/>
      <point x="210.21880480549055" y="350.01093933914296"/>
      <point x="171.95193209284537" y="319.3395613756039"/>
      <point x="142.5415154858278" y="288.1376493989226" type="curve" smooth="yes"/>
      <point x="96.24275517287742" y="239.01866331936296"/>
      <point x="30.750773733464612" y="300.75034373663016"/>
    </contour>
  </outline>
</glyph>
<glyph name="seven" format="2">
  <advance width="341"/>
  <unicode hex="0037"/>
  <outline>
    <contour>
      <point x="52.71920676792574" y="679.9999941361148" type="curve" smooth="yes"/>
      <point x="291.7212988089788" y="679.9999941361148" type="line" smooth="yes"/>
      <point x="316.57194376192916" y="679.9999941361148"/>
      <point x="336.7182315633191" y="659.8561925035035"/>
      <point x="336.7212984662842" y="635.0055477398016" type="curve" smooth="yes"/>
      <point x="336.72623500285715" y="595.0055483490364" type="line" smooth="yes"/>
      <point x="336.7267875397686" y="590.5284264243085"/>
      <point x="336.0592034393511" y="586.0762869381463"/>
      <point x="334.745539529465" y="581.7962275733664" type="curve" smooth="yes"/>
      <point x="164.4012997084559" y="26.796236026499734" type="line" smooth="yes"/>
      <point x="144.5956489504812" y="-37.732720249370225"/>
      <point x="58.55704058265465" y="-11.32518590540392"/>
      <point x="78.36269134062933" y="53.20377037046604" type="curve" smooth="yes"/>
      <point x="248.70693116163847" y="608.2037619173327" type="line"/>
      <point x="246.72623568824633" y="594.9944411416627" type="line"/>
      <point x="246.7212991516734" y="634.9944405324279" type="line"/>
      <point x="291.7212988089788" y="589.9999941361148" type="line"/>
      <point x="52.71920676792574" y="589.9999941361148" type="line" smooth="yes"/>
      <point x="-14.78079323207426" y="589.9999941361148"/>
      <point x="-14.78079323207426" y="679.9999941361148"/>
    </contour>
  </outline>
</glyph>
<glyph name="eight" format="2">
  <advance width="379"/>
  <unicode hex="0038"/>
  <outline>
    <contour>
      <point x="243.1267328560608" y="-0.3974728195773167" type="curve" smooth="yes"/>
      <point x="151.17738533254192" y="24.602066856993627"/>
      <point x="103.85479995357449" y="98.86065259972919"/>
      <point x="96.88505087370956" y="198.89135828406947" type="curve" smooth="yes"/>
      <point x="87.09668640497904" y="339.3751826058504"/>
      <point x="114.34452664919769" y="404.0052343275645"/>
      <point x="211.76041122211956" y="404.0052343275645" type="curve" smooth="yes"/>
      <point x="257.1012293165014" y="404.0052343275645"/>
      <point x="324.3432194834141" y="445.04036527083923"/>
      <point x="334.2528701315447" y="503.5355370178377" type="curve" smooth="yes"/>
      <point x="343.625130461933" y="558.8585748473364"/>
      <point x="315.82138069164597" y="599.0209379499545"/>
      <point x="275.3648477365403" y="599.0209379499545" type="curve" smooth="yes"/>
      <point x="233.51819047533388" y="599.0209379499545"/>
      <point x="206.84147980550296" y="552.8014647057838"/>
      <point x="208.6365697414974" y="497.4803570082072" type="curve" smooth="yes"/>
      <point x="210.61059902963171" y="436.6446937596417"/>
      <point x="251.92100980526448" y="404.02617827848206"/>
      <point x="295.90611689093646" y="404.02617827848206" type="curve" smooth="yes"/>
      <point x="389.383996593626" y="404.02617827848206"/>
      <point x="447.44994465042873" y="335.97682168642996"/>
      <point x="444.8619009965854" y="201.1572679451554" type="curve" smooth="yes"/>
      <point x="442.876927688455" y="97.75359652985986"/>
      <point x="399.2056777441177" y="28.17133775934993"/>
      <point x="358.9930795092909" y="3.619100067951088" type="curve" smooth="yes"/>
      <point x="301.3824549512153" y="-31.55569116140031"/>
      <point x="254.4827333120801" y="45.25847491603383"/>
      <point x="312.09335787015567" y="80.43326614538523" type="curve" smooth="yes"/>
      <point x="333.23261389525425" y="93.3400680266438"/>
      <point x="353.83500346429076" y="148.52661472605539"/>
      <point x="354.87847891242075" y="202.88462141884338" type="curve" smooth="yes"/>
      <point x="356.1902317401277" y="271.21806339446886"/>
      <point x="343.28548502715256" y="314.02617827848206"/>
      <point x="295.90611689093646" y="314.02617827848206" type="curve" smooth="yes"/>
      <point x="211.2602434350954" y="314.02617827848206"/>
      <point x="122.48277709898787" y="377.4880820893176"/>
      <point x="118.68391324727352" y="494.5615234000395" type="curve" smooth="yes"/>
      <point x="114.92858258915433" y="610.2933581187989"/>
      <point x="187.82158218658736" y="689.0209379499545"/>
      <point x="275.3648477365403" y="689.0209379499545" type="curve" smooth="yes"/>
      <point x="363.22338791320766" y="689.0209379499545"/>
      <point x="443.3420624149966" y="608.6466462505634"/>
      <point x="422.98853603404416" y="488.5028527319227" type="curve" smooth="yes"/>
      <point x="404.7736301159131" y="380.98301294448294"/>
      <point x="295.10126400950435" y="314.0052343275645"/>
      <point x="211.76041122211956" y="314.0052343275645" type="curve" smooth="yes"/>
      <point x="175.08081953167533" y="314.0052343275645"/>
      <point x="182.98180744138915" y="258.0428216159132"/>
      <point x="186.66737898451402" y="205.1470404214431" type="curve" smooth="yes"/>
      <point x="190.82480015108712" y="145.47921474308"/>
      <point x="211.89177644289663" y="101.36194189381914"/>
      <point x="266.73911158602425" y="86.44983900245187" type="curve" smooth="yes"/>
      <point x="331.8745954525462" y="68.74055495497946"/>
      <point x="308.26221672258276" y="-18.10675686704972"/>
    </contour>
  </outline>
</glyph>
<glyph name="nine" format="2">
  <advance width="378"/>
  <unicode hex="0039"/>
  <outline>
    <contour>
      <point x="341" y="358" type="curve" smooth="yes"/>
      <point x="338" y="290"/>
      <point x="289" y="239"/>
      <point x="228" y="239" type="curve" smooth="yes"/>
      <point x="146" y="239"/>
      <point x="95" y="317"/>
      <point x="95" y="458" type="curve" smooth="yes"/>
      <point x="95" y="595"/>
      <point x="166" y="687"/>
      <point x="267" y="687" type="curve" smooth="yes"/>
      <point x="351" y="687"/>
      <point x="448" y="610"/>
      <point x="448" y="365" type="curve" smooth="yes"/>
      <point x="448" y="88"/>
      <point x="345" y="-8"/>
      <point x="241" y="-8" type="curve" smooth="yes"/>
      <point x="206" y="-8"/>
      <point x="166" y="2"/>
      <point x="121" y="23" type="curve" smooth="yes"/>
      <point x="60" y="52"/>
      <point x="98" y="134"/>
      <point x="159" y="105" type="curve" smooth="yes"/>
      <point x="190" y="90"/>
      <point x="218" y="82"/>
      <point x="241" y="82" type="curve" smooth="yes"/>
      <point x="309" y="82"/>
      <point x="358" y="183"/>
      <point x="358" y="365" type="curve" smooth="yes"/>
      <point x="358" y="512"/>
      <point x="318" y="597"/>
      <point x="267" y="597" type="curve" smooth="yes"/>
      <point x="213" y="597"/>
      <point x="185" y="531"/>
      <point x="185" y="458" type="curve" smooth="yes"/>
      <point x="185" y="403"/>
      <point x="196" y="329"/>
      <point x="228" y="329" type="curve" smooth="yes"/>
      <point x="242" y="329"/>
      <point x="250" y="347"/>
      <point x="251" y="362" type="curve" smooth="yes"/>
      <point x="254" y="430"/>
      <point x="344" y="425"/>
    </contour>
  </outline>
</glyph>
<glyph name="colon" format="2">
  <advance width="184"/>
  <unicode hex="003A"/>
  <outline>
    <contour>
      <point x="107.18429813559466" y="39.61022479348467" type="curve" smooth="yes"/>
      <point x="105.37111675560341" y="39.30854499199897"/>
      <point x="105.37617735605363" y="84.69150983748564"/>
      <point x="107.18943319871465" y="84.38983003599992" type="curve" smooth="yes"/>
      <point x="173.7741734549902" y="73.31181735301749"/>
      <point x="159.0034898776803" y="-15.467836322016574"/>
      <point x="92.41874962140474" y="-4.389823639034141" type="curve" smooth="yes"/>
      <point x="18.684469118668105" y="7.877691281592319"/>
      <point x="18.681771753177024" y="116.12226534253813"/>
      <point x="92.41302430406436" y="128.38978026316445" type="curve" smooth="yes"/>
      <point x="158.9976909063242" y="139.4682356368121"/>
      <point x="173.7689647378545" y="50.68868016713232"/>
    </contour>
    <contour>
      <point x="89.89007302673124" y="355.9426611023291" type="curve" smooth="yes"/>
      <point x="18.482908425215555" y="370.7930121636211"/>
      <point x="18.48069284931195" y="473.2068888323583"/>
      <point x="89.88419198571506" y="488.05723989365026" type="curve" smooth="yes"/>
      <point x="155.97005625837392" y="501.8016403293081"/>
      <point x="174.2959235059177" y="413.68715463242967"/>
      <point x="108.21005923325885" y="399.94275419677183" type="curve" smooth="yes"/>
      <point x="106.39688716110133" y="399.5656544449148"/>
      <point x="106.40177342220825" y="444.43443408026667"/>
      <point x="108.21503857270304" y="444.05733432840964" type="curve" smooth="yes"/>
      <point x="174.3010434922634" y="430.3136101689308"/>
      <point x="155.9760779462916" y="342.19893694285025"/>
    </contour>
  </outline>
</glyph>
<glyph name="semicolon" format="2">
  <advance width="197"/>
  <unicode hex="003B"/>
  <outline>
    <contour>
      <point x="178" y="356" type="curve" smooth="yes"/>
      <point x="106" y="371"/>
      <point x="106" y="473"/>
      <point x="178" y="488" type="curve" smooth="yes"/>
      <point x="244" y="502"/>
      <point x="262" y="414"/>
      <point x="196" y="400" type="curve" smooth="yes"/>
      <point x="194" y="400"/>
      <point x="194" y="444"/>
      <point x="196" y="444" type="curve" smooth="yes"/>
      <point x="262" y="430"/>
      <point x="244" y="342"/>
    </contour>
    <contour>
      <point x="124" y="-97" type="curve" smooth="yes"/>
      <point x="143" y="-51"/>
      <point x="161" y="28"/>
      <point x="141" y="53" type="curve" smooth="yes"/>
      <point x="99" y="106"/>
      <point x="169" y="162"/>
      <point x="211" y="109" type="curve" smooth="yes"/>
      <point x="252" y="58"/>
      <point x="246" y="-37"/>
      <point x="208" y="-131" type="curve" smooth="yes"/>
      <point x="182" y="-194"/>
      <point x="99" y="-159"/>
    </contour>
  </outline>
</glyph>
<glyph name="less" format="2">
  <advance width="317"/>
  <unicode hex="003C"/>
  <outline>
    <contour>
      <point x="281.96709834092337" y="441.6720321724564" type="curve" smooth="yes"/>
      <point x="86.11900657902713" y="275.67203470078096" type="line"/>
      <point x="86.41800413394994" y="344.07228009826537" type="line"/>
      <point x="282.30743938964406" y="175.07228267228254" type="line" smooth="yes"/>
      <point x="333.4158609078205" y="130.97943461366427"/>
      <point x="274.6253968296628" y="62.834872589429"/>
      <point x="223.51697531148636" y="106.92772064804727" type="curve" smooth="yes"/>
      <point x="27.627540055792238" y="275.9277180740301" type="line" smooth="yes"/>
      <point x="6.700942431834086" y="293.9817542193035"/>
      <point x="6.842903741686666" y="326.4575663822876"/>
      <point x="27.926537610715044" y="344.3279634715145" type="curve" smooth="yes"/>
      <point x="223.77462937261126" y="510.32796094318996" type="line" smooth="yes"/>
      <point x="275.2665759506613" y="553.9723126694241"/>
      <point x="333.45904491897346" y="485.31638389869056"/>
    </contour>
  </outline>
</glyph>
<glyph name="equal" format="2">
  <advance width="346"/>
  <unicode hex="003D"/>
  <outline>
    <contour>
      <point x="389.0" y="383.0" type="curve" smooth="yes"/>
      <point x="294.0" y="383.0"/>
      <point x="232.0" y="383.0"/>
      <point x="142.0" y="383.0" type="curve" smooth="yes"/>
      <point x="73.0" y="383.0"/>
      <point x="73.0" y="473.0"/>
      <point x="142.0" y="473.0" type="curve" smooth="yes"/>
      <point x="278.0" y="473.0"/>
      <point x="317.0" y="473.0"/>
      <point x="387.0" y="473.0" type="curve" smooth="yes"/>
      <point x="440.0" y="473.0"/>
      <point x="437.0" y="383.0"/>
    </contour>
    <contour>
      <point x="389.0" y="143.0" type="curve" smooth="yes"/>
      <point x="294.0" y="143.0"/>
      <point x="232.0" y="143.0"/>
      <point x="142.0" y="143.0" type="curve" smooth="yes"/>
      <point x="73.0" y="143.0"/>
      <point x="73.0" y="233.0"/>
      <point x="142.0" y="233.0" type="curve" smooth="yes"/>
      <point x="278.0" y="233.0"/>
      <point x="317.0" y="233.0"/>
      <point x="387.0" y="233.0" type="curve" smooth="yes"/>
      <point x="440.0" y="233.0"/>
      <point x="437.0" y="143.0"/>
    </contour>
  </outline>
</glyph>
<glyph name="greater" format="2">
  <advance width="317"/>
  <unicode hex="003E"/>
  <outline>
    <contour>
      <point x="109" y="179" type="curve" smooth="yes"/>
      <point x="164" y="213"/>
      <point x="216" y="252"/>
      <point x="257" y="292" type="curve" smooth="yes"/>
      <point x="260" y="295"/>
      <point x="194" y="318"/>
      <point x="189" y="322" type="curve" smooth="yes"/>
      <point x="105" y="383"/>
      <point x="150" y="415"/>
      <point x="119" y="440" type="curve" smooth="yes"/>
      <point x="67" y="484"/>
      <point x="125" y="553"/>
      <point x="177" y="510" type="curve" smooth="yes"/>
      <point x="236" y="460"/>
      <point x="198" y="427"/>
      <point x="241" y="394" type="curve" smooth="yes"/>
      <point x="350" y="316"/>
      <point x="392" y="301"/>
      <point x="319" y="228" type="curve" smooth="yes"/>
      <point x="274" y="184"/>
      <point x="218" y="141"/>
      <point x="157" y="103" type="curve" smooth="yes"/>
      <point x="99" y="67"/>
      <point x="52" y="144"/>
    </contour>
  </outline>
</glyph>
<glyph name="question" format="2">
  <advance width="361"/>
  <unicode hex="003F"/>
  <outline>
    <contour>
      <point x="199.0854416932832" y="649.827648720855" type="curve" smooth="yes"/>
      <point x="244.45283953890745" y="676.4616942113657"/>
      <point x="289.8168817514268" y="688.0209379651853"/>
      <point x="330.0512626509699" y="688.0209379651853" type="curve" smooth="yes"/>
      <point x="433.2026537801839" y="688.0209379651853"/>
      <point x="519.406975170848" y="610.0925422063274"/>
      <point x="495.6882943343513" y="499.575787577575" type="curve" smooth="yes"/>
      <point x="481.23450815188687" y="432.22863821478535"/>
      <point x="419.1951964113856" y="374.25916136433057"/>
      <point x="360.06796192483506" y="339.2789194416317" type="curve" smooth="yes"/>
      <point x="347.2070010199913" y="331.67025098763617"/>
      <point x="364.4899608558322" y="275.9653830655032"/>
      <point x="364.49118744767657" y="266.0264973109105" type="curve" smooth="yes"/>
      <point x="364.49951785320684" y="198.5264978249524"/>
      <point x="274.499518538596" y="198.5153906175787"/>
      <point x="274.49118813306575" y="266.0153901035368" type="curve" smooth="yes"/>
      <point x="274.4822840952435" y="338.1634441496491"/>
      <point x="220.88221743724998" y="361.5059177261112"/>
      <point x="314.2421096182057" y="416.73852995169676" type="curve" smooth="yes"/>
      <point x="349.370840641494" y="437.52102587430846"/>
      <point x="399.1047410524715" y="478.448850534664"/>
      <point x="407.692038792355" y="518.4612055127883" type="curve" smooth="yes"/>
      <point x="418.7169215279986" y="569.8314426901882"/>
      <point x="377.9979422769374" y="598.0209379651853"/>
      <point x="330.0512626509699" y="598.0209379651853" type="curve" smooth="yes"/>
      <point x="303.8696539743799" y="598.0209379651853"/>
      <point x="274.1721097836493" y="589.545727785295"/>
      <point x="244.65030702408956" y="572.2142281842914" type="curve" smooth="yes"/>
      <point x="186.44024162166681" y="538.0405791861866"/>
      <point x="140.87537629086046" y="615.6539997227502"/>
    </contour>
    <contour>
      <point x="280.05633467452844" y="56.30254931669443" type="curve" smooth="yes"/>
      <point x="280.92501181679995" y="58.02307712807207"/>
      <point x="280.38789992918976" y="68.9839666584587"/>
      <point x="279.5187830024424" y="70.82694506409878" type="curve" smooth="yes"/>
      <point x="250.7277810168051" y="131.87879355915283"/>
      <point x="332.13024567687717" y="170.26679620666914"/>
      <point x="360.9212476625144" y="109.21494771161512" type="curve" smooth="yes"/>
      <point x="374.0986973488708" y="81.27192363055067"/>
      <point x="373.567806364495" y="41.82578752690142"/>
      <point x="360.39702463917513" y="15.739345103953532" type="curve" smooth="yes"/>
      <point x="329.97462147961943" y="-44.51617236953145"/>
      <point x="249.63393151497274" y="-3.952968156790554"/>
    </contour>
  </outline>
</glyph>
<glyph name="at" format="2">
  <advance width="676"/>
  <unicode hex="0040"/>
  <outline>
    <contour>
      <point x="575.3110752599147" y="428.0264948435094" type="curve" smooth="yes"/>
      <point x="575.3155151832724" y="392.050476234816"/>
      <point x="575.3231028518644" y="330.5687603469659"/>
      <point x="575.3313150598635" y="264.0264973413722" type="curve" smooth="yes"/>
      <point x="575.347250366736" y="134.90514763231607"/>
      <point x="507.4914023586443" y="57.02094620508649"/>
      <point x="425.6995047600693" y="57.02094620508649" type="curve" smooth="yes"/>
      <point x="342.9140253813095" y="57.02094620508649"/>
      <point x="275.33617498701244" y="137.8276980366364"/>
      <point x="275.32023149260516" y="267.015390088306" type="curve" smooth="yes"/>
      <point x="275.30312037282255" y="405.66417163301975"/>
      <point x="342.79602565636117" y="477.0213962046877"/>
      <point x="404.44972913569256" y="477.01570499944734" type="curve" smooth="yes"/>
      <point x="471.546389889829" y="477.0095113590698"/>
      <point x="504.6015761521318" y="418.4644237705029"/>
      <point x="504.61989753770814" y="270.00904395755566" type="curve" smooth="yes"/>
      <point x="504.6292129795207" y="194.52744641927075"/>
      <point x="548.503590818365" y="162.01315317641897"/>
      <point x="586.207841780693" y="162.01570988543594" type="curve" smooth="yes"/>
      <point x="635.7346626333497" y="162.01906827782463"/>
      <point x="652.9197426181124" y="230.633835886583"/>
      <point x="652.9096990425771" y="312.0153894029168" type="curve" smooth="yes"/>
      <point x="652.8892180239392" y="477.9699449809121"/>
      <point x="569.5491283526945" y="599.0209379499545"/>
      <point x="438.3605367508645" y="599.0209379499545" type="curve" smooth="yes"/>
      <point x="301.88664257193756" y="599.0209379499545"/>
      <point x="209.02710032327406" y="449.5985580027424"/>
      <point x="209.05049605888922" y="260.02649740229566" type="curve" smooth="yes"/>
      <point x="209.07432716228442" y="66.92671839469003"/>
      <point x="298.280852958686" y="-63.97905058119976"/>
      <point x="429.96818567761056" y="-63.979050581199715" type="curve" smooth="yes"/>
      <point x="449.60453281900254" y="-63.9790505811997"/>
      <point x="489.6627111169389" y="-58.32660159417052"/>
      <point x="498.1253540882833" y="-47.796500467527224" type="curve" smooth="yes"/>
      <point x="540.4096519881789" y="4.818023678499998"/>
      <point x="610.5623508495485" y="-51.561040188027505"/>
      <point x="568.2780529496529" y="-104.17556433405473" type="curve" smooth="yes"/>
      <point x="542.579908096681" y="-136.1518706706471"/>
      <point x="489.5970386176939" y="-153.97905058119971"/>
      <point x="429.96818567761056" y="-153.97905058119971" type="curve" smooth="yes"/>
      <point x="255.25543270156533" y="-153.97905058119977"/>
      <point x="119.08211404257636" y="3.8252670226844985"/>
      <point x="119.05049674427842" y="260.0153901949221" type="curve" smooth="yes"/>
      <point x="119.01942600367705" y="511.77684010458904"/>
      <point x="257.116183735565" y="689.0209379499545"/>
      <point x="438.3605367508645" y="689.0209379499545" type="curve" smooth="yes"/>
      <point x="615.2042968505581" y="689.0209379499545"/>
      <point x="742.882089703856" y="535.7351838958465"/>
      <point x="742.9096983571878" y="312.0264966102904" type="curve" smooth="yes"/>
      <point x="742.929150268886" y="154.41063687131034"/>
      <point x="682.1350976739953" y="72.0222144644219"/>
      <point x="586.2139446418997" y="72.01571009235212" type="curve" smooth="yes"/>
      <point x="515.26950278749" y="72.01089938030879"/>
      <point x="414.6374261888611" y="127.97151609583116"/>
      <point x="414.6198982230973" y="269.9979367501821" type="curve" smooth="yes"/>
      <point x="414.6185459217388" y="280.95542743572395"/>
      <point x="409.39382543024357" y="387.0152482303332"/>
      <point x="404.44142130599164" y="387.015705382892" type="curve" smooth="yes"/>
      <point x="384.82200193602046" y="387.0175164361788"/>
      <point x="365.31478571282656" y="311.1472627444768"/>
      <point x="365.320230807216" y="267.0264972956796" type="curve" smooth="yes"/>
      <point x="365.32753984270005" y="207.80250278094024"/>
      <point x="387.7478493139237" y="147.0209462050865"/>
      <point x="425.6995047600693" y="147.0209462050865" type="curve" smooth="yes"/>
      <point x="463.3276777890198" y="147.0209462050865"/>
      <point x="485.33864674626705" y="204.6134122947091"/>
      <point x="485.33131574525277" y="264.0153901339986" type="curve" smooth="yes"/>
      <point x="485.32580499310694" y="308.66817032167955"/>
      <point x="485.31769238769726" y="374.4033688079275"/>
      <point x="485.3110759453039" y="428.0153876361358" type="curve" smooth="yes"/>
      <point x="485.3027455397736" y="495.5153871220939"/>
      <point x="575.3027448543844" y="495.5264943294675"/>
    </contour>
  </outline>
</glyph>
<glyph name="C" format="2">
  <advance width="424"/>
  <unicode hex="0043"/>
  <outline>
    <contour>
      <point x="553.5771525637973" y="59.73781511497302" type="curve" smooth="yes"/>
      <point x="524.6949691557396" y="14.66307205172965"/>
      <point x="474.081664525287" y="-7.238361323476463"/>
      <point x="422.2881777990535" y="-7.974508207839364" type="curve" smooth="yes"/>
      <point x="298.13072198734716" y="-9.739172648164045"/>
      <point x="191.3769927278212" y="115.47584992061657"/>
      <point x="191.34928153623406" y="340.0153889764524" type="curve" smooth="yes"/>
      <point x="191.3216399000498" y="563.9913312618548"/>
      <point x="300.8911672184865" y="688.9043030718478"/>
      <point x="424.7237092258153" y="688.0197900632899" type="curve" smooth="yes"/>
      <point x="475.7745599825651" y="687.6551432518754"/>
      <point x="524.1315801776879" y="667.7171200758258"/>
      <point x="553.1553963304375" y="623.8437416602576" type="curve" smooth="yes"/>
      <point x="590.3974548494025" y="567.5473911811192"/>
      <point x="515.3356542105513" y="517.8913131558326"/>
      <point x="478.09359569158624" y="574.1876636349709" type="curve" smooth="yes"/>
      <point x="466.2635216275012" y="592.0704021889304"/>
      <point x="444.88914024402385" y="597.8734562463734"/>
      <point x="424.08087222342766" y="598.0220858670808" type="curve" smooth="yes"/>
      <point x="341.29213615738394" y="598.6134305396964"/>
      <point x="281.33080092557316" y="489.76649885543554"/>
      <point x="281.3492808508449" y="340.026496183826" type="curve" smooth="yes"/>
      <point x="281.3676596421972" y="191.10596616365302"/>
      <point x="338.664635135936" y="80.84603071222799"/>
      <point x="421.0091264588557" y="82.01640259802556" type="curve" smooth="yes"/>
      <point x="442.50299086076006" y="82.32189740659123"/>
      <point x="465.8130903903634" y="89.58796397000823"/>
      <point x="477.79895527497837" y="108.29360586805248" type="curve" smooth="yes"/>
      <point x="514.215798339788" y="165.12725383466667"/>
      <point x="589.9939956286069" y="116.57146308158721"/>
    </contour>
  </outline>
</glyph>
<glyph name="D" format="2">
  <advance width="466"/>
  <unicode hex="0044"/>
  <outline>
    <contour>
      <point x="208.00118937055598" y="64.19783886276277" type="curve" smooth="yes"/>
      <point x="220.19576258028425" y="90.07621998586866"/>
      <point x="224.91236300076523" y="116.8017429547076"/>
      <point x="224.9024635604149" y="197.01539115446698" type="curve" smooth="yes"/>
      <point x="224.8655629495325" y="496.01538660043656" type="line" smooth="yes"/>
      <point x="224.861469687136" y="529.1824645601325"/>
      <point x="175.1926869505186" y="680.0109897103464"/>
      <point x="263.48444772544974" y="680.0109897103464" type="curve" smooth="yes"/>
      <point x="304.8401815188178" y="680.0109897103464"/>
      <point x="343.6803753408846" y="680.016795775709"/>
      <point x="402.07418412346334" y="680.0209379738156" type="curve" smooth="yes"/>
      <point x="600.2415308804082" y="680.0349950874996"/>
      <point x="633.058099780698" y="540.7061681156728"/>
      <point x="633.0827428234604" y="341.0273688332167" type="curve" smooth="yes"/>
      <point x="633.1078803903358" y="137.3415164436451"/>
      <point x="545.676536933399" y="0.02450445948126449"/>
      <point x="395.78729710841503" y="0.020947085919743813" type="curve" smooth="yes"/>
      <point x="371.86275767030764" y="0.02037927648813516"/>
      <point x="354.8974052229376" y="0.019172979407978127"/>
      <point x="319.4230882843429" y="0.015711299770352127" type="curve" smooth="yes"/>
      <point x="251.92308860572334" y="0.009124467532707979"/>
      <point x="251.91430616273985" y="90.00912403902547"/>
      <point x="319.4143058413594" y="90.01571087126311" type="curve" smooth="yes"/>
      <point x="344.6895826828573" y="90.01817730102772"/>
      <point x="378.73904409123423" y="90.0205424991372"/>
      <point x="395.7851611073904" y="90.02094706057252" type="curve" smooth="yes"/>
      <point x="497.86270314048926" y="90.0233697024491"/>
      <point x="543.0998626899353" y="202.30216057948908"/>
      <point x="543.0827435088497" y="341.01626162584313" type="curve" smooth="yes"/>
      <point x="543.0654081267767" y="481.4822061435235"/>
      <point x="541.483267233269" y="590.0308268101463"/>
      <point x="402.0805683247997" y="590.0209382002491" type="curve" smooth="yes"/>
      <point x="315.0612121822071" y="590.014765432626"/>
      <point x="291.2359609317301" y="590.0109897103464"/>
      <point x="263.48444772544974" y="590.0109897103464" type="curve" smooth="yes"/>
      <point x="256.40843565372575" y="590.0109897103464"/>
      <point x="314.8151284576891" y="904.6838991870341"/>
      <point x="314.8655622641433" y="496.02649380781014" type="curve" smooth="yes"/>
      <point x="314.9024628750257" y="197.0264983618405" type="line" smooth="yes"/>
      <point x="314.91537515626385" y="92.40026212596723"/>
      <point x="305.3207738319345" y="59.587909131293955"/>
      <point x="289.4148485178368" y="25.833583308270686" type="curve" smooth="yes"/>
      <point x="260.6416568519677" y="-35.226661052189925"/>
      <point x="179.2279977046869" y="3.13759450230215"/>
    </contour>
  </outline>
</glyph>
<glyph name="F" format="2">
  <advance width="355"/>
  <unicode hex="0046"/>
  <outline>
    <contour>
      <point x="127.92034237011895" y="116.01539238816751" type="curve" smooth="yes"/>
      <point x="127.90015107050135" y="279.6223991384072"/>
      <point x="135.64184309104178" y="461.32091017580467"/>
      <point x="128.04670153817236" y="546.0009254029775" type="curve" smooth="yes"/>
      <point x="119.17178430198624" y="644.9494599982563"/>
      <point x="125.69097767468868" y="680.0139567700598"/>
      <point x="204.67609604957983" y="680.0139567700598" type="curve" smooth="yes"/>
      <point x="241.72394090613864" y="680.0139567700598"/>
      <point x="342.5660470879768" y="680.0209380870324"/>
      <point x="383.57411125898227" y="680.0209380870324" type="curve" smooth="yes"/>
      <point x="451.07411125898227" y="680.0209380870324"/>
      <point x="451.07411125898227" y="590.0209380870324"/>
      <point x="383.57411125898227" y="590.0209380870324" type="curve" smooth="yes"/>
      <point x="322.4632603791948" y="590.0209380870324"/>
      <point x="229.5368266302059" y="590.0139567700598"/>
      <point x="204.67609604957983" y="590.0139567700598" type="curve" smooth="yes"/>
      <point x="200.94299890861424" y="590.0139567700598"/>
      <point x="217.26740182019364" y="558.7175873795077"/>
      <point x="217.6868596730446" y="554.0409533603353" type="curve" smooth="yes"/>
      <point x="225.86604033808328" y="462.8493490380159"/>
      <point x="217.89859774667607" y="292.21429767164915"/>
      <point x="217.92034168472975" y="116.02649959554107" type="curve" smooth="yes"/>
      <point x="217.92867209025988" y="48.52650010958297"/>
      <point x="127.92867277564909" y="48.51539290220941"/>
    </contour>
    <contour>
      <point x="217.92046509814406" y="115.02649961077194" type="curve" smooth="yes"/>
      <point x="217.94026753380675" y="-45.42960210073469"/>
      <point x="43.794981582324105" y="-48.85691763283209"/>
      <point x="43.77537717101815" y="109.99462306155947" type="curve" smooth="yes"/>
      <point x="43.76650512326382" y="181.88346649029364"/>
      <point x="43.76774715021135" y="171.81951245899907"/>
      <point x="43.76143145519974" y="222.994621340471" type="curve" smooth="yes"/>
      <point x="43.74950320539933" y="319.6474016255885"/>
      <point x="153.75030122911872" y="375.0131228056221"/>
      <point x="242.89443659506517" y="375.01919729872867" type="curve" smooth="yes"/>
      <point x="285.09986275201413" y="375.0220732767074"/>
      <point x="346.08574112434127" y="375.02076692563895"/>
      <point x="361.6959673997381" y="375.0191971756819" type="curve" smooth="yes"/>
      <point x="429.1959670584538" y="375.0124094379739"/>
      <point x="429.1869167415099" y="285.01240989301965"/>
      <point x="361.6869170827942" y="285.01919763072766" type="curve" smooth="yes"/>
      <point x="338.4940173042687" y="285.0215298873388"/>
      <point x="305.6072977866365" y="285.02347049308474"/>
      <point x="242.90056940878705" y="285.0191975076809" type="curve" smooth="yes"/>
      <point x="206.43077763080316" y="285.0167123694511"/>
      <point x="133.75655079891047" y="262.5473849595798"/>
      <point x="133.76143076981054" y="223.00572854784465" type="curve" smooth="yes"/>
      <point x="133.76566887847036" y="188.66498351227366"/>
      <point x="133.76942295203543" y="158.2463006760447"/>
      <point x="133.77537648562895" y="110.00573026893302" type="curve" smooth="yes"/>
      <point x="133.77629796116778" y="102.53915518216168"/>
      <point x="127.92139656690584" y="107.47339736625561"/>
      <point x="127.92046578353329" y="115.01539240339841" type="curve" smooth="yes"/>
      <point x="127.91213537800309" y="182.51539188935652"/>
      <point x="217.91213469261388" y="182.52649909673005"/>
    </contour>
  </outline>
</glyph>
<glyph name="G" format="2">
  <advance width="461"/>
  <unicode hex="0047"/>
  <outline>
    <contour>
      <point x="418.7955234868073" y="576.3008098828874" type="curve" smooth="yes"/>
      <point x="399.23613126176997" y="593.5895610668632"/>
      <point x="370.3738494355962" y="601.3360287645909"/>
      <point x="345.9292599291981" y="601.0245897464961" type="curve" smooth="yes"/>
      <point x="248.08211624770144" y="599.7779573027981"/>
      <point x="193.09404892469803" y="476.9826329107672"/>
      <point x="193.11082773598702" y="341.02649616859514" type="curve" smooth="yes"/>
      <point x="193.12765319500937" y="204.69237999068224"/>
      <point x="243.9355097048329" y="80.02094722555485"/>
      <point x="339.7745302850186" y="80.02094722555483" type="curve" smooth="yes"/>
      <point x="372.4185759742229" y="80.02094722555483"/>
      <point x="391.1166897647631" y="90.83782952158269"/>
      <point x="390.2734454355709" y="108.91504409428515" type="curve" smooth="yes"/>
      <point x="388.3772795249685" y="149.56447017965178"/>
      <point x="381.5657732998225" y="183.83430505658396"/>
      <point x="388.2956460031519" y="253.34605783633273" type="curve" smooth="yes"/>
      <point x="388.72642358535836" y="257.79548892031056"/>
      <point x="423.0831760694379" y="275.01570689702726"/>
      <point x="421.0566376214854" y="275.01570689702726" type="curve" smooth="yes"/>
      <point x="386.593526127012" y="275.01570689702726"/>
      <point x="353.09931336394965" y="275.01570689702726"/>
      <point x="336.91093066028617" y="275.01570689702726" type="curve" smooth="yes"/>
      <point x="269.41093066028617" y="275.01570689702726"/>
      <point x="269.41093066028617" y="365.01570689702726"/>
      <point x="336.91093066028617" y="365.01570689702726" type="curve" smooth="yes"/>
      <point x="361.03510870641765" y="365.01570689702726"/>
      <point x="397.9303766162516" y="365.01570689702726"/>
      <point x="421.0566376214854" y="365.01570689702726" type="curve" smooth="yes"/>
      <point x="470.76803778954644" y="365.01570689702726"/>
      <point x="488.4438469369586" y="353.81858997284866"/>
      <point x="477.87678525888487" y="244.67314081580346" type="curve" smooth="yes"/>
      <point x="472.0328576714602" y="184.3121700178198"/>
      <point x="478.529140657565" y="148.40688322308432"/>
      <point x="480.1756883359217" y="113.10869661760356" type="curve" smooth="yes"/>
      <point x="482.81224590032963" y="56.58698022403806"/>
      <point x="441.84210739781065" y="-9.979052774445172"/>
      <point x="339.7745302850186" y="-9.979052774445165" type="curve" smooth="yes"/>
      <point x="196.41795124237294" y="-9.979052774445151"/>
      <point x="103.13599604341232" y="137.0860042100912"/>
      <point x="103.11082842137621" y="341.01538896122156" type="curve" smooth="yes"/>
      <point x="103.0860671493632" y="541.6521817429335"/>
      <point x="200.38511824623586" y="689.177572628466"/>
      <point x="344.782697947522" y="691.0172860924895" type="curve" smooth="yes"/>
      <point x="390.98514414280476" y="691.6059335096562"/>
      <point x="441.4315114345407" y="676.4113616684128"/>
      <point x="478.4005006930101" y="643.7340857357484" type="curve" smooth="yes"/>
      <point x="528.9754575826558" y="599.0303528310964"/>
      <point x="469.37048037645314" y="531.5970769782353"/>
    </contour>
  </outline>
</glyph>
<glyph name="H" format="2">
  <advance width="486"/>
  <unicode hex="0048"/>
  <outline>
    <contour>
      <point x="194.0" y="659.0" type="curve" smooth="yes"/>
      <point x="217.0" y="618.0"/>
      <point x="219.0" y="570.0"/>
      <point x="219.0" y="526.0" type="curve" smooth="yes"/>
      <point x="219.0" y="402.0"/>
      <point x="219.0" y="297.0"/>
      <point x="219.0" y="123.0" type="curve" smooth="yes"/>
      <point x="219.0" y="-56.0"/>
      <point x="44.0" y="-16.0"/>
      <point x="44.0" y="104.0" type="curve" smooth="yes"/>
      <point x="44.0" y="207.0"/>
      <point x="44.0" y="214.0"/>
      <point x="44.0" y="258.0" type="curve" smooth="yes"/>
      <point x="44.0" y="365.0"/>
      <point x="101.0" y="399.0"/>
      <point x="151.0" y="399.0" type="curve"/>
      <point x="227.0" y="399.0"/>
      <point x="288.0" y="399.0"/>
      <point x="332.0" y="399.0" type="curve" smooth="yes"/>
      <point x="355.0" y="399.0"/>
      <point x="354.0" y="415.0"/>
      <point x="354.0" y="450.0" type="curve" smooth="yes"/>
      <point x="354.0" y="480.0"/>
      <point x="354.0" y="485.0"/>
      <point x="354.0" y="587.0" type="curve" smooth="yes"/>
      <point x="354.0" y="693.0"/>
      <point x="528.0" y="726.0"/>
      <point x="528.0" y="554.0" type="curve" smooth="yes"/>
      <point x="528.0" y="388.0"/>
      <point x="528.0" y="200.0"/>
      <point x="528.0" y="152.0" type="curve" smooth="yes"/>
      <point x="528.0" y="115.0"/>
      <point x="525.0" y="63.0"/>
      <point x="503.0" y="22.0" type="curve" smooth="yes"/>
      <point x="468.0" y="-44.0"/>
      <point x="391.0" y="4.0"/>
      <point x="422.0" y="61.0" type="curve" smooth="yes"/>
      <point x="440.0" y="94.0"/>
      <point x="438.0" y="120.0"/>
      <point x="438.0" y="164.0" type="curve" smooth="yes"/>
      <point x="438.0" y="206.0"/>
      <point x="438.0" y="468.0"/>
      <point x="438.0" y="525.0" type="curve" smooth="yes"/>
      <point x="438.0" y="584.0"/>
      <point x="444.0" y="567.0"/>
      <point x="444.0" y="541.0" type="curve" smooth="yes"/>
      <point x="444.0" y="515.0"/>
      <point x="444.0" y="479.0"/>
      <point x="444.0" y="439.0" type="curve" smooth="yes"/>
      <point x="444.0" y="364.0"/>
      <point x="401.0" y="309.0"/>
      <point x="336.0" y="309.0" type="curve" smooth="yes"/>
      <point x="260.0" y="309.0"/>
      <point x="199.0" y="309.0"/>
      <point x="154.0" y="309.0" type="curve"/>
      <point x="137.0" y="309.0"/>
      <point x="134.0" y="287.0"/>
      <point x="134.0" y="264.0" type="curve" smooth="yes"/>
      <point x="134.0" y="226.0"/>
      <point x="134.0" y="157.0"/>
      <point x="134.0" y="136.0" type="curve" smooth="yes"/>
      <point x="134.0" y="111.0"/>
      <point x="129.0" y="95.0"/>
      <point x="129.0" y="155.0" type="curve" smooth="yes"/>
      <point x="129.0" y="212.0"/>
      <point x="129.0" y="445.0"/>
      <point x="129.0" y="521.0" type="curve" smooth="yes"/>
      <point x="129.0" y="557.0"/>
      <point x="130.0" y="587.0"/>
      <point x="112.0" y="620.0" type="curve" smooth="yes"/>
      <point x="81.0" y="677.0"/>
      <point x="159.0" y="724.0"/>
    </contour>
  </outline>
</glyph>
<glyph name="J" format="2">
  <advance width="316"/>
  <unicode hex="004A"/>
  <anchor x="207.0" y="-8" name="below"/>
  <anchor x="235.0" y="679" name="above"/>
  <outline>
    <contour>
      <point x="136.0" y="112.0" type="curve" smooth="yes"/>
      <point x="175.0" y="92.0"/>
      <point x="198.0" y="85.0"/>
      <point x="217.0" y="85.0" type="curve" smooth="yes"/>
      <point x="259.0" y="85.0"/>
      <point x="274.0" y="126.0"/>
      <point x="274.0" y="216.0" type="curve" smooth="yes"/>
      <point x="274.0" y="310.0"/>
      <point x="274.0" y="386.0"/>
      <point x="274.0" y="467.0" type="curve" smooth="yes"/>
      <point x="274.0" y="518.0"/>
      <point x="272.0" y="577.0"/>
      <point x="254.0" y="629.0" type="curve" smooth="yes"/>
      <point x="235.0" y="686.0"/>
      <point x="319.0" y="718.0"/>
      <point x="340.0" y="655.0" type="curve" smooth="yes"/>
      <point x="359.0" y="599.0"/>
      <point x="364.0" y="541.0"/>
      <point x="364.0" y="455.0" type="curve" smooth="yes"/>
      <point x="364.0" y="359.0"/>
      <point x="364.0" y="295.0"/>
      <point x="364.0" y="192.0" type="curve" smooth="yes"/>
      <point x="364.0" y="78.0"/>
      <point x="302.0" y="-5.0"/>
      <point x="217.0" y="-5.0" type="curve" smooth="yes"/>
      <point x="186.0" y="-5.0"/>
      <point x="148.0" y="4.0"/>
      <point x="98.0" y="30.0" type="curve" smooth="yes"/>
      <point x="38.0" y="61.0"/>
      <point x="84.0" y="139.0"/>
    </contour>
  </outline>
</glyph>
<glyph name="L" format="2">
  <advance width="352"/>
  <unicode hex="004C"/>
  <anchor x="190.0" y="0" name="below"/>
  <anchor x="138.0" y="680" name="above"/>
  <anchor x="136.0" y="523" name="right"/>
  <outline>
    <contour>
      <point x="382.0" y="0.0" type="curve" smooth="yes"/>
      <point x="338.0" y="0.0"/>
      <point x="228.0" y="-12.0"/>
      <point x="165.0" y="2.0" type="curve" smooth="yes"/>
      <point x="75.0" y="23.0"/>
      <point x="128.0" y="84.0"/>
      <point x="128.0" y="224.0" type="curve" smooth="yes"/>
      <point x="128.0" y="301.0"/>
      <point x="128.0" y="392.0"/>
      <point x="128.0" y="519.0" type="curve" smooth="yes"/>
      <point x="128.0" y="555.0"/>
      <point x="126.0" y="591.0"/>
      <point x="114.0" y="625.0" type="curve" smooth="yes"/>
      <point x="92.0" y="688.0"/>
      <point x="176.0" y="720.0"/>
      <point x="199.0" y="654.0" type="curve" smooth="yes"/>
      <point x="214.0" y="611.0"/>
      <point x="218.0" y="566.0"/>
      <point x="218.0" y="521.0" type="curve" smooth="yes"/>
      <point x="218.0" y="433.0"/>
      <point x="217.0" y="309.0"/>
      <point x="217.0" y="215.0" type="curve" smooth="yes"/>
      <point x="217.0" y="155.0"/>
      <point x="200" y="101"/>
      <point x="222.0" y="91.0" type="curve" smooth="yes"/>
      <point x="245.0" y="81.0"/>
      <point x="320.0" y="90.0"/>
      <point x="381.0" y="90.0" type="curve" smooth="yes"/>
      <point x="440.0" y="90.0"/>
      <point x="440.0" y="0.0"/>
    </contour>
  </outline>
</glyph>
<glyph name="M" format="2">
  <advance width="572"/>
  <unicode hex="004D"/>
  <anchor x="284.0" y="0" name="below"/>
  <anchor x="286.0" y="680" name="above"/>
  <outline>
    <contour>
      <point x="505.0" y="55.0" type="curve" smooth="yes"/>
      <point x="517.0" y="88.0"/>
      <point x="518.0" y="124.0"/>
      <point x="516.0" y="157.0" type="curve" smooth="yes"/>
      <point x="513" y="211"/>
      <point x="489.0" y="277.0"/>
      <point x="471.0" y="333.0" type="curve" smooth="yes"/>
      <point x="452.0" y="391.0"/>
      <point x="432" y="403"/>
      <point x="432.0" y="617.0" type="curve" smooth="yes"/>
      <point x="432" y="723"/>
      <point x="581" y="717"/>
      <point x="564.0" y="616.0" type="curve" smooth="yes"/>
      <point x="531.0" y="420.0"/>
      <point x="514.0" y="399.0"/>
      <point x="498.0" y="337.0" type="curve" smooth="yes"/>
      <point x="480.0" y="268.0"/>
      <point x="458" y="213"/>
      <point x="414.0" y="86.0" type="curve" smooth="yes"/>
      <point x="379.0" y="-16.0"/>
      <point x="276.0" y="-17.0"/>
      <point x="247.0" y="77.0" type="curve" smooth="yes"/>
      <point x="205" y="212"/>
      <point x="182.0" y="267.0"/>
      <point x="162.0" y="335.0" type="curve" smooth="yes"/>
      <point x="144.0" y="397.0"/>
      <point x="117.0" y="421.0"/>
      <point x="86.0" y="611.0" type="curve" smooth="yes"/>
      <point x="69" y="717"/>
      <point x="225.0" y="737.0"/>
      <point x="225.0" y="607.0" type="curve" smooth="yes"/>
      <point x="225.0" y="459.0"/>
      <point x="219.0" y="368.0"/>
      <point x="219.0" y="315.0" type="curve" smooth="yes"/>
      <point x="219.0" y="229.0"/>
      <point x="219.0" y="220.0"/>
      <point x="219.0" y="149.0" type="curve" smooth="yes"/>
      <point x="219.0" y="112.0"/>
      <point x="211.0" y="65.0"/>
      <point x="196.0" y="25.0" type="curve" smooth="yes"/>
      <point x="171.0" y="-41.0"/>
      <point x="88.0" y="-8.0"/>
      <point x="112.0" y="56.0" type="curve" smooth="yes"/>
      <point x="124.0" y="87.0"/>
      <point x="129.0" y="118.0"/>
      <point x="129.0" y="155.0" type="curve" smooth="yes"/>
      <point x="129.0" y="215.0"/>
      <point x="129.0" y="290.0"/>
      <point x="129.0" y="339.0" type="curve" smooth="yes"/>
      <point x="129.0" y="405.0"/>
      <point x="104" y="499"/>
      <point x="86.0" y="611.0" type="curve" smooth="yes"/>
      <point x="69.0" y="717.0"/>
      <point x="225.0" y="737.0"/>
      <point x="225.0" y="607.0" type="curve" smooth="yes"/>
      <point x="225" y="510"/>
      <point x="231.0" y="421.0"/>
      <point x="249.0" y="361.0" type="curve" smooth="yes"/>
      <point x="269.0" y="293.0"/>
      <point x="290.0" y="223.0"/>
      <point x="309.0" y="168.0" type="curve" smooth="yes"/>
      <point x="330.0" y="107.0"/>
      <point x="324.0" y="104.0"/>
      <point x="349.0" y="172.0" type="curve" smooth="yes"/>
      <point x="366.0" y="219.0"/>
      <point x="394.0" y="293.0"/>
      <point x="411.0" y="360.0" type="curve" smooth="yes"/>
      <point x="427.0" y="421.0"/>
      <point x="432.0" y="533.0"/>
      <point x="432.0" y="617.0" type="curve" smooth="yes"/>
      <point x="432.0" y="723.0"/>
      <point x="581.0" y="717.0"/>
      <point x="564.0" y="616.0" type="curve" smooth="yes"/>
      <point x="546" y="508"/>
      <point x="533.0" y="434.0"/>
      <point x="556.0" y="363.0" type="curve" smooth="yes"/>
      <point x="591.0" y="255.0"/>
      <point x="603" y="228"/>
      <point x="606.0" y="157.0" type="curve" smooth="yes"/>
      <point x="608.0" y="113.0"/>
      <point x="605.0" y="68.0"/>
      <point x="590.0" y="26.0" type="curve" smooth="yes"/>
      <point x="566.0" y="-40.0"/>
      <point x="482.0" y="-8.0"/>
    </contour>
  </outline>
</glyph>
<glyph name="N" format="2">
  <advance width="486"/>
  <unicode hex="004E"/>
  <outline>
    <contour>
      <point x="113.50933919089395" y="54.684429803633236" type="curve" smooth="yes"/>
      <point x="125.83730524127381" y="90.44073842459676"/>
      <point x="128.01145369900775" y="128.26212699803915"/>
      <point x="128.00704126647582" y="164.01539165708573" type="curve" smooth="yes"/>
      <point x="127.99095128156553" y="294.39007380750195"/>
      <point x="127.97561708687228" y="418.64070364278416"/>
      <point x="127.9595271019618" y="549.0153857932004" type="curve" smooth="yes"/>
      <point x="127.95859631858924" y="556.5573808303434"/>
      <point x="169.49701946480647" y="592.7574369539883"/>
      <point x="172.6791215558469" y="586.5634831729283" type="curve" smooth="yes"/>
      <point x="233.82118935516573" y="467.55060074728357"/>
      <point x="335.279429657106" y="254.00115820889155"/>
      <point x="392.7747662276604" y="140.3076750412078" type="curve" smooth="yes"/>
      <point x="414.04498032849654" y="98.24713808132957"/>
      <point x="437.72936058613783" y="86.64001183149485"/>
      <point x="437.72264993471305" y="141.01539200739577" type="curve" smooth="yes"/>
      <point x="437.7103192920716" y="240.92869982360264"/>
      <point x="437.68686426864264" y="430.9811604934527"/>
      <point x="437.67636990434215" y="516.0153862958192" type="curve" smooth="yes"/>
      <point x="437.6719574718102" y="551.7686509548657"/>
      <point x="435.48885911992056" y="589.5872405169257"/>
      <point x="423.1520682044768" y="625.3374612140553" type="curve" smooth="yes"/>
      <point x="401.13313619451816" y="689.1451146197466"/>
      <point x="486.21000740210644" y="718.5036906330248"/>
      <point x="508.2289394120651" y="654.6960372273336" type="curve" smooth="yes"/>
      <point x="524.1606422512817" y="608.5282861090037"/>
      <point x="527.6706710139351" y="562.1981755867994"/>
      <point x="527.6763692189529" y="516.0264935031927" type="curve" smooth="yes"/>
      <point x="527.6920080827911" y="389.3071762728814"/>
      <point x="527.7143748467024" y="208.07271571278883"/>
      <point x="527.7226492493238" y="141.0264992147693" type="curve" smooth="yes"/>
      <point x="527.7426765684372" y="-21.251798639708113"/>
      <point x="375.9394120458665" y="-25.833457247903823"/>
      <point x="312.46042342789315" y="99.69232891881865" type="curve" smooth="yes"/>
      <point x="256.552943828293" y="210.24592282646935"/>
      <point x="155.49309463120167" y="423.0650184735434"/>
      <point x="92.62556543609857" y="545.4365072011612" type="curve" smooth="yes"/>
      <point x="16.804841403249686" y="693.0213573630201"/>
      <point x="217.9373484137296" y="728.7314515493212"/>
      <point x="217.9595264165726" y="549.0264930005741" type="curve" smooth="yes"/>
      <point x="217.97032350292005" y="461.539356838524"/>
      <point x="217.99624349473928" y="251.51363502650918"/>
      <point x="218.00704058108664" y="164.02649886445926" type="curve" smooth="yes"/>
      <point x="218.01273878610434" y="117.85481678085284"/>
      <point x="214.5145306326001" y="71.52469996368383"/>
      <point x="198.59422420341906" y="25.349086914800697" type="curve" smooth="yes"/>
      <point x="176.59271703679465" y="-38.46457684459314"/>
      <point x="91.50783202426953" y="-9.129233955760597"/>
    </contour>
  </outline>
</glyph>
<glyph name="P" format="2">
  <advance width="393"/>
  <unicode hex="0050"/>
  <outline>
    <contour>
      <point x="228.66351345383984" y="343.01710332474653" type="curve" smooth="yes"/>
      <point x="248.32083520261844" y="343.0188157792451"/>
      <point x="280.2353899527907" y="343.0203569581293"/>
      <point x="302.2053378721332" y="343.020943203815" type="curve" smooth="yes"/>
      <point x="353.75929423638496" y="343.02231886863774"/>
      <point x="369.6361036647047" y="395.2868997829908"/>
      <point x="362.1292484006323" y="460.90252185381814" type="curve" smooth="yes"/>
      <point x="353.6443781567822" y="535.0667383806812"/>
      <point x="315.70234761246684" y="590.0120230760625"/>
      <point x="248.4263420356782" y="590.0097680051565" type="curve" smooth="yes"/>
      <point x="228.19086369906523" y="590.0090897181793"/>
      <point x="198.5943852554077" y="590.0087207823303"/>
      <point x="181.24968950148252" y="590.0087207823303" type="curve" smooth="yes"/>
      <point x="177.72991219714353" y="590.0087207823303"/>
      <point x="218.4813989428714" y="554.9287897594862"/>
      <point x="218.48200395206368" y="550.0264929853431" type="curve" smooth="yes"/>
      <point x="218.50065028971684" y="398.9380762876643"/>
      <point x="218.5166121190988" y="269.60181874608315"/>
      <point x="218.52791374219157" y="178.02649865122706" type="curve" smooth="yes"/>
      <point x="218.5342430790072" y="126.74085232142626"/>
      <point x="218.1785277226389" y="78.08890156577431"/>
      <point x="202.41771432148187" y="26.799363482075407" type="curve" smooth="yes"/>
      <point x="182.59057480822366" y="-37.72299340855433"/>
      <point x="96.56076562071733" y="-11.286807390876717"/>
      <point x="116.38790513397555" y="53.23554949975302" type="curve" smooth="yes"/>
      <point x="128.8513759029156" y="93.79472892710997"/>
      <point x="128.53291959466077" y="137.45928957091675"/>
      <point x="128.52791442758075" y="178.01539144385353" type="curve" smooth="yes"/>
      <point x="128.51107257421657" y="314.48234846111154"/>
      <point x="128.49451714873402" y="448.628424244379"/>
      <point x="128.48200463745286" y="550.0153857779696" type="curve" smooth="yes"/>
      <point x="128.46683027143513" y="672.9709483479477"/>
      <point x="92.96939589324528" y="680.0087207823303"/>
      <point x="181.24968950148252" y="680.0087207823303" type="curve" smooth="yes"/>
      <point x="207.09702312233745" y="680.0087207823303"/>
      <point x="218.26810276948666" y="680.0087571608615"/>
      <point x="248.42332526349264" y="680.0097679545959" type="curve" smooth="yes"/>
      <point x="360.42357555295206" y="680.0135221683566"/>
      <point x="437.42046409409767" y="594.6000356365525"/>
      <point x="451.5459696564058" y="471.13237815130833" type="curve" smooth="yes"/>
      <point x="466.4746527090428" y="340.64433878745785"/>
      <point x="404.73171885981947" y="253.0236789838369"/>
      <point x="302.207739430105" y="253.02094323585655" type="curve" smooth="yes"/>
      <point x="269.46778356345106" y="253.02006960347674"/>
      <point x="257.9649984483015" y="253.01965559240998"/>
      <point x="228.67135383547" y="253.0171036662553" type="curve" smooth="yes"/>
      <point x="161.1713540916016" y="253.0112233800327"/>
      <point x="161.16351370997143" y="343.0112230385239"/>
    </contour>
  </outline>
</glyph>
<glyph name="Q" format="2">
  <advance width="518"/>
  <unicode hex="0051"/>
  <outline>
    <contour>
      <point x="549.7630096495177" y="-47.23308584125734" type="curve" smooth="yes"/>
      <point x="527.0345561319505" y="3.980394243224532"/>
      <point x="499.2203973275582" y="70.42970964698071"/>
      <point x="476.7707860467776" y="122.08423698038257" type="curve" smooth="yes"/>
      <point x="473.0344659082678" y="130.6811720589968"/>
      <point x="465.0216713419441" y="166.5952563426815"/>
      <point x="468.7724260373574" y="158.0046090947625" type="curve" smooth="yes"/>
      <point x="477.5052459082492" y="138.0031477669417"/>
      <point x="499.22011882806646" y="148.67199448598518"/>
      <point x="519.0593774460469" y="172.09345422976384" type="curve" smooth="yes"/>
      <point x="559.4984705192103" y="219.83428007038322"/>
      <point x="581.4635981474866" y="278.4303537264982"/>
      <point x="587.0178028147659" y="344.7717851271087" type="curve" smooth="yes"/>
      <point x="598.8033403157832" y="485.5425118972518"/>
      <point x="543.320381474468" y="600.0209379347236"/>
      <point x="452.2182777137192" y="600.0209379347236" type="curve" smooth="yes"/>
      <point x="359.588564195201" y="600.0209379347236"/>
      <point x="300.6624551896055" y="484.07973994264603"/>
      <point x="300.6801098791184" y="341.02649616859514" type="curve" smooth="yes"/>
      <point x="300.6992587234986" y="185.8663444650417"/>
      <point x="369.4146380284145" y="67.1905997420071"/>
      <point x="463.9363879534226" y="81.51307528387355" type="curve" smooth="yes"/>
      <point x="530.6745800865932" y="91.62562742445584"/>
      <point x="544.1579829407029" y="2.641371246894934"/>
      <point x="477.4197908075323" y="-7.471180893687354" type="curve" smooth="yes"/>
      <point x="335.6107061783199" y="-28.95890353771134"/>
      <point x="210.70883919146814" y="108.23172698429521"/>
      <point x="210.68011056450757" y="341.01538896122156" type="curve" smooth="yes"/>
      <point x="210.65403064487268" y="552.3369813585277"/>
      <point x="315.3835017406752" y="690.0209379347236"/>
      <point x="452.2182777137192" y="690.0209379347236" type="curve" smooth="yes"/>
      <point x="589.2390085932858" y="690.0209379347236"/>
      <point x="694.4298913237375" y="548.9871851150676"/>
      <point x="676.7040332421409" y="337.26311868573544" type="curve" smooth="yes"/>
      <point x="669.5349345037885" y="251.63280784096253"/>
      <point x="639.930451440533" y="175.54415492204612"/>
      <point x="587.7336260626619" y="113.92260605867938" type="curve" smooth="yes"/>
      <point x="514.3901350960492" y="27.336123457669352"/>
      <point x="418.5755504900358" y="48.04946572482673"/>
      <point x="386.29130501257043" y="121.99260172924006" type="curve" smooth="yes"/>
      <point x="311.5028755348995" y="293.2863993892764"/>
      <point x="484.8116675856072" y="329.3768285619743"/>
      <point x="559.3122782298243" y="157.9576542722442" type="curve" smooth="yes"/>
      <point x="581.9437833214648" y="105.8846057133602"/>
      <point x="609.4805709619344" y="40.07552877276956"/>
      <point x="632.0257652855539" y="-10.725017758081414" type="curve" smooth="yes"/>
      <point x="659.4068163479359" y="-72.4220844851085"/>
      <point x="577.1440607118997" y="-108.93015256828443"/>
    </contour>
  </outline>
</glyph>
<glyph name="R" format="2">
  <advance width="421"/>
  <unicode hex="0052"/>
  <outline>
    <contour>
      <point x="199.43108447697728" y="61.093185737862015" type="curve" smooth="yes"/>
      <point x="215.76928468595165" y="91.91199606736149"/>
      <point x="215.39063397561685" y="138.67467860642668"/>
      <point x="215.38787683189327" y="161.0153917027783" type="curve" smooth="yes"/>
      <point x="215.3806115027622" y="219.88524033518564"/>
      <point x="215.35608364334288" y="418.63072663764103"/>
      <point x="215.34418848322315" y="515.0153863110501" type="curve" smooth="yes"/>
      <point x="215.32691483192477" y="654.9811358213491"/>
      <point x="203.29742620445109" y="680.0139567700598"/>
      <point x="282.9567959595735" y="680.0139567700598" type="curve" smooth="yes"/>
      <point x="304.49624064361916" y="680.0139567700598"/>
      <point x="323.3566771255427" y="680.0139567700598"/>
      <point x="341.646658798057" y="680.0139567700598" type="curve" smooth="yes"/>
      <point x="439.24840598620983" y="680.0139567700598"/>
      <point x="535.9604522787192" y="597.0115011536546"/>
      <point x="538.68265892063" y="477.0417627342463" type="curve" smooth="yes"/>
      <point x="541.5339507095883" y="351.38314269699487"/>
      <point x="467.3103626651818" y="273.02094291521837"/>
      <point x="378.4553330413035" y="273.02094291521837" type="curve" smooth="yes"/>
      <point x="352.29238213740126" y="273.02094291521837" type="line" smooth="yes"/>
      <point x="347.38602589498925" y="273.02094291521837"/>
      <point x="262.5865434041426" y="362.99999896430074"/>
      <point x="267.4395696873978" y="362.99999896430074" type="curve" smooth="yes"/>
      <point x="330.1057484747646" y="362.99999896430074"/>
      <point x="365.9048901548693" y="324.44713234925246"/>
      <point x="424.9696668075462" y="265.9904924932773" type="curve" smooth="yes"/>
      <point x="498.09153664542663" y="193.6214926772975"/>
      <point x="562.8030766423728" y="128.54979330822718"/>
      <point x="570.3877073264015" y="44.03997172639012" type="curve" smooth="yes"/>
      <point x="576.4214801796153" y="-23.189810254186156"/>
      <point x="486.78177087218035" y="-31.23484072513797"/>
      <point x="480.7479980189665" y="35.994941255438306" type="curve" smooth="yes"/>
      <point x="475.68992985223866" y="92.35318150819683"/>
      <point x="410.4240177927695" y="153.76070186799006"/>
      <point x="361.66021932629747" y="202.02242343050975" type="curve" smooth="yes"/>
      <point x="334.3725335598053" y="229.02915247876987"/>
      <point x="296.3910885425693" y="272.99999896430074"/>
      <point x="267.4395696873978" y="272.99999896430074" type="curve" smooth="yes"/>
      <point x="118.22164981389935" y="272.99999896430074"/>
      <point x="201.43470490265557" y="363.02094291521837"/>
      <point x="352.29238213740126" y="363.02094291521837" type="curve" smooth="yes"/>
      <point x="378.4553330413035" y="363.02094291521837" type="line" smooth="yes"/>
      <point x="423.0014775929202" y="363.02094291521837"/>
      <point x="450.13527182442596" y="412.00304230418664"/>
      <point x="448.7058191898657" y="475.0001182832352" type="curve" smooth="yes"/>
      <point x="447.2092150330301" y="540.9566134473696"/>
      <point x="395.3057669301544" y="590.0139567700598"/>
      <point x="341.646658798057" y="590.0139567700598" type="curve" smooth="yes"/>
      <point x="314.3906454948651" y="590.0139567700598"/>
      <point x="297.4107090878445" y="590.0139567700598"/>
      <point x="282.9567959595735" y="590.0139567700598" type="curve" smooth="yes"/>
      <point x="279.4370186552346" y="590.0139567700598"/>
      <point x="305.34342455546835" y="521.2109294488808"/>
      <point x="305.34418779783397" y="515.0264935184235" type="curve" smooth="yes"/>
      <point x="305.3619141492473" y="371.3925843478128"/>
      <point x="305.37704924076996" y="248.7552569926751"/>
      <point x="305.3878761465041" y="161.02649891015193" type="curve" smooth="yes"/>
      <point x="305.3922446398697" y="125.62926658306937"/>
      <point x="304.8348162770585" y="67.76839632893689"/>
      <point x="278.94812832268434" y="18.93823658548014" type="curve" smooth="yes"/>
      <point x="247.33191645839796" y="-40.69954629880016"/>
      <point x="167.8148726126909" y="1.4554028535817167"/>
    </contour>
  </outline>
</glyph>
<glyph name="S" format="2">
  <advance width="369"/>
  <unicode hex="0053"/>
  <outline>
    <contour>
      <point x="213.22091324503955" y="116.33926022055019" type="curve" smooth="yes"/>
      <point x="270.4105684710209" y="95.69638637110329"/>
      <point x="312.5835082546981" y="83.02049668675654"/>
      <point x="343.6105557762148" y="83.02094717511905" type="curve" smooth="yes"/>
      <point x="393.68081265606975" y="83.02167415592555"/>
      <point x="419.51679897631993" y="116.37065222799271"/>
      <point x="419.5085741213909" y="183.01539136769918" type="curve" smooth="yes"/>
      <point x="419.4989633239339" y="260.8902104339699"/>
      <point x="372.89455496232335" y="282.93296258004284"/>
      <point x="326.6233726065581" y="308.70911818657504" type="curve" smooth="yes"/>
      <point x="256.21427499745283" y="347.9317134108286"/>
      <point x="192.5016488137258" y="390.84163564977433"/>
      <point x="192.48768165451168" y="504.0153864785896" type="curve" smooth="yes"/>
      <point x="192.47312390794232" y="621.9745761472923"/>
      <point x="266.9509933044323" y="687.0919203222036"/>
      <point x="352.24019622230657" y="688.0182838553935" type="curve" smooth="yes"/>
      <point x="396.88797834679656" y="688.5032230479637"/>
      <point x="443.7121045956405" y="673.6540046917437"/>
      <point x="466.6135506954735" y="642.882470051324" type="curve" smooth="yes"/>
      <point x="506.91370218942535" y="588.7331599027679"/>
      <point x="434.7146219913504" y="534.9996245774988"/>
      <point x="394.41447049739855" y="589.148934726055" type="curve" smooth="yes"/>
      <point x="390.375793598969" y="594.5755041024927"/>
      <point x="361.091317927112" y="598.1091112472442"/>
      <point x="353.2176681389605" y="598.0235920749772" type="curve" smooth="yes"/>
      <point x="310.1628621656771" y="597.5559548967916"/>
      <point x="282.4803320793157" y="563.5734216698261"/>
      <point x="282.4876809691225" y="504.0264936859632" type="curve" smooth="yes"/>
      <point x="282.49656632016104" y="432.0298557839405"/>
      <point x="325.63055747114674" y="412.2846214247396"/>
      <point x="370.4220242949205" y="387.3327667300095" type="curve" smooth="yes"/>
      <point x="441.38593766333935" y="347.8011018728455"/>
      <point x="509.4938338126894" y="302.459407622221"/>
      <point x="509.5085734360017" y="183.0264985750727" type="curve" smooth="yes"/>
      <point x="509.5239721622013" y="58.25297983170296"/>
      <point x="437.3543276412644" y="-6.977691748422807"/>
      <point x="343.6118625055319" y="-6.97905281539461" type="curve" smooth="yes"/>
      <point x="302.85763507135" y="-6.979644534770046"/>
      <point x="257.7836082308547" y="4.570631542719322"/>
      <point x="182.66462649900367" y="31.68517975012022" type="curve" smooth="yes"/>
      <point x="119.17406614618119" y="54.60239480964712"/>
      <point x="149.73035289221707" y="139.2564752800771"/>
    </contour>
  </outline>
</glyph>
<glyph name="T" format="2">
  <advance width="352"/>
  <unicode hex="0054"/>
  <outline>
    <contour>
      <point x="390.0" y="590.0" type="curve" smooth="yes"/>
      <point x="299.0" y="590.0"/>
      <point x="164" y="590"/>
      <point x="62.0" y="590.0" type="curve" smooth="yes"/>
      <point x="7.0" y="590.0"/>
      <point x="6.0" y="680.0"/>
      <point x="63.0" y="680.0" type="curve" smooth="yes"/>
      <point x="129.0" y="680.0"/>
      <point x="251.0" y="649.0"/>
      <point x="285.0" y="521.0" type="curve" smooth="yes"/>
      <point x="314.0" y="415.0"/>
      <point x="307.0" y="281.0"/>
      <point x="307.0" y="202.0" type="curve" smooth="yes"/>
      <point x="307.0" y="109.0"/>
      <point x="301.0" y="60.0"/>
      <point x="289.0" y="25.0" type="curve" smooth="yes"/>
      <point x="267.0" y="-38.0"/>
      <point x="184.0" y="-5.0"/>
      <point x="203.0" y="51.0" type="curve" smooth="yes"/>
      <point x="215.0" y="86.0"/>
      <point x="217.0" y="130.0"/>
      <point x="217.0" y="203.0" type="curve" smooth="yes"/>
      <point x="217.0" y="269.0"/>
      <point x="220.0" y="416.0"/>
      <point x="200.0" y="491.0" type="curve" smooth="yes"/>
      <point x="184.0" y="551.0"/>
      <point x="167" y="590"/>
      <point x="62.0" y="590.0" type="curve" smooth="yes"/>
      <point x="7.0" y="590.0"/>
      <point x="6.0" y="680.0"/>
      <point x="63.0" y="680.0" type="curve" smooth="yes"/>
      <point x="145" y="680"/>
      <point x="326.0" y="680.0"/>
      <point x="389.0" y="680.0" type="curve" smooth="yes"/>
      <point x="446.0" y="680.0"/>
      <point x="445.0" y="590.0"/>
    </contour>
  </outline>
</glyph>
<glyph name="U" format="2">
  <advance width="472"/>
  <unicode hex="0055"/>
  <outline>
    <contour>
      <point x="281.214815435349" y="663.3461748709992" type="curve" smooth="yes"/>
      <point x="308.3937360206419" y="618.5190800098487"/>
      <point x="308.95954692755316" y="548.8602956682743"/>
      <point x="308.9650800202171" y="504.0264936859632" type="curve" smooth="yes"/>
      <point x="308.97406077428195" y="431.256819682015"/>
      <point x="308.9808223275203" y="376.4689899102344"/>
      <point x="308.9942055859971" y="268.0264972804487" type="curve" smooth="yes"/>
      <point x="309.0063080183992" y="169.96234206482683"/>
      <point x="354.4751539651088" y="80.02107051349205"/>
      <point x="412.5168341772272" y="80.01920187299032" type="curve" smooth="yes"/>
      <point x="474.12551015990203" y="80.01721839375993"/>
      <point x="528.7193834415114" y="167.48328587458187"/>
      <point x="528.7069764310942" y="268.01539007307514" type="curve" smooth="yes"/>
      <point x="528.6979956770292" y="340.7850640770233"/>
      <point x="528.6868316193791" y="431.24571247464144"/>
      <point x="528.6778508653142" y="504.0153864785896" type="curve" smooth="yes"/>
      <point x="528.6748372270629" y="528.4344354289975"/>
      <point x="528.7713330744159" y="592.2698333061074"/>
      <point x="513.9681407764848" y="616.685229175298" type="curve" smooth="yes"/>
      <point x="478.9724315047089" y="674.404812789227"/>
      <point x="555.9318763232808" y="721.0657584849282"/>
      <point x="590.9275855950567" y="663.3461748709992" type="curve" smooth="yes"/>
      <point x="618.1065061803497" y="618.5190800098487"/>
      <point x="618.6723170872608" y="548.8602956682743"/>
      <point x="618.6778501799249" y="504.0264936859632" type="curve" smooth="yes"/>
      <point x="618.6912334384023" y="395.5840010561775"/>
      <point x="618.6935924872274" y="376.4689899102344"/>
      <point x="618.7069757457049" y="268.0264972804487" type="curve" smooth="yes"/>
      <point x="618.7277026743657" y="100.07937047225174"/>
      <point x="515.4362836922086" y="-9.984111645128012"/>
      <point x="412.51393664497743" y="-9.980798080366931" type="curve" smooth="yes"/>
      <point x="312.2090905986745" y="-9.9775687855368"/>
      <point x="219.01512111421033" y="98.54562359463995"/>
      <point x="218.9942062713863" y="268.01539007307514" type="curve" smooth="yes"/>
      <point x="218.98522551732165" y="340.7850640770233"/>
      <point x="218.97846396408323" y="395.5728938488039"/>
      <point x="218.96508070560628" y="504.0153864785896" type="curve" smooth="yes"/>
      <point x="218.96206706735492" y="528.4344354289975"/>
      <point x="219.0585629147082" y="592.2698333061074"/>
      <point x="204.255370616777" y="616.685229175298" type="curve" smooth="yes"/>
      <point x="169.25966134500106" y="674.404812789227"/>
      <point x="246.2191061635731" y="721.0657584849282"/>
    </contour>
  </outline>
</glyph>
<glyph name="V" format="2">
  <advance width="438"/>
  <unicode hex="0056"/>
  <outline>
    <contour>
      <point x="491.5836935397947" y="659.210616878994" type="curve" smooth="yes"/>
      <point x="510.7250449521356" y="618.6233910253761"/>
      <point x="502.34004594441217" y="571.5883703732416"/>
      <point x="483.4545024369463" y="488.99122084704305" type="curve" smooth="yes"/>
      <point x="465.47654037721315" y="410.36343765207755"/>
      <point x="409.9857284080933" y="250.96477567026065"/>
      <point x="336.18365368881314" y="134.86597647705605" type="curve" smooth="yes"/>
      <point x="191.11578544922503" y="-93.34177199338542"/>
      <point x="277.29865293193234" y="-114.01111215089927"/>
      <point x="214.9675790202055" y="134.05475586351423" type="curve" smooth="yes"/>
      <point x="185.05791499329933" y="253.08955348887753"/>
      <point x="149.0922984067916" y="399.5148394402739"/>
      <point x="125.09000886644924" y="496.17618539989286" type="curve" smooth="yes"/>
      <point x="114.95265727794569" y="537.0010428520817"/>
      <point x="102.9455794079671" y="586.467670200194"/>
      <point x="81.56246153801101" y="609.1409652141513" type="curve" smooth="yes"/>
      <point x="35.250356324514996" y="658.2473691824126"/>
      <point x="100.72556161553013" y="719.9968428004073"/>
      <point x="147.03766682902614" y="670.890438832146" type="curve" smooth="yes"/>
      <point x="181.56580404150293" y="634.2790033033345"/>
      <point x="196.06822229094473" y="583.7871514206801"/>
      <point x="212.43739112533478" y="517.8656946732748" type="curve" smooth="yes"/>
      <point x="235.45177076649344" y="425.1828316988489"/>
      <point x="271.0677376633339" y="280.1037252038071"/>
      <point x="302.25429470493094" y="155.98713523680385" type="curve" smooth="yes"/>
      <point x="305.4956964674276" y="143.08697017730356"/>
      <point x="252.6867638246448" y="171.2805053178426"/>
      <point x="260.23072567679196" y="183.14798892890747" type="curve" smooth="yes"/>
      <point x="327.1711873841872" y="288.4527144563186"/>
      <point x="379.41217259890146" y="437.7341979100535"/>
      <point x="395.718666493743" y="509.0517066673643" type="curve" smooth="yes"/>
      <point x="403.4932376785962" y="543.0542980359177"/>
      <point x="418.06196959316236" y="604.1123309626976"/>
      <point x="410.18209051683584" y="620.8207871673033" type="curve" smooth="yes"/>
      <point x="381.38971823306775" y="681.8719894345224"/>
      <point x="462.79132125602655" y="720.2618191462132"/>
    </contour>
  </outline>
</glyph>
<glyph name="W" format="2">
  <advance width="628"/>
  <unicode hex="0057"/>
  <outline>
    <contour>
      <point x="166.60944900733642" y="661.8773287729028" type="curve" smooth="yes"/>
      <point x="192.82722150128845" y="614.7021472626668"/>
      <point x="212.04386880914362" y="532.64026575661"/>
      <point x="222.2388126059443" y="484.3087632078226" type="curve" smooth="yes"/>
      <point x="247.10089853024195" y="366.4442616305364"/>
      <point x="267.63576141975744" y="271.38580218909135"/>
      <point x="292.9563411582694" y="153.46851433650818" type="curve" smooth="yes"/>
      <point x="338.9497853021727" y="-60.72177073818344"/>
      <point x="137.7986277779933" y="-67.98344080642465"/>
      <point x="180.01360039169145" y="152.46358496362436" type="curve" smooth="yes"/>
      <point x="202.97112987966307" y="272.3480425697709"/>
      <point x="226.9705730997161" y="427.18358402585676"/>
      <point x="256.91474500367974" y="545.0794829655908" type="curve" smooth="yes"/>
      <point x="304.8816809441043" y="733.9344311076842"/>
      <point x="406.62411580330803" y="726.9592866240802"/>
      <point x="454.4622304757676" y="538.0669251063911" type="curve" smooth="yes"/>
      <point x="484.59591403071835" y="419.0818295002237"/>
      <point x="509.9863208117594" y="264.0426587484742"/>
      <point x="531.5350248342526" y="145.03897358242745" type="curve" smooth="yes"/>
      <point x="570.4867191986485" y="-70.07350687050756"/>
      <point x="345.6408978756795" y="-49.60937461488938"/>
      <point x="431.3006152843734" y="165.6405785838996" type="curve" smooth="yes"/>
      <point x="479.82958924206514" y="287.5865724439988"/>
      <point x="549.0923664862412" y="391.3858192597088"/>
      <point x="581.067294364132" y="505.1927534915008" type="curve" smooth="yes"/>
      <point x="591.3296366280463" y="541.7190504562228"/>
      <point x="601.5699552232588" y="599.0572213338324"/>
      <point x="597.3593885693626" y="634.7447239070971" type="curve" smooth="yes"/>
      <point x="589.4503034014208" y="701.7797622960339"/>
      <point x="678.83035458667" y="712.325209186623"/>
      <point x="686.7394397546118" y="645.2901707976862" type="curve" smooth="yes"/>
      <point x="692.4210145602789" y="597.1348434595413"/>
      <point x="681.5600833470882" y="530.136290859831"/>
      <point x="667.7124780135315" y="480.8491270081311" type="curve" smooth="yes"/>
      <point x="633.4162554783921" y="358.7801122675419"/>
      <point x="560.166719807531" y="246.05515500881305"/>
      <point x="514.9223655438691" y="132.3629151512226" type="curve" smooth="yes"/>
      <point x="510.8371561857813" y="122.09740004404388"/>
      <point x="444.8328374044261" y="118.74395888602592"/>
      <point x="442.975186794028" y="129.00291776158457" type="curve" smooth="yes"/>
      <point x="421.8020426619487" y="245.93255657602032"/>
      <point x="396.82515519353865" y="399.06009045781957"/>
      <point x="367.21665416844445" y="515.9714636990556" type="curve" smooth="yes"/>
      <point x="355.454904665861" y="562.4136083014122"/>
      <point x="355.93852050479063" y="569.3569449799387"/>
      <point x="344.1450982764993" y="522.9239990417607" type="curve" smooth="yes"/>
      <point x="314.66390254023946" y="406.85092531336267"/>
      <point x="291.0100168053626" y="253.56730493526698"/>
      <point x="268.4074408307618" y="135.53641826532024" type="curve" smooth="yes"/>
      <point x="266.34166469128127" y="124.7489137933299"/>
      <point x="207.21284659390375" y="124.09204392063013"/>
      <point x="204.96217216247763" y="134.57337679427167" type="curve" smooth="yes"/>
      <point x="179.6011558869701" y="252.67897655842648"/>
      <point x="159.07843505164902" y="347.6803886500504"/>
      <point x="134.1766447972118" y="465.7331178401206" type="curve" smooth="yes"/>
      <point x="126.25435544447149" y="503.2905733470707"/>
      <point x="108.31521880032108" y="581.4986646528545"/>
      <point x="87.94190590902457" y="618.1575659318804" type="curve" smooth="yes"/>
      <point x="55.15208377825769" y="677.1582232556143"/>
      <point x="133.81962687656954" y="720.8779860966367"/>
    </contour>
  </outline>
</glyph>
<glyph name="X" format="2">
  <advance width="437"/>
  <unicode hex="0058"/>
  <outline>
    <contour>
      <point x="169.16438954642115" y="670.5119532813943" type="curve" smooth="yes"/>
      <point x="202.71332147416612" y="634.1091298821203"/>
      <point x="229.41491421679896" y="596.5227110569355"/>
      <point x="247.68675699250474" y="560.2780458632428" type="curve" smooth="yes"/>
      <point x="280.4189730568394" y="495.34927940752385"/>
      <point x="293.5877730856591" y="424.283711937027"/>
      <point x="322.71084370241147" y="366.1796600723368" type="curve" smooth="yes"/>
      <point x="353.3019143732626" y="305.1467703662258"/>
      <point x="404.63379458870986" y="249.87462354979456"/>
      <point x="438.66625210567094" y="182.25022916120093" type="curve" smooth="yes"/>
      <point x="458.8151731687838" y="142.21319734245824"/>
      <point x="479.59412943588455" y="100.43721924007288"/>
      <point x="500.0453934671878" y="60.553779865007826" type="curve" smooth="yes"/>
      <point x="530.8446425405989" y="0.490011613973266"/>
      <point x="450.7596182058861" y="-40.57565381724142"/>
      <point x="419.960369132475" y="19.48811443379314" type="curve" smooth="yes"/>
      <point x="399.39462692026717" y="59.59480571059355"/>
      <point x="378.5345245407164" y="101.53051795033463"/>
      <point x="358.27281769443795" y="141.79166142126752" type="curve" smooth="yes"/>
      <point x="328.093750820863" y="201.75915332282236"/>
      <point x="276.74885407636" y="257.0259262478637"/>
      <point x="242.25178637823035" y="325.85175292971246" type="curve" smooth="yes"/>
      <point x="209.24553709928284" y="391.70321636913724"/>
      <point x="196.20262778096992" y="462.4739232071089"/>
      <point x="167.3213504256408" y="519.7638332046872" type="curve" smooth="yes"/>
      <point x="152.49176397664212" y="549.1803185807288"/>
      <point x="130.2120708565289" y="579.9746028142118"/>
      <point x="102.98346603536851" y="609.5194507649029" type="curve" smooth="yes"/>
      <point x="57.2390891479999" y="659.1551433981923"/>
      <point x="123.42001265905253" y="720.1476459146837"/>
    </contour>
    <contour>
      <point x="494.29236553693045" y="619.4450136920436" type="curve" smooth="yes"/>
      <point x="477.3668530344555" y="586.5247160587986"/>
      <point x="460.2588975863184" y="552.6372689722999"/>
      <point x="443.4908769917578" y="519.6364742080327" type="curve" smooth="yes"/>
      <point x="415.2618901956512" y="464.07958874215313"/>
      <point x="422.6559804900194" y="396.19599003128576"/>
      <point x="386.1080757016104" y="325.3909752971658" type="curve" smooth="yes"/>
      <point x="350.2319045871347" y="255.88732415572252"/>
      <point x="278.3155340172574" y="197.2540636161171"/>
      <point x="249.71291398057988" y="141.4849487132925" type="curve" smooth="yes"/>
      <point x="228.63925619104123" y="100.39573236945643"/>
      <point x="207.40524114041887" y="58.3172218097194"/>
      <point x="187.50820872464357" y="19.495941456097206" type="curve" smooth="yes"/>
      <point x="156.72070018468864" y="-40.573845607802085"/>
      <point x="76.62765076615626" y="0.47616577880447153"/>
      <point x="107.41515930611119" y="60.54595284270376" type="curve" smooth="yes"/>
      <point x="127.87703579542836" y="100.46930558967759"/>
      <point x="149.1361246871821" y="142.59596749086057"/>
      <point x="169.63113466591264" y="182.55694186917594" type="curve" smooth="yes"/>
      <point x="204.7152286867116" y="250.96357273720332"/>
      <point x="276.88540511414226" y="310.0083831827442"/>
      <point x="306.13377305403657" y="366.67185363125975" type="curve" smooth="yes"/>
      <point x="334.8331053984372" y="422.27166602184974"/>
      <point x="327.3054650689291" y="489.655074212511"/>
      <point x="363.2543872037352" y="560.4054048598973" type="curve" smooth="yes"/>
      <point x="380.0994151676642" y="593.5577562362001"/>
      <point x="397.2483493109253" y="627.5253777686324"/>
      <point x="414.25159246656085" y="660.5968623297122" type="curve" smooth="yes"/>
      <point x="445.11547894481237" y="720.6274421324894"/>
      <point x="525.156252015182" y="679.4755934948208"/>
    </contour>
  </outline>
</glyph>
<glyph name="Y" format="2">
  <advance width="412"/>
  <unicode hex="0059"/>
  <outline>
    <contour>
      <point x="470.7383288306157" y="636.68248268028" type="curve" smooth="yes"/>
      <point x="467.54881323225584" y="593.763435425169"/>
      <point x="453.69635022820717" y="554.1106108025444"/>
      <point x="438.6479999966897" y="511.1457831497244" type="curve" smooth="yes"/>
      <point x="412.84451170061266" y="437.4737586137352"/>
      <point x="389.1903655562189" y="385.187562677556"/>
      <point x="361.92423948296977" y="313.10086585025806" type="curve" smooth="yes"/>
      <point x="348.1784733446316" y="276.75955085701867"/>
      <point x="335.85444937790226" y="236.7599448255832"/>
      <point x="335.8604637389968" y="188.0264984989184" type="curve" smooth="yes"/>
      <point x="335.8626837006757" y="170.0384891945717"/>
      <point x="335.86603118528694" y="142.9143343475828"/>
      <point x="335.8699665718996" y="111.0264996716954" type="curve" smooth="yes"/>
      <point x="335.8889399549997" y="-42.71191616683242"/>
      <point x="161.03643341601656" y="-45.21716384240611"/>
      <point x="161.0166611536281" y="114.9944484524808" type="curve" smooth="yes"/>
      <point x="161.0116988218334" y="155.20346257363724"/>
      <point x="161.00984942999614" y="170.18880123448847"/>
      <point x="161.00752856096824" y="188.99444732539635" type="curve" smooth="yes"/>
      <point x="160.9950686637649" y="289.95508504901744"/>
      <point x="178.11466162107033" y="314.9675563105515"/>
      <point x="160.42350961206594" y="404.27030875229013" type="curve" smooth="yes"/>
      <point x="146.48267906826987" y="474.6419011873786"/>
      <point x="122.32283888610083" y="527.2196085406165"/>
      <point x="85.41742200381015" y="623.9809854201595" type="curve" smooth="yes"/>
      <point x="61.36272910546211" y="687.0493748840278"/>
      <point x="145.4539150572864" y="719.122298748492"/>
      <point x="169.50860795563443" y="656.0539092846237" type="curve" smooth="yes"/>
      <point x="210.33626496107266" y="549.0089104647453"/>
      <point x="233.28539215288112" y="499.6102623564287"/>
      <point x="248.70782863770418" y="421.75970594542775" type="curve" smooth="yes"/>
      <point x="270.890004721274" y="309.78681811981687"/>
      <point x="250.9919049453365" y="315.59576428027447"/>
      <point x="251.00752787557906" y="189.00555453276988" type="curve" smooth="yes"/>
      <point x="251.0109864704663" y="160.98109014529726"/>
      <point x="251.01333052572056" y="141.98756961637443"/>
      <point x="251.0166604682389" y="115.00555565985435" type="curve" smooth="yes"/>
      <point x="251.01758194377774" y="107.53898057308301"/>
      <point x="245.87085150149264" y="103.85049717903615"/>
      <point x="245.8699672572888" y="111.01539246432188" type="curve" smooth="yes"/>
      <point x="245.86410268334947" y="158.53513642568853"/>
      <point x="245.86377264558269" y="161.20938187744065"/>
      <point x="245.860464424386" y="188.0153912915448" type="curve" smooth="yes"/>
      <point x="245.8529118555332" y="249.21269937357798"/>
      <point x="260.48331654385663" y="299.30520241108206"/>
      <point x="277.7446421548711" y="344.9410196450996" type="curve" smooth="yes"/>
      <point x="305.54961138509" y="418.45232014325234"/>
      <point x="328.4045531011598" y="468.65368662300676"/>
      <point x="353.7073214922025" y="540.8960963446699" type="curve" smooth="yes"/>
      <point x="365.22122616847713" y="573.7696620456495"/>
      <point x="378.5454387602814" y="610.5138741589446"/>
      <point x="380.985824450275" y="643.3524120245032" type="curve" smooth="yes"/>
      <point x="385.9882714584423" y="710.6667903097588"/>
      <point x="475.740775838783" y="703.9968609655356"/>
    </contour>
  </outline>
</glyph>
<glyph name="Z" format="2">
  <advance width="421"/>
  <unicode hex="005A"/>
  <outline>
    <contour>
      <point x="145.04243106328133" y="680.0174473489539" type="curve" smooth="yes"/>
      <point x="197.2978278283382" y="680.0205553089319"/>
      <point x="284.4931717133846" y="680.0209380870324"/>
      <point x="337.378151766089" y="680.0209380870324" type="curve" smooth="yes"/>
      <point x="511.61726119116247" y="680.0209380870324"/>
      <point x="417.23125407360965" y="682.6722638126079"/>
      <point x="356.78314457602215" y="499.8751445145869" type="curve" smooth="yes"/>
      <point x="317.4760801646539" y="381.0092576873629"/>
      <point x="258.9724919257972" y="267.19378341539"/>
      <point x="175.69433936133055" y="147.3278004708114" type="curve" smooth="yes"/>
      <point x="126.9792289410589" y="77.20995545426554"/>
      <point x="193.1331195445603" y="90.02094707324615"/>
      <point x="279.46820962324216" y="90.02094707324613" type="curve" smooth="yes"/>
      <point x="321.0954794326627" y="90.02094707324613"/>
      <point x="405.2233232583489" y="90.02030926225471"/>
      <point x="417.3646104622131" y="90.01745517142356" type="curve" smooth="yes"/>
      <point x="484.86460859720864" y="90.0015877331279"/>
      <point x="484.8434520128145" y="0.0015902198005080213"/>
      <point x="417.34345387781894" y="0.017457658096169837" type="curve" smooth="yes"/>
      <point x="399.2503200807689" y="0.021710868353877418"/>
      <point x="341.50181031329384" y="0.02094707324612544"/>
      <point x="279.46820962324216" y="0.020947073246134096" type="curve" smooth="yes"/>
      <point x="94.09955876308065" y="0.020947073246152546"/>
      <point x="-2.813422455525862" y="48.13031227383523"/>
      <point x="101.78198929281182" y="198.67918319171523" type="curve" smooth="yes"/>
      <point x="179.69582065285638" y="310.82405784800943"/>
      <point x="234.55886039217566" y="416.922629522436"/>
      <point x="271.33397959808" y="528.1318287604857" type="curve" smooth="yes"/>
      <point x="274.2757275223964" y="537.0277735755567"/>
      <point x="345.8576152719966" y="590.0209380870324"/>
      <point x="337.378151766089" y="590.0209380870324" type="curve" smooth="yes"/>
      <point x="271.451008512386" y="590.0209380870324"/>
      <point x="210.19008000533717" y="590.0213219337788"/>
      <point x="145.04778393420875" y="590.0174475081384" type="curve" smooth="yes"/>
      <point x="77.5477840535972" y="590.0134328549428"/>
      <point x="77.54243118266977" y="680.0134326957583"/>
    </contour>
  </outline>
</glyph>
<glyph name="bracketleft" format="2">
  <advance width="304"/>
  <unicode hex="005B"/>
  <outline>
    <contour>
      <point x="329" y="678" type="curve" smooth="yes"/>
      <point x="188" y="678"/>
      <point x="241" y="672"/>
      <point x="242" y="559" type="curve" smooth="yes"/>
      <point x="242" y="296"/>
      <point x="242" y="220"/>
      <point x="242" y="43" type="curve" smooth="yes"/>
      <point x="242" y="-68"/>
      <point x="193" y="-68"/>
      <point x="329" y="-68" type="curve" smooth="yes"/>
      <point x="397" y="-68"/>
      <point x="397" y="-158"/>
      <point x="329" y="-158" type="curve" smooth="yes"/>
      <point x="86" y="-158"/>
      <point x="152" y="-155"/>
      <point x="152" y="43" type="curve" smooth="yes"/>
      <point x="152" y="306"/>
      <point x="152" y="382"/>
      <point x="152" y="559" type="curve"/>
      <point x="151" y="756"/>
      <point x="82" y="768"/>
      <point x="329" y="768" type="curve" smooth="yes"/>
      <point x="397" y="768"/>
      <point x="397" y="678"/>
    </contour>
  </outline>
</glyph>
<glyph name="bracketright" format="2">
  <advance width="304"/>
  <unicode hex="005D"/>
  <outline>
    <contour>
      <point x="144.0" y="678.0" type="curve" smooth="yes"/>
      <point x="78.0" y="678.0"/>
      <point x="77.0" y="768.0"/>
      <point x="154.0" y="768.0" type="curve" smooth="yes"/>
      <point x="388.0" y="768.0"/>
      <point x="322.0" y="744.0"/>
      <point x="322.0" y="548.0" type="curve" smooth="yes"/>
      <point x="322.0" y="283.0"/>
      <point x="322.0" y="249.0"/>
      <point x="322.0" y="70.0" type="curve" smooth="yes"/>
      <point x="322.0" y="-125.0"/>
      <point x="393.0" y="-158.0"/>
      <point x="154.0" y="-158.0" type="curve" smooth="yes"/>
      <point x="78.0" y="-158.0"/>
      <point x="78.0" y="-68.0"/>
      <point x="143.0" y="-68.0" type="curve" smooth="yes"/>
      <point x="287.0" y="-68.0"/>
      <point x="233.0" y="-69.0"/>
      <point x="232.0" y="59.0" type="curve" smooth="yes"/>
      <point x="232.0" y="307.0"/>
      <point x="232.0" y="396.0"/>
      <point x="232.0" y="560.0" type="curve" smooth="yes"/>
      <point x="232.0" y="684.0"/>
      <point x="282.0" y="678.0"/>
    </contour>
  </outline>
</glyph>
<glyph name="asciicircum" format="2">
  <advance width="396"/>
  <unicode hex="005E"/>
  <outline>
    <contour>
      <point x="122.0" y="317.0" type="curve" smooth="yes"/>
      <point x="145.0" y="384.0"/>
      <point x="177.0" y="471.0"/>
      <point x="214.0" y="585.0" type="curve" smooth="yes"/>
      <point x="244.0" y="675.0"/>
      <point x="320.0" y="683.0"/>
      <point x="354.0" y="581.0" type="curve" smooth="yes"/>
      <point x="391.0" y="469.0"/>
      <point x="417.0" y="368.0"/>
      <point x="403.0" y="295.0" type="curve" smooth="yes"/>
      <point x="391.0" y="228.0"/>
      <point x="303.0" y="249.0"/>
      <point x="314.0" y="308.0" type="curve" smooth="yes"/>
      <point x="325.0" y="373.0"/>
      <point x="307.0" y="430.0"/>
      <point x="289.0" y="482.0" type="curve" smooth="yes"/>
      <point x="279.0" y="512.0"/>
      <point x="284.0" y="511.0"/>
      <point x="273.0" y="478.0" type="curve" smooth="yes"/>
      <point x="253.0" y="415.0"/>
      <point x="231.0" y="355.0"/>
      <point x="206.0" y="287.0" type="curve" smooth="yes"/>
      <point x="185.0" y="224.0"/>
      <point x="100.0" y="255.0"/>
    </contour>
  </outline>
</glyph>
<glyph name="underscore" format="2">
  <advance width="379"/>
  <unicode hex="005F"/>
  <outline>
    <contour>
      <point x="465" y="-123" type="curve" smooth="yes"/>
      <point x="310" y="-123"/>
      <point x="187" y="-123"/>
      <point x="84" y="-123" type="curve" smooth="yes"/>
      <point x="16" y="-123"/>
      <point x="17" y="-33"/>
      <point x="84" y="-33" type="curve" smooth="yes"/>
      <point x="238" y="-33"/>
      <point x="361" y="-33"/>
      <point x="465" y="-33" type="curve" smooth="yes"/>
      <point x="533" y="-33"/>
      <point x="533" y="-123"/>
    </contour>
  </outline>
</glyph>
<glyph name="grave" format="2">
  <advance width="288"/>
  <unicode hex="0060"/>
  <outline>
    <contour>
      <point x="133.58037366901237" y="583.5295124968068" type="curve" smooth="yes"/>
      <point x="69.21810649083193" y="709.529510577717" type="line" smooth="yes"/>
      <point x="38.51238332363454" y="769.6411447659458"/>
      <point x="118.66122890793963" y="810.5821089888756"/>
      <point x="149.36695207513702" y="750.4704748006468" type="curve" smooth="yes"/>
      <point x="213.72921925331747" y="624.4704767197366" type="line" smooth="yes"/>
      <point x="244.4349424205148" y="564.3588425315077"/>
      <point x="164.2860968362097" y="523.4178783085779"/>
    </contour>
  </outline>
</glyph>
<glyph name="a" format="2">
  <advance width="412"/>
  <unicode hex="0061"/>
  <outline>
    <contour>
      <point x="464.0" y="476.0" type="curve" smooth="yes"/>
      <point x="490.0" y="408.0"/>
      <point x="456.0" y="354.0"/>
      <point x="456.0" y="222.0" type="curve" smooth="yes"/>
      <point x="456.0" y="50.0"/>
      <point x="451.0" y="-11.0"/>
      <point x="361.0" y="-11.0" type="curve" smooth="yes"/>
      <point x="271.0" y="-11.0"/>
      <point x="185.0" y="89.0"/>
      <point x="185.0" y="248.0" type="curve" smooth="yes"/>
      <point x="185.0" y="408.0"/>
      <point x="267.0" y="508.0"/>
      <point x="368.0" y="508.0" type="curve" smooth="yes"/>
      <point x="468.0" y="508.0"/>
      <point x="558.0" y="408.0"/>
      <point x="558.0" y="252.0" type="curve" smooth="yes"/>
      <point x="558.0" y="205.0"/>
      <point x="558.0" y="155.0"/>
      <point x="558.0" y="125.0" type="curve" smooth="yes"/>
      <point x="558.0" y="93.0"/>
      <point x="553.0" y="48.0"/>
      <point x="538.0" y="13.0" type="curve" smooth="yes"/>
      <point x="510.0" y="-53.0"/>
      <point x="428.0" y="-15.0"/>
      <point x="454.0" y="45.0" type="curve" smooth="yes"/>
      <point x="466.0" y="74.0"/>
      <point x="468.0" y="98.0"/>
      <point x="468.0" y="134.0" type="curve" smooth="yes"/>
      <point x="468.0" y="159.0"/>
      <point x="468.0" y="222.0"/>
      <point x="468.0" y="250.0" type="curve" smooth="yes"/>
      <point x="468.0" y="342.0"/>
      <point x="425.0" y="418.0"/>
      <point x="368.0" y="418.0" type="curve" smooth="yes"/>
      <point x="310.0" y="418.0"/>
      <point x="275.0" y="338.0"/>
      <point x="275.0" y="250.0" type="curve" smooth="yes"/>
      <point x="275.0" y="162.0"/>
      <point x="323.0" y="79.0"/>
      <point x="352.0" y="79.0" type="curve" smooth="yes"/>
      <point x="381.0" y="79.0"/>
      <point x="366.0" y="152.0"/>
      <point x="366.0" y="240.0" type="curve" smooth="yes"/>
      <point x="366.0" y="310.0"/>
      <point x="394.0" y="406.0"/>
      <point x="378.0" y="447.0" type="curve" smooth="yes"/>
      <point x="355.0" y="508.0"/>
      <point x="439.0" y="543.0"/>
    </contour>
  </outline>
</glyph>
<glyph name="b" format="2">
  <advance width="412"/>
  <unicode hex="0062"/>
  <outline>
    <contour>
      <point x="102.83138943601102" y="56.988098502906254" type="curve" smooth="yes"/>
      <point x="117.9035393381431" y="107.05680923543994"/>
      <point x="117.8807879241461" y="134.12421211471"/>
      <point x="117.86648539793295" y="250.01539034723086" type="curve" smooth="yes"/>
      <point x="117.84696375718404" y="408.19625390248194"/>
      <point x="198.0110177127466" y="508.02094070674207"/>
      <point x="300.0189135481779" y="508.02094070674207" type="curve" smooth="yes"/>
      <point x="401.2331416477938" y="508.02094070674207"/>
      <point x="483.61883503485564" y="406.36558154908835"/>
      <point x="483.6383762021259" y="248.0264975850661" type="curve" smooth="yes"/>
      <point x="483.6571868398817" y="95.60678233279035"/>
      <point x="377.1678496724118" y="-10.98342365375991"/>
      <point x="251.28429560528284" y="-10.991269976503034" type="curve" smooth="yes"/>
      <point x="115.14977458189247" y="-10.999755242083165"/>
      <point x="33.007042569281175" y="105.04150424616995"/>
      <point x="34.43910147316573" y="200.6732640577705" type="curve" smooth="yes"/>
      <point x="37.69167782131466" y="417.877737457103"/>
      <point x="117.84000863105167" y="464.55257516967566"/>
      <point x="117.82242680901989" y="607.0153849098099" type="curve" smooth="yes"/>
      <point x="117.81959217530535" y="629.9839875284343"/>
      <point x="115.29025290358062" y="657.6212959358282"/>
      <point x="109.04023673799469" y="685.0053956820943" type="curve" smooth="yes"/>
      <point x="94.02058969277671" y="750.8131475251491"/>
      <point x="181.7642588168497" y="770.8393435854398"/>
      <point x="196.78390586206768" y="705.031591742385" type="curve" smooth="yes"/>
      <point x="204.6835803257417" y="670.4196055098664"/>
      <point x="207.81884330352668" y="636.0575344001935"/>
      <point x="207.8224261236307" y="607.0264921171836" type="curve" smooth="yes"/>
      <point x="207.84205532169491" y="447.9741081199917"/>
      <point x="127.34225784675505" y="393.8699235351857"/>
      <point x="124.42901226810156" y="199.3256902677707" type="curve" smooth="yes"/>
      <point x="123.6151609263847" y="144.97734201038014"/>
      <point x="173.91227151469116" y="79.00390759955887"/>
      <point x="251.2786859045972" y="79.00872984867063" type="curve" smooth="yes"/>
      <point x="331.721044722497" y="79.01374382141854"/>
      <point x="393.6503972986257" y="150.615841118801"/>
      <point x="393.6383768875151" y="248.01539037769257" type="curve" smooth="yes"/>
      <point x="393.62736492518474" y="337.24363370181146"/>
      <point x="357.0557963356738" y="418.02094070674207"/>
      <point x="300.0189135481779" y="418.02094070674207" type="curve" smooth="yes"/>
      <point x="242.41969476659466" y="418.02094070674207"/>
      <point x="207.85546172998676" y="339.34403608787187"/>
      <point x="207.86648471254375" y="250.02649755460433" type="curve" smooth="yes"/>
      <point x="207.88295552801864" y="116.56600369564673"/>
      <point x="206.36841755086388" y="88.70463739886601"/>
      <point x="189.01130202116502" y="31.045418093680734" type="curve" smooth="yes"/>
      <point x="169.55429171424584" y="-33.58951634518476"/>
      <point x="83.37437912909184" y="-7.6468359359592455"/>
    </contour>
  </outline>
</glyph>
<glyph name="c" format="2">
  <advance width="335"/>
  <unicode hex="0063"/>
  <outline>
    <contour>
      <point x="454.2515861410124" y="53.01824930697107" type="curve" smooth="yes"/>
      <point x="440.3438984057419" y="13.673877423346246"/>
      <point x="398.7287277128436" y="-10.04414644591153"/>
      <point x="351.90719763355094" y="-10.970252701082934" type="curve" smooth="yes"/>
      <point x="256.9731527840312" y="-12.848000237632295"/>
      <point x="168.83296050936696" y="79.5426050399729"/>
      <point x="168.8121687073916" y="248.0153903776926" type="curve" smooth="yes"/>
      <point x="168.79168956409256" y="413.954750371988"/>
      <point x="254.79453407004618" y="507.020940721973"/>
      <point x="348.8431531006627" y="507.020940721973" type="curve" smooth="yes"/>
      <point x="396.4014750816307" y="507.020940721973"/>
      <point x="438.97389391197777" y="485.30843339283854"/>
      <point x="453.997335743503" y="444.59369390162306" type="curve" smooth="yes"/>
      <point x="477.36431874064414" y="381.267284674419"/>
      <point x="392.92910643770534" y="350.11130734489745"/>
      <point x="369.5621234405642" y="413.4377165721015" type="curve" smooth="yes"/>
      <point x="368.9219498342638" y="415.1726386959382"/>
      <point x="350.8696915486152" y="417.020940721973"/>
      <point x="348.8431531006627" y="417.020940721973" type="curve" smooth="yes"/>
      <point x="296.05518092586766" y="417.020940721973"/>
      <point x="258.8006734093459" y="341.1655825431402"/>
      <point x="258.8121680220024" y="248.02649758506607" type="curve" smooth="yes"/>
      <point x="258.82384396289893" y="153.41813768432291"/>
      <point x="296.8157879373556" y="77.95767055377642"/>
      <point x="350.12739113755356" y="79.01214718265436" type="curve" smooth="yes"/>
      <point x="352.10164499509546" y="79.05119692843728"/>
      <point x="368.810552733569" y="81.3541965205647"/>
      <point x="369.39697752819546" y="83.01317216344229" type="curve" smooth="yes"/>
      <point x="391.8931696705488" y="146.65412862305502"/>
      <point x="476.74777828336573" y="116.6592057665838"/>
    </contour>
  </outline>
</glyph>
<glyph name="d" format="2">
  <advance width="412"/>
  <unicode hex="0064"/>
  <outline>
    <contour>
      <point x="455.0" y="710.0" type="curve" smooth="yes"/>
      <point x="465.0" y="672.0"/>
      <point x="467.0" y="639.0"/>
      <point x="462.0" y="590.0" type="curve" smooth="yes"/>
      <point x="446.0" y="441.0"/>
      <point x="375.0" y="399.0"/>
      <point x="375.0" y="229.0" type="curve" smooth="yes"/>
      <point x="375.0" y="60.0"/>
      <point x="371.0" y="-11.0"/>
      <point x="281.0" y="-11.0" type="curve" smooth="yes"/>
      <point x="190.0" y="-11.0"/>
      <point x="99.0" y="89.0"/>
      <point x="99.0" y="248.0" type="curve" smooth="yes"/>
      <point x="99.0" y="408.0"/>
      <point x="181.0" y="508.0"/>
      <point x="282.0" y="508.0" type="curve" smooth="yes"/>
      <point x="382.0" y="508.0"/>
      <point x="477.0" y="408.0"/>
      <point x="477.0" y="252.0" type="curve" smooth="yes"/>
      <point x="477.0" y="205.0"/>
      <point x="476.0" y="155.0"/>
      <point x="474.0" y="126.0" type="curve" smooth="yes"/>
      <point x="471.0" y="96.0"/>
      <point x="469.0" y="56.0"/>
      <point x="461.0" y="20.0" type="curve" smooth="yes"/>
      <point x="447.0" y="-46.0"/>
      <point x="359.0" y="-25.0"/>
      <point x="372.0" y="36.0" type="curve" smooth="yes"/>
      <point x="379.0" y="71.0"/>
      <point x="382.0" y="96.0"/>
      <point x="384.0" y="132.0" type="curve" smooth="yes"/>
      <point x="386.0" y="160.0"/>
      <point x="387.0" y="222.0"/>
      <point x="387.0" y="250.0" type="curve" smooth="yes"/>
      <point x="387.0" y="343.0"/>
      <point x="339.0" y="418.0"/>
      <point x="282.0" y="418.0" type="curve" smooth="yes"/>
      <point x="224.0" y="418.0"/>
      <point x="189.0" y="338.0"/>
      <point x="189.0" y="250.0" type="curve" smooth="yes"/>
      <point x="189.0" y="162.0"/>
      <point x="240.0" y="81.0"/>
      <point x="269.0" y="81.0" type="curve" smooth="yes"/>
      <point x="298.0" y="81.0"/>
      <point x="285.0" y="189.0"/>
      <point x="285.0" y="260.0" type="curve" smooth="yes"/>
      <point x="285.0" y="387.0"/>
      <point x="359.0" y="467.0"/>
      <point x="373.0" y="598.0" type="curve" smooth="yes"/>
      <point x="377.0" y="635.0"/>
      <point x="377.0" y="655.0"/>
      <point x="368.0" y="690.0" type="curve" smooth="yes"/>
      <point x="353.0" y="745.0"/>
      <point x="439.0" y="771.0"/>
    </contour>
  </outline>
</glyph>
<glyph name="e" format="2">
  <advance width="388"/>
  <unicode hex="0065"/>
  <outline>
    <contour>
      <point x="228.74058243517834" y="294.0087264153286" type="curve" smooth="yes"/>
      <point x="303.1056966453897" y="294.016504087117"/>
      <point x="327.22021702145304" y="294.00872666144653"/>
      <point x="375.116392584598" y="294.00872666144653" type="curve" smooth="yes"/>
      <point x="393.6548232254562" y="294.00872666144653"/>
      <point x="445.60257958039716" y="296.39817078590636"/>
      <point x="442.9462468007348" y="315.9684601453106" type="curve" smooth="yes"/>
      <point x="434.9913395033731" y="374.57551376018125"/>
      <point x="406.8629044438578" y="418.02094070674207"/>
      <point x="364.48337964224515" y="418.02094070674207" type="curve" smooth="yes"/>
      <point x="306.21937637819985" y="418.02094070674207"/>
      <point x="269.4912634972332" y="341.26604814939435"/>
      <point x="269.50277050869346" y="248.0264975850661" type="curve" smooth="yes"/>
      <point x="269.5151589178986" y="147.64511615635897"/>
      <point x="309.38397597935756" y="79.02094724078572"/>
      <point x="370.90028502766836" y="79.02094724078572" type="curve" smooth="yes"/>
      <point x="389.3599116747941" y="79.02094724078572"/>
      <point x="414.4994026478119" y="86.12345217426856"/>
      <point x="423.72721861624393" y="102.306347832725" type="curve" smooth="yes"/>
      <point x="457.1631745366771" y="160.94325474029347"/>
      <point x="535.3457170801017" y="116.36198017971597"/>
      <point x="501.9097611596686" y="57.7250732721475" type="curve" smooth="yes"/>
      <point x="476.0320561278885" y="12.343132210228898"/>
      <point x="422.6668975181298" y="-10.97905275921429"/>
      <point x="370.90028502766836" y="-10.979052759214284" type="curve" smooth="yes"/>
      <point x="268.0293736351444" y="-10.979052759214277"/>
      <point x="179.52348776445814" y="80.15219516710088"/>
      <point x="179.50277119408264" y="248.01539037769257" type="curve" smooth="yes"/>
      <point x="179.4827356102878" y="410.3606556781164"/>
      <point x="263.0362468523859" y="508.02094070674207"/>
      <point x="364.48337964224515" y="508.02094070674207" type="curve" smooth="yes"/>
      <point x="447.0198434004995" y="508.02094070674207"/>
      <point x="516.6358538737956" y="442.2138973903198"/>
      <point x="532.128474919513" y="328.0734255632792" type="curve" smooth="yes"/>
      <point x="544.4094057765401" y="237.59478812937508"/>
      <point x="460.82447353035974" y="204.0087266614465"/>
      <point x="375.116392584598" y="204.00872666144653" type="curve" smooth="yes"/>
      <point x="315.7350922770001" y="204.00872666144656"/>
      <point x="320.9472767843015" y="204.01836960364056"/>
      <point x="228.74999532278696" y="204.00872690756447" type="curve" smooth="yes"/>
      <point x="161.24999569196385" y="204.00166724185797"/>
      <point x="161.24058280435523" y="294.00166674962213"/>
    </contour>
  </outline>
</glyph>
<glyph name="f" format="2">
  <advance width="258"/>
  <unicode hex="0066"/>
  <outline>
    <contour>
      <point x="240.73395724496075" y="657.3498741993803" type="curve" smooth="yes"/>
      <point x="239.18696952816452" y="660.7445617619763"/>
      <point x="245.37568824801068" y="591.1159678024081"/>
      <point x="245.3765631843808" y="584.0264924674935" type="curve" smooth="yes"/>
      <point x="245.39761550108597" y="413.44279619592066"/>
      <point x="245.41239073360134" y="293.72135123514073"/>
      <point x="245.42457100255217" y="195.02649839230227" type="curve" smooth="yes"/>
      <point x="245.43180884019074" y="136.37940911069802"/>
      <point x="242.77350956426005" y="73.03539472823151"/>
      <point x="226.82944992240073" y="25.66265498226242" type="curve" smooth="yes"/>
      <point x="205.29803305758242" y="-38.31115284401456"/>
      <point x="119.99962262254645" y="-9.602597024256838"/>
      <point x="141.53103948736475" y="54.371210802020144" type="curve" smooth="yes"/>
      <point x="153.7975652884336" y="90.81731972371776"/>
      <point x="155.4301401017664" y="149.89538724680423"/>
      <point x="155.42457168794135" y="195.01539118492875" type="curve" smooth="yes"/>
      <point x="155.41639819266894" y="261.2439708963872"/>
      <point x="155.39069089863585" y="469.5462351415499"/>
      <point x="155.37656386977" y="584.0153852601201" type="curve" smooth="yes"/>
      <point x="155.35620537871048" y="748.9771186445837"/>
      <point x="286.6348786713805" y="773.66047674878"/>
      <point x="322.631022706243" y="694.6710567748353" type="curve" smooth="yes"/>
      <point x="350.6219096378343" y="633.2482576788735"/>
      <point x="268.724844176552" y="595.9270751034186"/>
    </contour>
    <contour>
      <point x="275.34604992091977" y="408.0139595420783" type="curve" smooth="yes"/>
      <point x="246.05240515061737" y="408.0139595420783"/>
      <point x="232.3408004305557" y="408.01316913492474"/>
      <point x="196.15453358021844" y="408.009596438295" type="curve" smooth="yes"/>
      <point x="151.5772061543693" y="408.00519528610886"/>
      <point x="126.12809221586573" y="408.0050617827236"/>
      <point x="117.63717237399497" y="408.0096026540116" type="curve" smooth="yes"/>
      <point x="113.39848157050203" y="408.0118694695896"/>
      <point x="111.99055838462824" y="408.0139595420783"/>
      <point x="97.15514106190976" y="408.0139595420783" type="curve" smooth="yes"/>
      <point x="29.65514106190976" y="408.0139595420783"/>
      <point x="29.655141061909788" y="498.0139595420783"/>
      <point x="97.15514106190979" y="498.0139595420783" type="curve" smooth="yes"/>
      <point x="112.0216798494462" y="498.0139595420783"/>
      <point x="113.43772094622238" y="498.0118613547913"/>
      <point x="117.68530359713692" y="498.0095897839293" type="curve" smooth="yes"/>
      <point x="126.61406375053382" y="498.0048147593886"/>
      <point x="149.26965884279122" y="498.0049678989217"/>
      <point x="196.14564781432702" y="498.0095959996459" type="curve" smooth="yes"/>
      <point x="225.84901441712555" y="498.01252863478595"/>
      <point x="251.3004672875089" y="498.0139595420783"/>
      <point x="275.34604992091977" y="498.0139595420783" type="curve" smooth="yes"/>
      <point x="342.84604992091977" y="498.0139595420783"/>
      <point x="342.84604992091977" y="408.0139595420783"/>
    </contour>
  </outline>
</glyph>
<glyph name="i" format="2">
  <advance width="163"/>
  <unicode hex="0069"/>
  <anchor x="81.0" y="722" name="above"/>
  <anchor x="81.0" y="0" name="below"/>
  <outline>
    <contour>
      <point x="108.0" y="50.0" type="curve" smooth="yes"/>
      <point x="118.0" y="90.0"/>
      <point x="121.0" y="127.0"/>
      <point x="121.0" y="165.0" type="curve" smooth="yes"/>
      <point x="121.0" y="233.0"/>
      <point x="121.0" y="283.0"/>
      <point x="121.0" y="337.0" type="curve" smooth="yes"/>
      <point x="121.0" y="367.0"/>
      <point x="120.0" y="405.0"/>
      <point x="108.0" y="449.0" type="curve" smooth="yes"/>
      <point x="92.0" y="508.0"/>
      <point x="178.0" y="534.0"/>
      <point x="195.0" y="471.0" type="curve" smooth="yes"/>
      <point x="208.0" y="422.0"/>
      <point x="211.0" y="384.0"/>
      <point x="211.0" y="327.0" type="curve" smooth="yes"/>
      <point x="211.0" y="270.0"/>
      <point x="211.0" y="211.0"/>
      <point x="211.0" y="165.0" type="curve" smooth="yes"/>
      <point x="211.0" y="119.0"/>
      <point x="207.0" y="74.0"/>
      <point x="196.0" y="29.0" type="curve" smooth="yes"/>
      <point x="179.0" y="-37.0"/>
      <point x="92.0" y="-14.0"/>
    </contour>
    <contour>
      <point x="115.0" y="648.0" type="curve" smooth="yes"/>
      <point x="123.0" y="664.0"/>
      <point x="123.0" y="653.0"/>
      <point x="115.0" y="669.0" type="curve" smooth="yes"/>
      <point x="92.0" y="715.0"/>
      <point x="167.0" y="765.0"/>
      <point x="200.0" y="700.0" type="curve" smooth="yes"/>
      <point x="211.0" y="678.0"/>
      <point x="211.0" y="643.0"/>
      <point x="200.0" y="621.0" type="curve" smooth="yes"/>
      <point x="167.0" y="556.0"/>
      <point x="92.0" y="602.0"/>
    </contour>
  </outline>
</glyph>
<glyph name="j" format="2">
  <advance width="173"/>
  <unicode hex="006A"/>
  <outline>
    <contour>
      <point x="198.7696467888378" y="472.38193020077097" type="curve" smooth="yes"/>
      <point x="214.31236942923738" y="426.2431460856094"/>
      <point x="220.93524606210715" y="361.52266497012954"/>
      <point x="220.94555060942037" y="278.02649712814" type="curve" smooth="yes"/>
      <point x="220.95251321650414" y="221.60955885541622"/>
      <point x="220.970230417262" y="78.04979604503153"/>
      <point x="220.98195756664546" y="-16.973498378753078" type="curve" smooth="yes"/>
      <point x="220.99975649623565" y="-161.19549739656622"/>
      <point x="89.19608062284902" y="-192.17490958470336"/>
      <point x="17.502162008931148" y="-153.62051380766417" type="curve" smooth="yes"/>
      <point x="-41.946942975673494" y="-121.6509358228134"/>
      <point x="0.6791610041275931" y="-42.385462510007216"/>
      <point x="60.12826598873224" y="-74.35504049485799" type="curve" smooth="yes"/>
      <point x="88.71471969965947" y="-89.7278011353838"/>
      <point x="130.98905520372418" y="-74.49011761179722"/>
      <point x="130.98195825203464" y="-16.984605586126605" type="curve" smooth="yes"/>
      <point x="130.96448227281672" y="124.62057605382599"/>
      <point x="130.95592707947142" y="193.9419967583484"/>
      <point x="130.94555129480955" y="278.01538992076644" type="curve" smooth="yes"/>
      <point x="130.93713211507762" y="346.23471315984114"/>
      <point x="126.17800144493903" y="405.9531584991825"/>
      <point x="113.47904714290122" y="443.6501775212604" type="curve" smooth="yes"/>
      <point x="91.93023263326826" y="507.6181272557128"/>
      <point x="177.22083227920484" y="536.3498799352234"/>
    </contour>
    <contour>
      <point x="132.2693260491509" y="650.0335281327209" type="curve" smooth="yes"/>
      <point x="133.7425766260055" y="655.8705189127063"/>
      <point x="134.6010105050483" y="663.1280423426948"/>
      <point x="132.83152511306267" y="668.964232728433" type="curve" smooth="yes"/>
      <point x="113.24646814893995" y="733.5604829579321"/>
      <point x="199.37480178827215" y="759.6738922434289"/>
      <point x="218.95985875239487" y="695.0776420139298" type="curve" smooth="yes"/>
      <point x="225.61835524114574" y="673.1163116931905"/>
      <point x="225.07644914706302" y="649.9726900889409"/>
      <point x="219.53267136993838" y="628.0083479194968" type="curve" smooth="yes"/>
      <point x="203.01378621002038" y="562.5608389289062"/>
      <point x="115.75044088923289" y="584.5860191421302"/>
    </contour>
  </outline>
</glyph>
<glyph name="k" format="2">
  <advance width="355"/>
  <unicode hex="006B"/>
  <outline>
    <contour>
      <point x="196.24405800782193" y="704.9006949155374" type="curve" smooth="yes"/>
      <point x="206.8884806407976" y="657.6182994790955"/>
      <point x="211.49550266524608" y="609.3115141277519"/>
      <point x="211.50133827126308" y="562.0264928025728" type="curve" smooth="yes"/>
      <point x="211.52073647736995" y="404.84580123805205"/>
      <point x="211.5364524548224" y="277.50164420900893"/>
      <point x="211.5494695028488" y="172.0264987426123" type="curve" smooth="yes"/>
      <point x="211.5553051088658" y="124.74147741743322"/>
      <point x="206.9602007317204" y="77.43321373471935"/>
      <point x="196.32744931077843" y="30.145566520803094" type="curve" smooth="yes"/>
      <point x="181.51961435561176" y="-35.71016993351456"/>
      <point x="93.71196574985488" y="-15.966389993292317"/>
      <point x="108.51980070502157" y="49.88934646102533" type="curve" smooth="yes"/>
      <point x="117.67454687057746" y="90.6037758567059"/>
      <point x="121.5544946160359" y="131.30322301671924"/>
      <point x="121.549470188238" y="172.01539153523876" type="curve" smooth="yes"/>
      <point x="121.53007198213103" y="329.1960830997594"/>
      <point x="121.51435600467873" y="456.54024012880257"/>
      <point x="121.5013389566523" y="562.0153855951991" type="curve" smooth="yes"/>
      <point x="121.49631452885441" y="602.7275541137184"/>
      <point x="117.60631545636753" y="644.4242904724915"/>
      <point x="108.44152043521592" y="685.1341981138502" type="curve" smooth="yes"/>
      <point x="93.6166478339505" y="750.9861012933047"/>
      <point x="181.4191854065565" y="770.752598094992"/>
    </contour>
    <contour>
      <point x="411.07052970481845" y="427.56920119123606" type="curve" smooth="yes"/>
      <point x="372.3647175390038" y="385.45735909897394"/>
      <point x="322.08356915645004" y="341.3042991904797"/>
      <point x="252.38098432863984" y="294.6241961677085" type="curve" smooth="yes"/>
      <point x="202.75359429586862" y="261.3885323081278"/>
      <point x="204.85706124107682" y="272.23733084493136"/>
      <point x="252.53304336874848" y="237.31771245181375" type="curve" smooth="yes"/>
      <point x="323.5102336491348" y="185.33144413395104"/>
      <point x="378.9560277154347" y="122.30737416185066"/>
      <point x="420.86108867015497" y="67.28645221088505" type="curve" smooth="yes"/>
      <point x="461.7593462623818" y="13.587452909968299"/>
      <point x="390.1606805278262" y="-40.943557213000815"/>
      <point x="349.2624229355993" y="12.755442087915927" type="curve" smooth="yes"/>
      <point x="311.97184048706407" y="61.717600349036104"/>
      <point x="262.51404143611734" y="118.44854135722585"/>
      <point x="199.35267844523574" y="164.71021430870172" type="curve" smooth="yes"/>
      <point x="81.13602569918727" y="251.2963781878029"/>
      <point x="79.24549567262203" y="286.9930712171622"/>
      <point x="202.30083029553822" y="369.40372660231884" type="curve" smooth="yes"/>
      <point x="265.0140297375688" y="411.4030099585019"/>
      <point x="309.98306287372606" y="450.5835782913637"/>
      <point x="344.80767266283146" y="488.47268037455683" type="curve" smooth="yes"/>
      <point x="390.4852820503221" y="538.1698231560471"/>
      <point x="456.7481390923091" y="477.2663439727263"/>
    </contour>
  </outline>
</glyph>
<glyph name="l" format="2">
  <advance width="163"/>
  <unicode hex="006C"/>
  <anchor x="81.0" y="735" name="above"/>
  <anchor x="81.0" y="0" name="below"/>
  <anchor x="116.0" y="497" name="right"/>
  <outline>
    <contour>
      <point x="104.0" y="59.0" type="curve" smooth="yes"/>
      <point x="122.0" y="97.0"/>
      <point x="121.0" y="138.0"/>
      <point x="121.0" y="179.0" type="curve" smooth="yes"/>
      <point x="121.0" y="283.0"/>
      <point x="121.0" y="409.0"/>
      <point x="121.0" y="566.0" type="curve" smooth="yes"/>
      <point x="121.0" y="602.0"/>
      <point x="121.0" y="644.0"/>
      <point x="109.0" y="681.0" type="curve" smooth="yes"/>
      <point x="88.0" y="746.0"/>
      <point x="173.0" y="774.0"/>
      <point x="195.0" y="708.0" type="curve" smooth="yes"/>
      <point x="210.0" y="661.0"/>
      <point x="211.0" y="612.0"/>
      <point x="211.0" y="567.0" type="curve" smooth="yes"/>
      <point x="211.0" y="460.0"/>
      <point x="211.0" y="338.0"/>
      <point x="211.0" y="177.0" type="curve" smooth="yes"/>
      <point x="211.0" y="126.0"/>
      <point x="210.0" y="72.0"/>
      <point x="187.0" y="23.0" type="curve" smooth="yes"/>
      <point x="157.0" y="-43.0"/>
      <point x="76.0" y="-3.0"/>
    </contour>
  </outline>
</glyph>
<glyph name="m" format="2">
  <advance width="586"/>
  <unicode hex="006D"/>
  <anchor x="296.0" y="509" name="above"/>
  <anchor x="296.0" y="0" name="below"/>
  <outline>
    <contour>
      <point x="184.0" y="476.0" type="curve" smooth="yes"/>
      <point x="206.0" y="434.0"/>
      <point x="209.0" y="382.0"/>
      <point x="209.0" y="342.0" type="curve" smooth="yes"/>
      <point x="209.0" y="313.0"/>
      <point x="209.0" y="233.0"/>
      <point x="209.0" y="102.0" type="curve" smooth="yes"/>
      <point x="209.0" y="-52.0"/>
      <point x="34.0" y="-44.0"/>
      <point x="34.0" y="100.0" type="curve" smooth="yes"/>
      <point x="34.0" y="219.0"/>
      <point x="34.0" y="210.0"/>
      <point x="34.0" y="278.0" type="curve" smooth="yes"/>
      <point x="34.0" y="425.0"/>
      <point x="173.0" y="508.0"/>
      <point x="287.0" y="508.0" type="curve" smooth="yes"/>
      <point x="376.0" y="508.0"/>
      <point x="426.0" y="448.0"/>
      <point x="426.0" y="303.0" type="curve" smooth="yes"/>
      <point x="426.0" y="271.0"/>
      <point x="426.0" y="231.0"/>
      <point x="426.0" y="111.0" type="curve" smooth="yes"/>
      <point x="426.0" y="-46.0"/>
      <point x="251.0" y="-46.0"/>
      <point x="251.0" y="112.0" type="curve" smooth="yes"/>
      <point x="251.0" y="231.0"/>
      <point x="251.0" y="239.0"/>
      <point x="251.0" y="278.0" type="curve" smooth="yes"/>
      <point x="251.0" y="425.0"/>
      <point x="390.0" y="508.0"/>
      <point x="504.0" y="508.0" type="curve" smooth="yes"/>
      <point x="593.0" y="508.0"/>
      <point x="643.0" y="448.0"/>
      <point x="643.0" y="303.0" type="curve" smooth="yes"/>
      <point x="643.0" y="271.0"/>
      <point x="643.0" y="218.0"/>
      <point x="643.0" y="179.0" type="curve" smooth="yes"/>
      <point x="643.0" y="118.0"/>
      <point x="641.0" y="71.0"/>
      <point x="618.0" y="23.0" type="curve" smooth="yes"/>
      <point x="587.0" y="-43.0"/>
      <point x="507.0" y="-2.0"/>
      <point x="536.0" y="59.0" type="curve" smooth="yes"/>
      <point x="553.0" y="96.0"/>
      <point x="553.0" y="140.0"/>
      <point x="553.0" y="172.0" type="curve" smooth="yes"/>
      <point x="553.0" y="209.0"/>
      <point x="553.0" y="258.0"/>
      <point x="553.0" y="301.0" type="curve" smooth="yes"/>
      <point x="553.0" y="375.0"/>
      <point x="549.0" y="418.0"/>
      <point x="502.0" y="418.0" type="curve" smooth="yes"/>
      <point x="436.0" y="418.0"/>
      <point x="341.0" y="369.0"/>
      <point x="341.0" y="278.0" type="curve" smooth="yes"/>
      <point x="341.0" y="220.0"/>
      <point x="341.0" y="156.0"/>
      <point x="341.0" y="137.0" type="curve" smooth="yes"/>
      <point x="341.0" y="110.0"/>
      <point x="336.0" y="110.0"/>
      <point x="336.0" y="137.0" type="curve" smooth="yes"/>
      <point x="336.0" y="155.0"/>
      <point x="336.0" y="258.0"/>
      <point x="336.0" y="301.0" type="curve" smooth="yes"/>
      <point x="336.0" y="375.0"/>
      <point x="332.0" y="418.0"/>
      <point x="285.0" y="418.0" type="curve" smooth="yes"/>
      <point x="219.0" y="418.0"/>
      <point x="124.0" y="369.0"/>
      <point x="124.0" y="278.0" type="curve" smooth="yes"/>
      <point x="124.0" y="233.0"/>
      <point x="124.0" y="175.0"/>
      <point x="124.0" y="144.0" type="curve" smooth="yes"/>
      <point x="124.0" y="108.0"/>
      <point x="119.0" y="98.0"/>
      <point x="119.0" y="149.0" type="curve" smooth="yes"/>
      <point x="119.0" y="191.0"/>
      <point x="119.0" y="311.0"/>
      <point x="119.0" y="333.0" type="curve" smooth="yes"/>
      <point x="119.0" y="374.0"/>
      <point x="120.0" y="404.0"/>
      <point x="102.0" y="438.0" type="curve" smooth="yes"/>
      <point x="72.0" y="495.0"/>
      <point x="149.0" y="541.0"/>
    </contour>
  </outline>
</glyph>
<glyph name="o" format="2">
  <advance width="409"/>
  <unicode hex="006F"/>
  <outline>
    <contour>
      <point x="289.0" y="0.0" type="curve" smooth="yes"/>
      <point x="249.0" y="18.0"/>
      <point x="232.0" y="53.0"/>
      <point x="213.0" y="102.0" type="curve" smooth="yes"/>
      <point x="197.0" y="144.0"/>
      <point x="184.0" y="190.0"/>
      <point x="184.0" y="251.0" type="curve" smooth="yes"/>
      <point x="184.0" y="403.0"/>
      <point x="268.0" y="508.0"/>
      <point x="373.0" y="508.0" type="curve" smooth="yes"/>
      <point x="479.0" y="508.0"/>
      <point x="563.0" y="404.0"/>
      <point x="563.0" y="250.0" type="curve" smooth="yes"/>
      <point x="563.0" y="190.0"/>
      <point x="555.0" y="142.0"/>
      <point x="531.0" y="99.0" type="curve" smooth="yes"/>
      <point x="503.0" y="50.0"/>
      <point x="464" y="19"/>
      <point x="407.0" y="0.0" type="curve" smooth="yes"/>
      <point x="346.0" y="-20.0"/>
      <point x="315.0" y="61.0"/>
      <point x="375.0" y="84.0" type="curve" smooth="yes"/>
      <point x="413.0" y="98.0"/>
      <point x="435.0" y="111.0"/>
      <point x="453.0" y="143.0" type="curve" smooth="yes"/>
      <point x="468.0" y="171.0"/>
      <point x="473.0" y="211.0"/>
      <point x="473.0" y="248.0" type="curve" smooth="yes"/>
      <point x="473.0" y="341.0"/>
      <point x="434.0" y="418.0"/>
      <point x="373.0" y="418.0" type="curve" smooth="yes"/>
      <point x="312.0" y="418.0"/>
      <point x="274.0" y="342.0"/>
      <point x="274.0" y="247.0" type="curve" smooth="yes"/>
      <point x="274.0" y="208.0"/>
      <point x="285.0" y="165.0"/>
      <point x="296.0" y="138.0" type="curve" smooth="yes"/>
      <point x="308.0" y="107.0"/>
      <point x="312.0" y="94.0"/>
      <point x="338.0" y="76.0" type="curve" smooth="yes"/>
      <point x="383.0" y="45.0"/>
      <point x="334.0" y="-21.0"/>
    </contour>
  </outline>
</glyph>
<glyph name="p" format="2">
  <advance width="412"/>
  <unicode hex="0070"/>
  <outline>
    <contour>
      <point x="186.9927323994679" y="-105.80215854798917" type="curve" smooth="yes"/>
      <point x="204.58815090294112" y="-68.46252080731124"/>
      <point x="203.90083570691047" y="-28.319899564095035"/>
      <point x="203.89622803078458" y="9.015394017870726" type="curve" smooth="yes"/>
      <point x="203.88419813552454" y="106.49179188734087"/>
      <point x="203.87455798585623" y="184.60444742233375"/>
      <point x="203.86648539793293" y="250.01539034723083" type="curve" smooth="yes"/>
      <point x="203.84696375718391" y="408.1962539024819"/>
      <point x="284.01101771274654" y="508.02094070674207"/>
      <point x="386.0189135481779" y="508.02094070674207" type="curve" smooth="yes"/>
      <point x="487.2331416477938" y="508.02094070674207"/>
      <point x="569.6188350348556" y="406.36558154908835"/>
      <point x="569.6383762021259" y="248.0264975850661" type="curve" smooth="yes"/>
      <point x="569.6571868398814" y="95.60678233279035"/>
      <point x="463.1678496724118" y="-10.98342365375991"/>
      <point x="337.2842956052828" y="-10.991269976503034" type="curve" smooth="yes"/>
      <point x="204.25170976879392" y="-10.999561898442805"/>
      <point x="97.75584595604467" y="103.79685687596461"/>
      <point x="126.90354154933732" y="254.54446483184773" type="curve" smooth="yes"/>
      <point x="140.53757275001706" y="325.05767517192373"/>
      <point x="140.34468060130334" y="383.78183770266804"/>
      <point x="121.64490159324085" y="435.7688237987257" type="curve" smooth="yes"/>
      <point x="98.79814188343693" y="499.2847711722986"/>
      <point x="183.48607171486748" y="529.7471174520372"/>
      <point x="206.33283142467138" y="466.23117007846423" type="curve" smooth="yes"/>
      <point x="230.05086985115273" y="400.2929933025988"/>
      <point x="232.5597765107929" y="326.89511135352706"/>
      <point x="215.26692637678093" y="237.45902594848548" type="curve" smooth="yes"/>
      <point x="197.62722094040063" y="146.2290557757273"/>
      <point x="256.76955542870803" y="79.00371171404483"/>
      <point x="337.27868590459724" y="79.00872984867063" type="curve" smooth="yes"/>
      <point x="417.721044722497" y="79.01374382141854"/>
      <point x="479.6503972986257" y="150.615841118801"/>
      <point x="479.6383768875151" y="248.01539037769257" type="curve" smooth="yes"/>
      <point x="479.62736492518474" y="337.24363370181146"/>
      <point x="443.0557963356738" y="418.02094070674207"/>
      <point x="386.0189135481779" y="418.02094070674207" type="curve" smooth="yes"/>
      <point x="328.41969476659455" y="418.02094070674207"/>
      <point x="293.85546172998664" y="339.3440360878719"/>
      <point x="293.86648471254375" y="250.02649755460436" type="curve" smooth="yes"/>
      <point x="293.878514607804" y="152.55009968513428"/>
      <point x="293.88815475747197" y="74.43744415014145"/>
      <point x="293.8962273453954" y="9.026501225244267" type="curve" smooth="yes"/>
      <point x="293.90268324692084" y="-43.284679553695476"/>
      <point x="293.0596627523324" y="-91.84914664121165"/>
      <point x="268.40639154674875" y="-144.1664141024812" type="curve" smooth="yes"/>
      <point x="239.63319988087972" y="-205.22665846294186"/>
      <point x="158.21954073359888" y="-166.8624029084498"/>
    </contour>
  </outline>
</glyph>
<glyph name="q" format="2">
  <advance width="412"/>
  <unicode hex="0071"/>
  <outline>
    <contour>
      <point x="305.6653056921165" y="-137.53964244728175" type="curve" smooth="yes"/>
      <point x="293.084189916522" y="-94.19225146100878"/>
      <point x="289.73062521222613" y="-51.35604469681838"/>
      <point x="289.72527517954137" y="-8.005549674122086" type="curve" smooth="yes"/>
      <point x="289.71891027413665" y="43.56830348214013"/>
      <point x="288.9417404763525" y="135.2820434456363"/>
      <point x="293.28878357380745" y="222.24743365177613" type="curve" smooth="yes"/>
      <point x="295.1102549928776" y="258.6871397134682"/>
      <point x="301.8308243593013" y="418.02148639136794"/>
      <point x="289.4079654241558" y="418.02268624587754" type="curve" smooth="yes"/>
      <point x="250.48804736696582" y="418.0264453032283"/>
      <point x="188.7642346862838" y="334.0281769676718"/>
      <point x="188.77484844733556" y="248.0264975850661" type="curve" smooth="yes"/>
      <point x="188.7858604096658" y="158.79825426094717"/>
      <point x="224.65019880457612" y="79.02094724078572"/>
      <point x="281.68708159207193" y="79.02094724078572" type="curve" smooth="yes"/>
      <point x="338.1344573990708" y="79.02094724078572"/>
      <point x="374.5574892481227" y="158.92092250853082"/>
      <point x="374.54649379547834" y="248.01539037769257" type="curve" smooth="yes"/>
      <point x="374.53640443125437" y="329.767962622823"/>
      <point x="374.8092335501553" y="398.9706359591231"/>
      <point x="361.9572267588315" y="446.20228469726055" type="curve" smooth="yes"/>
      <point x="344.23447861810706" y="511.3341064001766"/>
      <point x="431.07690755532843" y="534.9644372544758"/>
      <point x="448.79965569605287" y="469.8326155515598" type="curve" smooth="yes"/>
      <point x="464.1809913470592" y="413.3055801719834"/>
      <point x="464.5344181166539" y="345.8683190572105"/>
      <point x="464.54649311008916" y="248.0264975850661" type="curve" smooth="yes"/>
      <point x="464.56604404794297" y="89.60824407906183"/>
      <point x="382.0557678215458" y="-10.97905275921429"/>
      <point x="281.68708159207193" y="-10.979052759214284" type="curve" smooth="yes"/>
      <point x="180.4728534924561" y="-10.979052759214277"/>
      <point x="98.79439029999502" y="89.6763064136703"/>
      <point x="98.77484913272478" y="248.01539037769257" type="curve" smooth="yes"/>
      <point x="98.75488898502306" y="409.74940857460365"/>
      <point x="216.2241950309708" y="508.02975507699944"/>
      <point x="289.41665802120656" y="508.02268582609287" type="curve" smooth="yes"/>
      <point x="370.71151525204107" y="508.01483401021295"/>
      <point x="395.0962176274991" y="456.21477626430135"/>
      <point x="383.17655728712225" y="217.75431259131926" type="curve" smooth="yes"/>
      <point x="378.92451198257146" y="132.68941426975854"/>
      <point x="379.7190486837488" y="42.45234520808932"/>
      <point x="379.7252744941522" y="-7.994442466748545" type="curve" smooth="yes"/>
      <point x="379.7295456264238" y="-42.60277276918828"/>
      <point x="382.0544157208636" y="-77.84751257915188"/>
      <point x="392.09839353719633" y="-112.45336481259253" type="curve" smooth="yes"/>
      <point x="410.9131017632133" y="-177.2781806964024"/>
      <point x="324.48001391813347" y="-202.3644583310916"/>
    </contour>
  </outline>
</glyph>
<glyph name="r" format="2">
  <advance width="275"/>
  <unicode hex="0072"/>
  <outline>
    <contour>
      <point x="318.5757731293307" y="414.33239854813223" type="curve" smooth="yes"/>
      <point x="298.21212759110807" y="422.6220029168318"/>
      <point x="264.59518682221847" y="307.5750548822708"/>
      <point x="264.6009315602579" y="261.0263228541405" type="curve" smooth="yes"/>
      <point x="264.60460068594267" y="231.2959596750848"/>
      <point x="268.8546248837138" y="171.46902788823797"/>
      <point x="268.859245686377" y="134.02737198600698" type="curve" smooth="yes"/>
      <point x="268.8817299623765" y="-48.1592710170696"/>
      <point x="108.66261110417274" y="-51.18475999955702"/>
      <point x="94.8493795052226" y="126.51353174467555" type="curve" smooth="yes"/>
      <point x="91.15901737104416" y="173.98765410797165"/>
      <point x="91.20260663114051" y="233.37588076508007"/>
      <point x="94.84773143915822" y="277.6901204613726" type="curve" smooth="yes"/>
      <point x="98.86784695641664" y="326.5631692652774"/>
      <point x="114.91478218568233" y="389.47220630818356"/>
      <point x="96.77826272918138" y="438.34470778049473" type="curve" smooth="yes"/>
      <point x="73.29402006363757" y="501.62772561645016"/>
      <point x="157.6713771782448" y="532.9400491705085"/>
      <point x="181.1556198437886" y="469.6570313345531" type="curve" smooth="yes"/>
      <point x="207.933591632072" y="397.4983975466746"/>
      <point x="190.48036124958494" y="342.4714151075314"/>
      <point x="184.5447935038012" y="270.3119732026374" type="curve" smooth="yes"/>
      <point x="181.27995196013453" y="230.62088487056508"/>
      <point x="181.27332908501685" y="176.00987767488485"/>
      <point x="184.57868850106166" y="133.48856630582523" type="curve" smooth="yes"/>
      <point x="185.276317994573" y="124.5140140166447"/>
      <point x="178.8603819274806" y="124.81503083331923"/>
      <point x="178.85924637176618" y="134.0162647786334" type="curve" smooth="yes"/>
      <point x="178.854985451616" y="168.5418478252787"/>
      <point x="174.60491127016255" y="228.77378973095696"/>
      <point x="174.60093224564707" y="261.01521564676693" type="curve" smooth="yes"/>
      <point x="174.57956701986225" y="434.1343662416214"/>
      <point x="276.77465513610804" y="528.5201095573962"/>
      <point x="352.50898483732016" y="497.6902844569097" type="curve" smooth="yes"/>
      <point x="415.02739926890325" y="472.2403756759175"/>
      <point x="381.0941875609138" y="388.88248976714004"/>
    </contour>
  </outline>
</glyph>
<glyph name="s" format="2">
  <advance width="326"/>
  <unicode hex="0073"/>
  <outline>
    <contour>
      <point x="359.0" y="397.0" type="curve" smooth="yes"/>
      <point x="338.0" y="414.0"/>
      <point x="330.0" y="418.0"/>
      <point x="312.0" y="418.0" type="curve" smooth="yes"/>
      <point x="287.0" y="418.0"/>
      <point x="265.0" y="400.0"/>
      <point x="265.0" y="360.0" type="curve" smooth="yes"/>
      <point x="265.0" y="324.0"/>
      <point x="315.0" y="304.0"/>
      <point x="338.0" y="291.0" type="curve" smooth="yes"/>
      <point x="395.0" y="259.0"/>
      <point x="449.0" y="225.0"/>
      <point x="449.0" y="130.0" type="curve" smooth="yes"/>
      <point x="449.0" y="43.0"/>
      <point x="401.0" y="-11.0"/>
      <point x="325.0" y="-11.0" type="curve" smooth="yes"/>
      <point x="285.0" y="-11.0"/>
      <point x="227.0" y="4.0"/>
      <point x="169.0" y="36.0" type="curve" smooth="yes"/>
      <point x="109.0" y="69.0"/>
      <point x="154.0" y="148.0"/>
      <point x="212.0" y="116.0" type="curve" smooth="yes"/>
      <point x="254.0" y="93.0"/>
      <point x="299.0" y="79.0"/>
      <point x="325.0" y="79.0" type="curve" smooth="yes"/>
      <point x="354.0" y="79.0"/>
      <point x="359.0" y="96.0"/>
      <point x="359.0" y="135.0" type="curve" smooth="yes"/>
      <point x="359.0" y="179.0"/>
      <point x="324.0" y="196.0"/>
      <point x="297.0" y="211.0" type="curve" smooth="yes"/>
      <point x="239.0" y="244.0"/>
      <point x="175.0" y="272.0"/>
      <point x="175.0" y="362.0" type="curve" smooth="yes"/>
      <point x="175.0" y="452.0"/>
      <point x="236.0" y="507.0"/>
      <point x="317.0" y="508.0" type="curve" smooth="yes"/>
      <point x="353.0" y="508.0"/>
      <point x="397.0" y="495.0"/>
      <point x="427.0" y="456.0" type="curve" smooth="yes"/>
      <point x="463.0" y="409.0"/>
      <point x="388" y="374"/>
    </contour>
  </outline>
</glyph>
<glyph name="t" format="2">
  <advance width="238"/>
  <unicode hex="0074"/>
  <outline>
    <contour>
      <point x="187.00619144727224" y="58.286808765661995" type="curve" smooth="yes"/>
      <point x="200.4065986225979" y="88.44786899742954"/>
      <point x="204.3342557167297" y="112.45473862138955"/>
      <point x="204.3277690269827" y="165.01539164185485" type="curve" smooth="yes"/>
      <point x="204.31137829469088" y="297.8269837390078"/>
      <point x="204.30310071139968" y="364.89897271570965"/>
      <point x="204.29099182951467" y="463.0153871030553" type="curve" smooth="yes"/>
      <point x="204.2851476369132" y="510.3699842075521"/>
      <point x="202.45405643068324" y="545.2122729836992"/>
      <point x="195.88417795115927" y="579.5659483464834" type="curve" smooth="yes"/>
      <point x="183.20509565858376" y="645.8644466116637"/>
      <point x="271.60309334549066" y="662.769889668431"/>
      <point x="284.2821756380662" y="596.4713914032508" type="curve" smooth="yes"/>
      <point x="291.85572631514765" y="556.8695476073661"/>
      <point x="294.2842541414591" y="517.6153945589565"/>
      <point x="294.2909911441255" y="463.02649431042886" type="curve" smooth="yes"/>
      <point x="294.30903598701536" y="316.81189750622366"/>
      <point x="294.3167694405481" y="254.1489085844009"/>
      <point x="294.3277683415935" y="165.02649884922837" type="curve" smooth="yes"/>
      <point x="294.33631008327166" y="95.81407494137866"/>
      <point x="286.8995909739555" y="61.46101672828912"/>
      <point x="269.2537930498828" y="21.74461355768016" type="curve" smooth="yes"/>
      <point x="241.84714664389645" y="-39.94108764427778"/>
      <point x="159.5995450412859" y="-3.398892436295945"/>
    </contour>
    <contour>
      <point x="299.4968075698515" y="408.01308687745666" type="curve" smooth="yes"/>
      <point x="283.17722455072044" y="408.01308687745666"/>
      <point x="270.3492111686575" y="408.01199779556924"/>
      <point x="245.05385763666573" y="408.0095964217483" type="curve" smooth="yes"/>
      <point x="202.59926007752006" y="408.00556606261404"/>
      <point x="174.3176965093179" y="408.00504124862425"/>
      <point x="166.53435331035323" y="408.00960395101464" type="curve" smooth="yes"/>
      <point x="163.00211094869593" y="408.01167459986755"/>
      <point x="157.35451946915637" y="408.01308687745666"/>
      <point x="142.51910214643794" y="408.01308687745666" type="curve" smooth="yes"/>
      <point x="75.01910214643794" y="408.01308687745666"/>
      <point x="75.01910214643794" y="498.01308687745666"/>
      <point x="142.51910214643794" y="498.01308687745666" type="curve" smooth="yes"/>
      <point x="157.38564093397434" y="498.01308687745666"/>
      <point x="163.0474602994711" y="498.01166347954825"/>
      <point x="166.587112534002" y="498.00958848692625" type="curve" smooth="yes"/>
      <point x="174.79629393021654" y="498.0047761523519"/>
      <point x="200.26796236211175" y="498.00534515015977"/>
      <point x="245.04531363110306" y="498.0095960161926" type="curve" smooth="yes"/>
      <point x="266.969227080644" y="498.0116773277562"/>
      <point x="285.35234719725696" y="498.01308687745666"/>
      <point x="299.4968075698515" y="498.01308687745666" type="curve" smooth="yes"/>
      <point x="366.9968075698515" y="498.01308687745666"/>
      <point x="366.9968075698515" y="408.01308687745666"/>
    </contour>
  </outline>
</glyph>
<glyph name="u" format="2">
  <advance width="402"/>
  <unicode hex="0075"/>
  <outline>
    <contour>
      <point x="187.0258117400618" y="467.29030338660164" type="curve" smooth="yes"/>
      <point x="205.64778773779082" y="378.8596428307134"/>
      <point x="202.15377061133145" y="295.46175247487673"/>
      <point x="202.164684708173" y="207.0264982095318" type="curve" smooth="yes"/>
      <point x="202.17380001819788" y="133.1665378796569"/>
      <point x="222.32550026658424" y="79.02094724078572"/>
      <point x="267.4946934366468" y="79.02094724078572" type="curve" smooth="yes"/>
      <point x="324.90748348063147" y="79.02094724078572"/>
      <point x="363.90148914669675" y="151.9998916135186"/>
      <point x="363.8926014679297" y="224.01539074323344" type="curve" smooth="yes"/>
      <point x="363.8867368939904" y="271.53513470460007"/>
      <point x="363.87804734845935" y="341.9451905845075"/>
      <point x="363.8742128691957" y="373.0153884738337" type="curve" smooth="yes"/>
      <point x="363.8731331604837" y="381.76410271691924"/>
      <point x="369.020320025091" y="381.7542659733752"/>
      <point x="369.02139973380304" y="373.00555173028965" type="curve" smooth="yes"/>
      <point x="369.0269496380003" y="328.0355284694229"/>
      <point x="369.0410835411249" y="213.5106772866111"/>
      <point x="369.04855068495397" y="153.00555508108124" type="curve" smooth="yes"/>
      <point x="369.0538739674753" y="109.87181253349847"/>
      <point x="368.9177882856021" y="64.80428636773976"/>
      <point x="361.1020112690571" y="26.092587092130046" type="curve" smooth="yes"/>
      <point x="347.743504989161" y="-40.07236065189811"/>
      <point x="259.5235746637901" y="-22.261018945369997"/>
      <point x="272.88208094368616" y="43.90392879865816" type="curve" smooth="yes"/>
      <point x="279.1686793735017" y="75.04157606857919"/>
      <point x="279.05283313778216" y="118.29994243967666"/>
      <point x="279.04855137034315" y="152.9944478737077" type="curve" smooth="yes"/>
      <point x="279.03742371722757" y="243.1601159029677"/>
      <point x="279.02967097218385" y="305.9794209876553"/>
      <point x="279.0214004191922" y="372.99444452291607" type="curve" smooth="yes"/>
      <point x="278.99956714196577" y="549.9061442249697"/>
      <point x="453.85237890658" y="549.9381953832608"/>
      <point x="453.8742121838065" y="373.0264956812073" type="curve" smooth="yes"/>
      <point x="453.879926384055" y="326.7252066932092"/>
      <point x="453.88866539592783" y="255.91433262649443"/>
      <point x="453.8926007825405" y="224.02649795060708" type="curve" smooth="yes"/>
      <point x="453.9087663712566" y="93.03920974867131"/>
      <point x="371.92145943632335" y="-10.97905275921429"/>
      <point x="267.4946934366468" y="-10.979052759214284" type="curve" smooth="yes"/>
      <point x="179.0444798452062" y="-10.979052759214277"/>
      <point x="112.18253497337682" y="62.38298097800275"/>
      <point x="112.16468539356224" y="207.01539100215828" type="curve" smooth="yes"/>
      <point x="112.15488042348828" y="286.46356102873335"/>
      <point x="115.68688296283183" y="369.30055371708926"/>
      <point x="98.95733401101589" y="448.7445968622187" type="curve" smooth="yes"/>
      <point x="85.04805411772868" y="514.7959551590031"/>
      <point x="173.11653184677462" y="533.3416616833861"/>
    </contour>
  </outline>
</glyph>
<glyph name="v" format="2">
  <advance width="345"/>
  <unicode hex="0076"/>
  <outline>
    <contour>
      <point x="152.36223593247473" y="477.94739945447947" type="curve" smooth="yes"/>
      <point x="185.12589072279204" y="411.62463372303614"/>
      <point x="198.81563433426842" y="373.00768883257354"/>
      <point x="209.11522373212617" y="336.12392296111557" type="curve" smooth="yes"/>
      <point x="231.09089400203405" y="257.4270501253669"/>
      <point x="243.84687230677866" y="207.60886032389183"/>
      <point x="266.923386379971" y="129.8190300337836" type="curve" smooth="yes"/>
      <point x="269.33847404812224" y="121.67788448444486"/>
      <point x="211.47927363957308" y="121.22365484915309"/>
      <point x="213.66077670296585" y="129.0684590678902" type="curve" smooth="yes"/>
      <point x="236.97120572982573" y="212.8940355885484"/>
      <point x="282.07285064121976" y="271.23675341454907"/>
      <point x="308.6895955208056" y="345.24925917763113" type="curve" smooth="yes"/>
      <point x="319.7290790695124" y="375.9464704056193"/>
      <point x="322.99562418982595" y="407.2088187050765"/>
      <point x="322.98935432748067" y="458.0110236889734" type="curve" smooth="yes"/>
      <point x="322.98102367125784" y="525.5110231749006"/>
      <point x="412.9810229858274" y="525.5221307165309"/>
      <point x="412.9893536420502" y="458.0221312306038" type="curve" smooth="yes"/>
      <point x="412.99736996354926" y="393.0690611969265"/>
      <point x="407.4940925662901" y="354.04049183487456"/>
      <point x="393.37958024734485" y="314.7926262872647" type="curve" smooth="yes"/>
      <point x="363.2289251675052" y="230.95346627905369"/>
      <point x="320.94881613056236" y="178.95647546724032"/>
      <point x="300.37057046104945" y="104.95597959292535" type="curve" smooth="yes"/>
      <point x="254.8342095915403" y="-58.795262314334714"/>
      <point x="231.0520924135759" y="-65.71416354101409"/>
      <point x="180.63992227552367" y="104.22286191946326" type="curve" smooth="yes"/>
      <point x="157.4110176019722" y="182.52639366821217"/>
      <point x="144.5522708725848" y="232.70139854648366"/>
      <point x="122.43147965524523" y="311.9179626865507" type="curve" smooth="yes"/>
      <point x="113.17393996788782" y="345.070053821877"/>
      <point x="101.11999025178392" y="378.47312313415745"/>
      <point x="71.67116245799564" y="438.08575546509775" type="curve" smooth="yes"/>
      <point x="41.7749294659593" y="498.6040605709571"/>
      <point x="122.4660029404384" y="538.4657045603387"/>
    </contour>
  </outline>
</glyph>
